<svg width="334" height="348" viewBox="0 0 334 348" fill="none" xmlns="http://www.w3.org/2000/svg">
<g clip-path="url(#clip0_14_2974)">
<path d="M227.387 0.392941C197.939 0.896941 175.235 24.9769 150.027 40.2089C111.963 63.2089 63.075 67.8809 30.923 98.6089C8.91501 119.673 -1.94898 151.385 1.12302 181.681C4.19502 211.977 20.835 240.377 44.899 259.049C60.243 270.945 78.251 278.969 96.627 285.249C115.251 291.601 134.643 296.313 154.323 296.561C181.595 296.905 208.387 288.657 233.059 277.017C250.219 268.929 266.763 259.041 280.259 245.705C293.011 233.113 302.787 217.641 309.483 201.017C326.035 159.929 323.403 112.833 309.051 70.9209C297.179 36.2569 268.155 -0.311059 227.387 0.392941Z" fill="#92E3A9"/>
<path opacity="0.7" d="M227.387 0.392941C197.939 0.896941 175.235 24.9769 150.027 40.2089C111.963 63.2089 63.075 67.8809 30.923 98.6089C8.91501 119.673 -1.94898 151.385 1.12302 181.681C4.19502 211.977 20.835 240.377 44.899 259.049C60.243 270.945 78.251 278.969 96.627 285.249C115.251 291.601 134.643 296.313 154.323 296.561C181.595 296.905 208.387 288.657 233.059 277.017C250.219 268.929 266.763 259.041 280.259 245.705C293.011 233.113 302.787 217.641 309.483 201.017C326.035 159.929 323.403 112.833 309.051 70.9209C297.179 36.2569 268.155 -0.311059 227.387 0.392941Z" fill="white"/>
<path opacity="0.1" d="M245.643 169.961C245.435 163.937 245.043 157.513 244.395 150.865C243.523 137.585 241.859 125.185 238.843 117.385C222.235 113.985 135.955 120.321 135.891 120.321L135.355 117.921L135.139 116.969L134.755 115.297L134.651 114.913C134.091 112.657 133.459 110.425 132.723 108.209C132.723 108.209 67.3148 102.369 45.6188 108.033C45.6188 108.225 45.6188 108.409 45.6188 108.601L45.6828 113.953C45.7468 124.313 45.5068 134.033 46.0428 144.705V144.785C45.939 144.776 45.8345 144.776 45.7308 144.785C44.8888 144.896 44.0941 145.238 43.4347 145.774C42.7753 146.309 42.2769 147.016 41.9948 147.817C41.7795 148.438 41.7004 149.099 41.7628 149.753L42.0508 153.121C42.0508 153.177 42.0508 153.225 42.0508 153.281C42.8508 161.777 43.6508 170.193 43.6508 170.193C43.6508 170.193 44.0668 170.233 44.7468 170.265L48.3388 170.521C40.6908 171.225 32.3388 181.321 32.7068 190.001C33.0748 198.681 24.7068 215.025 26.7948 224.401C28.3948 231.729 36.6268 243.513 40.6348 252.465L40.3228 254.241L22.4268 290.177C23.6268 288.417 34.4268 335.377 84.5868 325.433L120.275 267.289C124.255 264.287 127.898 260.862 131.139 257.073C132.507 255.714 133.644 254.142 134.507 252.417C135.781 250.381 136.754 248.172 137.395 245.857C137.555 245.249 137.723 244.649 137.899 244.033C140.811 236.617 144.699 226.497 147.547 219.489C185.147 218.369 224.627 216.073 244.451 211.409H244.491C246.411 198.369 246.451 183.737 245.643 169.961ZM52.5468 202.817C52.2364 200.651 52.0494 198.469 51.9868 196.281C52.4268 198.585 52.9068 200.881 53.4108 203.185C53.1228 203.057 52.8348 202.929 52.5468 202.817Z" fill="black"/>
<path d="M18.3389 287.881C18.3389 287.881 34.4029 335.377 84.5869 325.433C84.5869 325.433 95.7229 273.153 105.051 265.433C111.067 260.473 124.355 251.577 127.195 245.137C130.035 238.697 141.443 208.113 143.651 204.433C145.859 200.753 119.715 158.409 119.715 158.409L64.6429 186.825L34.0029 241.225C34.0029 241.225 28.1229 276.425 18.3389 287.881Z" fill="white"/>
<path d="M33.4667 245.465C33.4667 245.465 29.5387 274.833 16.5547 290.177" stroke="#263238" stroke-width="0.8" stroke-linecap="round" stroke-linejoin="round"/>
<path d="M84.5869 325.433C84.5869 325.433 95.6589 274.849 105.051 265.433C105.051 265.433 126.267 253.097 130.091 238.577C132.739 228.521 137.555 216.929 139.859 211.665" stroke="#263238" stroke-width="0.8" stroke-linecap="round" stroke-linejoin="round"/>
<path d="M89.0509 213.289C88.2509 212.777 101.891 223.689 102.419 238.601" stroke="#263238" stroke-width="0.8" stroke-linecap="round" stroke-linejoin="round"/>
<path d="M237.187 204.145C192.963 214.545 50.531 213.177 50.531 213.177C49.331 210.649 47.883 204.281 46.483 196.905C43.683 182.097 41.067 163.225 41.067 163.225L36.355 162.897C36.355 162.897 35.555 154.481 34.755 145.985C33.955 137.489 38.755 137.497 38.755 137.497L38.411 108.089L38.323 100.745C60.019 95.081 125.427 100.921 125.427 100.921L127.467 108.009L128.603 113.033L231.547 110.129C240.987 134.537 237.187 204.145 237.187 204.145Z" fill="#92E3A9"/>
<path d="M220.084 132.797L152.564 136.173C149.785 136.312 147.644 138.677 147.783 141.456L148.469 155.176C148.608 157.955 150.974 160.096 153.753 159.957L221.273 156.581C224.052 156.442 226.192 154.076 226.053 151.297L225.367 137.577C225.228 134.798 222.863 132.658 220.084 132.797Z" fill="#263238"/>
<path d="M225.691 165.553L225.899 167.825L148.155 170.841L148.091 168.793L225.691 165.553Z" fill="#263238"/>
<path d="M226.075 173.481L226.139 175.529L148.403 178.401L148.339 176.353L226.075 173.481Z" fill="#263238"/>
<path opacity="0.3" d="M231.531 110.129C231.531 110.129 243.003 164.529 237.187 204.145C237.187 204.145 164.643 212.657 139.803 211.281L138.787 198.041L140.867 197.721C140.867 197.721 130.851 122.153 128.579 113.033C128.579 113.033 214.971 106.721 231.531 110.129Z" fill="black"/>
<path opacity="0.8" d="M136.395 197.849L137.251 207.857C137.251 207.857 64.1307 211.057 57.6987 208.729C51.2667 206.401 58.0427 202.689 75.0507 201.353C92.0587 200.017 136.395 197.849 136.395 197.849Z" fill="white"/>
<path d="M92.7386 155.401C96.4279 155.401 99.4186 152.693 99.4186 149.353C99.4186 146.013 96.4279 143.305 92.7386 143.305C89.0493 143.305 86.0586 146.013 86.0586 149.353C86.0586 152.693 89.0493 155.401 92.7386 155.401Z" fill="#263238"/>
<path d="M41.0669 163.217C42.5739 180.14 45.7411 196.874 50.5229 213.177C81.5389 212.913 112.547 212.569 143.555 211.577C174.563 210.585 206.427 208.489 237.155 204.145C237.155 204.145 242.659 155.537 231.499 110.129C219.163 107.561 128.891 113.017 128.891 113.017" stroke="#263238" stroke-width="0.8" stroke-linecap="round" stroke-linejoin="round"/>
<path d="M136.395 197.849L137.251 207.857L67.6508 209.457C64.7788 209.705 60.3068 210.081 57.6668 208.729C56.4668 208.113 55.6028 206.609 56.1708 205.377C56.6828 204.273 58.0268 203.881 59.2268 203.641C67.7388 201.889 76.4268 201.153 85.0908 200.513C103.64 199.137 122.219 198.206 140.827 197.721C140.435 197.721 135.899 160.289 135.395 156.833C133.427 143.313 131.555 129.737 129.123 116.289C128.245 111.082 126.991 105.946 125.371 100.921C96.6988 98.873 66.7548 96.977 38.2588 100.745C38.5228 113.441 38.0508 124.745 38.6988 137.497" stroke="#263238" stroke-width="0.8" stroke-linecap="round" stroke-linejoin="round"/>
<path d="M49.4588 209.409C49.2875 208.891 49.1853 208.353 49.1548 207.809" stroke="#263238" stroke-width="0.8" stroke-linecap="round" stroke-linejoin="round"/>
<path d="M49.6187 204.777C50.6827 202.113 53.8747 199.105 62.5547 198.145C78.3867 196.385 112.899 193.217 133.147 192.449" stroke="#263238" stroke-width="0.8" stroke-linecap="round" stroke-linejoin="round" stroke-dasharray="3.13 3.13"/>
<path d="M134.715 192.393L136.315 192.337L136.099 190.737" stroke="#263238" stroke-width="0.8" stroke-linecap="round" stroke-linejoin="round"/>
<path d="M135.651 187.673C132.011 161.489 127.979 135.497 123.363 109.457" stroke="#263238" stroke-width="0.8" stroke-linecap="round" stroke-linejoin="round" stroke-dasharray="3.1 3.1"/>
<path d="M123.107 107.929L122.819 106.329L121.219 106.217" stroke="#263238" stroke-width="0.8" stroke-linecap="round" stroke-linejoin="round"/>
<path d="M117.987 106.009C104.683 105.121 66.8508 102.905 41.6108 104.633" stroke="#263238" stroke-width="0.8" stroke-linecap="round" stroke-linejoin="round" stroke-dasharray="3.26 3.26"/>
<path d="M39.9789 104.753L38.3789 104.881" stroke="#263238" stroke-width="0.8" stroke-linecap="round" stroke-linejoin="round"/>
<path d="M36.3547 162.897L34.4427 142.497C34.3847 141.884 34.4509 141.266 34.6373 140.68C34.8237 140.093 35.1265 139.55 35.5275 139.083C35.9286 138.617 36.4197 138.236 36.9715 137.963C37.5232 137.69 38.1243 137.532 38.7387 137.497C50.4987 136.817 80.9147 135.217 92.5867 136.153C98.1867 136.601 104.275 138.401 106.987 143.761C109.243 148.177 109.579 154.801 105.795 158.433C100.035 163.953 89.1067 163.529 81.6827 163.793C67.8587 164.321 36.3627 163.017 36.3547 162.897Z" stroke="#263238" stroke-width="0.8" stroke-linecap="round" stroke-linejoin="round"/>
<path d="M108.675 150.425C108.675 149.857 111.587 162.145 100.947 166.201C90.3069 170.257 41.0669 168.977 41.0669 168.977V163.217C41.0669 163.217 75.8989 163.953 81.6989 163.793C87.4989 163.633 108.051 165.561 108.675 150.425Z" fill="#263238"/>
<path d="M98.4429 219.065C98.4429 219.065 107.147 224.161 110.403 233.737" stroke="#263238" stroke-width="0.8" stroke-linecap="round" stroke-linejoin="round"/>
<path d="M34.6826 140.561C34.6826 140.561 77.3706 138.553 88.2346 138.913C99.0986 139.273 104.419 141.665 105.499 148.473C106.579 155.281 99.9946 159.521 94.7466 160.321C89.4986 161.121 36.3466 161.353 36.3466 161.353" stroke="#263238" stroke-width="0.8" stroke-linecap="round" stroke-linejoin="round" stroke-dasharray="3.2 3.2"/>
<path d="M64.0186 223.033C64.0186 223.033 57.4106 200.081 45.2506 195.561C45.2506 195.561 42.8506 179.897 48.0346 179.033C53.2186 178.169 67.8586 168.521 64.0346 156.481C60.2106 144.441 48.7306 162.521 41.0826 163.217C33.4346 163.913 25.0826 174.017 25.4266 182.705C25.7706 191.393 17.4266 207.737 19.5146 217.105C21.6026 226.473 34.4746 243.185 35.5146 251.881" fill="white"/>
<path d="M64.0186 223.033C64.0186 223.033 57.4106 200.081 45.2506 195.561C45.2506 195.561 42.8506 179.897 48.0346 179.033C53.2186 178.169 67.8586 168.521 64.0346 156.481C60.2106 144.441 48.7306 162.521 41.0826 163.217C33.4346 163.913 25.0826 174.017 25.4266 182.705C25.7706 191.393 17.4266 207.737 19.5146 217.105C21.6026 226.473 34.4746 243.185 35.5146 251.881" stroke="#263238" stroke-width="0.8" stroke-linecap="round" stroke-linejoin="round"/>
<path d="M48.0107 159.689C48.0107 159.689 57.1707 161.353 62.1467 155.537C67.1227 149.721 61.3947 149.353 61.3947 149.353L48.0107 159.689Z" fill="white" stroke="#263238" stroke-width="0.8" stroke-linecap="round" stroke-linejoin="round"/>
<path d="M31.6509 172.649C33.323 172.764 34.9399 173.295 36.3549 174.193" stroke="#263238" stroke-width="0.8" stroke-linecap="round" stroke-linejoin="round"/>
<path d="M31.3706 175.977C33.0362 176.135 34.6229 176.762 35.9466 177.785" stroke="#263238" stroke-width="0.8" stroke-linecap="round" stroke-linejoin="round"/>
<path d="M56.0986 206.721C56.0986 206.721 95.2986 204.697 105.619 205.289" stroke="#263238" stroke-width="0.8" stroke-linecap="round" stroke-linejoin="round"/>
<path d="M96.0747 202.297C96.0747 202.297 105.939 201.497 112.075 202.297" stroke="#263238" stroke-width="0.8" stroke-linecap="round" stroke-linejoin="round"/>
<path d="M121.067 205.177H137.035" stroke="#263238" stroke-width="0.8" stroke-linecap="round" stroke-linejoin="round"/>
<path d="M130.723 117.513C130.723 117.513 200.827 111.249 228.995 114.825C228.995 114.825 236.595 128.801 234.939 200.425C203.279 204.483 171.426 206.852 139.515 207.521" stroke="#263238" stroke-width="0.8" stroke-linecap="round" stroke-linejoin="round" stroke-dasharray="3.2 3.2"/>
<g opacity="0.1">
<path d="M320.499 216.633C318.507 208.161 315.587 204.977 312.659 202.529C312.659 202.529 312.595 197.729 308.843 194.993C307.841 194.11 306.771 193.308 305.643 192.593C302.123 189.953 298.243 186.993 298.243 186.993C296.419 181.713 293.947 175.321 291.275 169.033L291.411 170.465C288.675 163.785 285.995 157.137 285.243 154.929V154.881C286.043 157.009 286.843 159.065 287.723 160.961L277.707 125.561C277.467 124.137 277.219 122.737 276.971 121.385C276.491 117.385 275.187 109.849 272.043 109.313C271.926 109.305 271.808 109.305 271.691 109.313C271.691 109.313 267.987 107.713 267.987 114.281C263.579 115.753 261.875 119.081 261.451 122.993C261.222 124.234 261.195 125.504 261.371 126.753C261.451 128.201 261.619 129.681 261.843 131.153L247.651 112.497L246.283 110.721L228.779 87.681L205.251 56.641C204.376 55.4888 203.282 54.5203 202.032 53.7909C200.782 53.0615 199.401 52.5856 197.967 52.3902C196.533 52.1948 195.075 52.2838 193.675 52.6522C192.276 53.0205 190.963 53.661 189.811 54.537L160.603 76.721L149.203 85.377C140.459 89.929 142.739 98.921 145.163 102.113L196.099 169.161C195.834 169.128 195.566 169.114 195.299 169.121C195.299 169.121 193.843 165.689 190.243 166.233C189.476 166.268 188.734 166.515 188.099 166.945C187.518 167.25 187.025 167.699 186.667 168.249C186.268 168.731 185.909 169.244 185.595 169.785C183.763 172.921 185.459 180.593 188.107 189.961C188.275 190.569 188.443 191.153 188.603 191.697V191.785L189.283 194.129C191.875 203.121 196.723 220.777 197.619 229.433C197.683 230.233 197.723 231.089 197.739 231.889C197.795 241.857 193.371 258.545 195.275 265.441C195.523 266.345 195.779 267.209 196.035 268.065C197.451 272.673 198.715 277.033 200.939 281.361C203.643 286.641 206.867 291.705 209.883 296.817C215.419 306.209 221.147 315.489 227.067 324.657C229.795 328.865 232.987 332.705 236.075 336.657C237.491 338.473 240.579 341.201 241.115 343.529C241.115 343.529 268.499 345.793 283.827 336.057L282.387 314.265L292.667 255.185C295.603 250.729 304.667 242.025 306.475 239.273C307.411 237.905 308.323 236.545 309.211 235.217C315.971 228.905 319.355 224.017 320.843 218.329C320.875 218.345 320.771 217.697 320.499 216.633ZM225.699 229.537L225.563 229.281C228.36 230.547 231.323 231.409 234.363 231.841C231.171 231.473 227.563 230.961 225.699 229.537ZM237.251 232.185L238.723 232.289C238.231 232.287 237.739 232.253 237.251 232.185ZM225.411 228.937L223.571 225.289C221.011 217.945 215.227 200.633 215.203 200.561C214.07 195.572 212.557 190.678 210.675 185.921C212.036 186.401 213.495 186.535 214.92 186.312C216.346 186.088 217.694 185.514 218.843 184.641L232.843 174.009C234.291 174.881 235.771 175.665 237.219 176.353L250.331 186.601L239.931 229.345L225.411 228.937ZM278.483 130.489C279.571 135.593 281.291 142.937 283.571 150.049C281.358 143.673 279.651 137.133 278.467 130.489H278.483Z" fill="black"/>
<path d="M219.051 335.881L219.131 336.265C219.131 336.265 219.107 336.121 219.051 335.881Z" fill="black"/>
</g>
<path d="M267.651 132.057C268.451 131.529 280.179 125.145 286.051 144.289C291.923 163.433 298.811 196.009 298.811 196.009L284.859 198.721C284.859 198.721 271.931 191.841 260.347 174.609C260.347 174.609 244.107 170.401 237.035 160.401C230.635 151.313 250.379 117.945 250.379 117.945L267.651 132.057Z" fill="white"/>
<path d="M262.635 155.881C266.091 161.065 272.635 171.969 281.467 175.409" stroke="#263238" stroke-width="0.8" stroke-linecap="round" stroke-linejoin="round"/>
<path d="M252.859 161.457C254.459 162.105 258.459 164.409 260.347 164.497C260.347 164.497 268.499 180.633 281.947 185.873" stroke="#263238" stroke-width="0.8" stroke-linecap="round" stroke-linejoin="round"/>
<path d="M245.379 167.401C250.379 171.585 256.339 174.441 260.347 174.601C260.347 174.601 268.499 190.737 281.947 195.977" stroke="#263238" stroke-width="0.8" stroke-linecap="round" stroke-linejoin="round"/>
<path d="M203.3 50.4739L159.063 84.076C155.221 86.9944 154.472 92.4748 157.391 96.3169L218.832 177.204C221.75 181.046 227.23 181.795 231.073 178.876L275.31 145.274C279.152 142.356 279.9 136.875 276.982 133.033L215.541 52.1463C212.623 48.3043 207.142 47.5555 203.3 50.4739Z" fill="#263238"/>
<path d="M274.051 143.521L233.459 174.361C232.307 175.239 230.994 175.88 229.594 176.249C228.194 176.618 226.735 176.707 225.3 176.511C223.866 176.315 222.484 175.837 221.235 175.106C219.985 174.374 218.892 173.404 218.019 172.249L159.339 95.001C158.383 93.7533 157.711 92.3116 157.371 90.777C156.898 88.7163 157.03 86.5628 157.753 84.5757C158.475 82.5887 159.757 80.8528 161.443 79.577L172.851 70.921L202.051 48.729C203.203 47.8535 204.517 47.2135 205.916 46.8458C207.316 46.4781 208.774 46.3898 210.208 46.5859C211.642 46.782 213.023 47.2588 214.273 47.9889C215.522 48.719 216.616 49.6882 217.491 50.841L241.035 81.833L258.539 104.873L276.139 128.073C277.017 129.224 277.659 130.537 278.03 131.937C278.4 133.336 278.491 134.795 278.297 136.23C278.103 137.665 277.628 139.047 276.9 140.298C276.171 141.549 275.203 142.644 274.051 143.521Z" fill="#92E3A9"/>
<path opacity="0.1" d="M241.003 81.833L172.827 70.913L202.051 48.729C203.203 47.8535 204.517 47.2135 205.916 46.8458C207.316 46.4781 208.774 46.3898 210.208 46.5859C211.642 46.782 213.023 47.2588 214.273 47.9889C215.522 48.719 216.616 49.6882 217.491 50.841L241.003 81.833Z" fill="black"/>
<path opacity="0.1" d="M274.051 143.521L233.459 174.361C232.307 175.239 230.994 175.88 229.594 176.249C228.194 176.618 226.735 176.707 225.3 176.511C223.866 176.314 222.484 175.837 221.235 175.106C219.985 174.374 218.892 173.404 218.019 172.249L159.339 95.001C158.383 93.7532 157.711 92.3116 157.371 90.777L259.883 106.721L276.139 128.121C277.897 130.443 278.664 133.366 278.273 136.252C277.882 139.138 276.364 141.751 274.051 143.521Z" fill="black"/>
<path d="M207.82 56.5643L200.653 62.0082C199.218 63.0986 198.938 65.1462 200.029 66.5817L208.705 78.0041C209.795 79.4396 211.843 79.7194 213.278 78.629L220.445 73.1851C221.881 72.0947 222.161 70.0471 221.07 68.6116L212.394 57.1892C211.303 55.7537 209.256 55.474 207.82 56.5643Z" fill="white" stroke="#263238" stroke-width="0.8" stroke-linecap="round" stroke-linejoin="round"/>
<path d="M204.387 59.1689L216.755 75.9769" stroke="#263238" stroke-width="0.8" stroke-linecap="round" stroke-linejoin="round"/>
<path d="M204.387 72.3209L216.755 62.9449" stroke="#263238" stroke-width="0.8" stroke-linecap="round" stroke-linejoin="round"/>
<path d="M228.347 169.321L226.243 170.881L200.475 136.953L202.563 135.369L228.347 169.321Z" fill="#263238"/>
<path d="M231.923 166.681L229.811 168.241L204.019 134.273L206.099 132.689L231.923 166.681Z" fill="#263238"/>
<path d="M235.499 164.041L233.387 165.601L207.547 131.585L209.635 130.001L235.499 164.041Z" fill="#263238"/>
<path d="M239.067 161.401L236.963 162.953L211.467 129.385L213.547 127.801L239.067 161.401Z" fill="#263238"/>
<path d="M242.923 158.553L240.811 160.105L215.283 126.489L217.371 124.905L242.923 158.553Z" fill="#263238"/>
<path d="M242.923 119.001L240.811 120.553L215.283 86.929L217.371 85.345L242.923 119.001Z" fill="#263238"/>
<path d="M187.317 60.0076L184.049 62.49L256.005 157.22L259.273 154.738L187.317 60.0076Z" fill="#263238"/>
<path d="M274.051 143.521L233.459 174.361C232.307 175.239 230.994 175.88 229.594 176.249C228.194 176.618 226.735 176.707 225.3 176.511C223.866 176.315 222.484 175.837 221.235 175.106C219.985 174.374 218.892 173.404 218.019 172.249L159.339 95.001C158.383 93.7533 157.711 92.3116 157.371 90.777C156.898 88.7163 157.03 86.5628 157.753 84.5757C158.475 82.5887 159.757 80.8528 161.443 79.577L172.851 70.921L202.051 48.729C203.203 47.8535 204.517 47.2135 205.916 46.8458C207.316 46.4781 208.774 46.3898 210.208 46.5859C211.642 46.782 213.023 47.2588 214.273 47.9889C215.522 48.719 216.616 49.6882 217.491 50.841L241.035 81.833L258.539 104.873L276.139 128.073C277.017 129.224 277.659 130.537 278.03 131.937C278.4 133.336 278.491 134.795 278.297 136.23C278.103 137.665 277.628 139.047 276.9 140.298C276.171 141.549 275.203 142.644 274.051 143.521Z" stroke="#263238" stroke-width="0.8" stroke-linecap="round" stroke-linejoin="round"/>
<path d="M241.147 343.521C241.147 343.521 288.395 360.321 302.691 323.729C302.691 323.729 280.331 296.529 292.539 274.305C300.219 260.305 321.459 229.401 321.459 229.401C321.459 229.401 330.331 220.977 333.091 212.513C333.091 212.513 331.571 203.081 324.883 196.697C324.883 196.697 324.811 191.897 321.059 189.161C317.307 186.425 310.427 181.161 310.427 181.161C310.427 181.161 299.115 154.025 297.435 149.121C295.755 144.217 292.379 134.945 290.691 124.705C289.003 114.465 287.443 103.441 283.859 103.473C283.859 103.473 280.163 101.873 280.163 108.441C280.163 108.441 272.403 112.441 273.547 120.905C274.691 129.369 275.747 133.745 275.443 138.505C275.139 143.265 276.667 159.793 280.491 164.977C280.491 164.977 281.771 188.177 283.691 194.217C283.755 194.401 283.811 194.569 283.867 194.721C285.883 199.833 265.739 219.521 254.835 224.849C254.835 224.849 253.691 226.977 249.459 226.393C245.227 225.809 238.067 225.537 236.835 222.393C235.603 219.249 227.403 194.721 227.403 194.721C227.403 194.721 220.771 163.281 207.523 163.289C207.523 163.289 205.515 158.489 200.323 161.113C195.131 163.737 198.531 178.041 200.827 185.865C203.123 193.689 208.939 214.257 209.883 223.721C210.827 233.185 205.467 252.145 207.483 259.601C209.499 267.057 211.739 272.089 218.171 284.297C224.603 296.505 238.851 332.905 241.147 343.521Z" fill="white"/>
<path d="M241.147 343.521C241.147 343.521 231.035 305.457 216.171 280.841C201.307 256.225 210.051 247.521 210.051 227.033C210.051 206.545 193.355 171.665 197.859 163.977C202.363 156.289 208.507 162.441 211.075 169.617C213.643 176.793 210.051 180.897 202.851 181.409" stroke="#263238" stroke-width="0.8" stroke-linecap="round" stroke-linejoin="round"/>
<path d="M207.523 163.321C207.523 163.321 216.155 162.793 221.459 176.593C226.763 190.393 235.259 225.393 244.107 236.041" stroke="#263238" stroke-width="0.8" stroke-linecap="round" stroke-linejoin="round"/>
<path d="M237.123 223.113C237.171 223.225 249.483 230.089 268.587 224.073" stroke="#263238" stroke-width="0.8" stroke-linecap="round" stroke-linejoin="round"/>
<path d="M209.163 203.825C210.122 202.651 211.374 201.749 212.792 201.211C214.211 200.674 215.745 200.518 217.243 200.761" stroke="#263238" stroke-width="0.8" stroke-linecap="round" stroke-linejoin="round"/>
<path d="M210.803 208.169C211.632 207.177 212.724 206.439 213.954 206.039C215.183 205.638 216.5 205.592 217.755 205.905" stroke="#263238" stroke-width="0.8" stroke-linecap="round" stroke-linejoin="round"/>
<path d="M280.163 108.417C267.603 112.601 276.963 131.569 275.443 138.489C273.923 145.409 277.843 158.657 280.859 165.841C280.859 174.265 283.859 194.705 283.859 194.705C282.003 201.209 266.515 220.377 251.467 226.377" stroke="#263238" stroke-width="0.8" stroke-linecap="round" stroke-linejoin="round"/>
<path d="M289.379 117.969C289.379 117.969 288.443 103.449 283.859 103.449C279.275 103.449 279.555 113.233 281.459 120.497C283.363 127.761 290.771 126.721 289.379 117.969Z" stroke="#263238" stroke-width="0.8" stroke-linecap="round" stroke-linejoin="round"/>
<path d="M289.379 117.969C289.379 117.969 293.283 140.793 299.899 155.129" stroke="#263238" stroke-width="0.8" stroke-linecap="round" stroke-linejoin="round"/>
<path d="M307.699 208.585C310.899 203.401 312.315 198.497 313.499 192.257C313.203 188.345 308.699 175.577 303.467 163.209" stroke="#263238" stroke-width="0.8" stroke-linecap="round" stroke-linejoin="round"/>
<path d="M310.851 182.369C316.043 186.273 325.075 189.273 324.035 196.009C322.887 202.748 320.529 209.223 317.075 215.121" stroke="#263238" stroke-width="0.8" stroke-linecap="round" stroke-linejoin="round"/>
<path d="M303.843 325.433C303.843 325.433 285.755 300.321 289.379 282.977C292.043 270.217 309.171 247.905 321.459 229.425C328.227 223.113 331.611 218.225 333.091 212.537C330.923 201.857 327.403 198.745 324.019 196.009" stroke="#263238" stroke-width="0.8" stroke-linecap="round" stroke-linejoin="round"/>
<path d="M308.667 186.513C306.652 185.947 304.542 185.8 302.469 186.082C300.395 186.364 298.401 187.069 296.611 188.153" stroke="#263238" stroke-width="0.8" stroke-linecap="round" stroke-linejoin="round"/>
<path d="M307.651 190.809C305.194 190.437 302.682 190.878 300.499 192.065" stroke="#263238" stroke-width="0.8" stroke-linecap="round" stroke-linejoin="round"/>
</g>
<defs>
<clipPath id="clip0_14_2974">
<rect width="332.888" height="347.016" fill="white" transform="translate(0.61084 0.376953)"/>
</clipPath>
</defs>
</svg>
