<svg width="69" height="89" viewBox="0 0 69 89" fill="none" xmlns="http://www.w3.org/2000/svg">
<path d="M10.9558 88.7027C10.538 88.4922 10.1296 88.2536 9.73222 87.9878C8.3268 86.9259 7.71136 85.3042 7.71136 83.2798C7.71136 81.4036 7.72973 79.5273 7.69482 77.6534C7.68302 77.2054 7.56814 76.7714 7.36414 76.4041C5.67764 73.5909 4.79214 70.4653 4.86379 66.9187C4.90604 64.5821 4.91155 62.2431 4.86379 59.9065C4.79765 56.8017 5.18897 53.8751 6.8424 51.1521C6.21225 51.1521 5.72909 51.1521 5.24592 51.1521C4.6268 51.1521 4.00767 51.1683 3.39039 51.1244C2.02907 51.0272 0.818402 49.7108 0.654896 48.022C0.559371 46.9921 0.559371 45.9517 0.654896 44.9219C0.794519 43.3949 1.90415 41.9397 3.10013 41.8171C4.30963 41.6848 5.52636 41.6972 6.734 41.8541C8.099 42.0439 8.92021 42.8212 10.3918 44.7854C10.5038 44.5147 10.6104 44.2671 10.7077 44.015C12.1958 40.1236 13.6472 36.2138 15.1775 32.3456C16.368 29.3172 18.4201 27.9985 21.0435 27.9893C25.054 27.9777 29.0663 27.9893 33.0768 27.9893H33.966C32.2519 21.0811 32.8747 14.6727 36.1559 8.81492C38.5148 4.60202 41.7445 1.87439 45.709 0.618158C53.6087 -1.88737 61.8263 3.41981 65.0615 12.9862C68.4253 22.9343 65.2764 34.9437 56.7429 40.1213C57.3712 41.7015 57.9977 43.2816 58.6664 44.9658L59.0448 44.3828C60.0093 42.9068 61.2365 42.0415 62.7614 41.9236C63.5826 41.8611 64.4148 41.8541 65.2323 41.8588C65.5534 41.861 65.8726 41.921 66.1803 42.0369C67.9109 42.7009 68.7045 44.9612 68.3224 48.0798C68.0854 50 66.8196 51.2863 65.1515 51.2909C64.1227 51.2909 63.0939 51.2909 61.9935 51.2909C62.0359 51.4363 62.0875 51.5771 62.1478 51.712C63.2703 53.7201 63.9298 55.948 63.9592 58.4027C63.9959 61.8058 63.9959 65.2113 63.9243 68.6145C63.8618 71.5365 62.9267 74.0767 61.5195 76.374C61.2971 76.7544 61.1692 77.2093 61.152 77.6811C61.1116 79.532 61.141 81.3828 61.1337 83.2197C61.1337 85.9427 60.0938 87.7033 58.0216 88.5593C57.962 88.5969 57.9074 88.6461 57.8599 88.705H51.7973C51.7505 88.6455 51.6965 88.5955 51.6375 88.557C49.5284 87.6778 48.5309 85.9496 48.5235 83.1457C48.5235 82.4377 48.5235 81.7298 48.5235 80.9918H20.2976C20.2976 81.9172 20.3234 82.8056 20.2976 83.6893C20.2333 85.5401 19.5793 87.0023 18.3153 87.9739C17.8956 88.255 17.4611 88.4993 17.0147 88.705L10.9558 88.7027ZM34.5906 51.7351C26.408 51.7351 18.2259 51.729 10.0445 51.7166C9.77445 51.6958 9.50459 51.7615 9.26012 51.9076C9.01564 52.0536 8.80453 52.2752 8.64647 52.5518C7.53508 54.3012 6.93971 56.4818 6.9618 58.7219C6.9618 61.5213 6.93792 64.3206 6.97283 67.12C6.98918 68.0693 7.07777 69.0145 7.23737 69.9425C7.87303 73.7436 10.5975 78.322 15.1757 78.0212C17.2333 77.8847 19.3019 77.9981 21.3632 77.9981C32.2746 77.9981 43.1848 77.9981 54.0937 77.9981C55.6296 77.9981 57.0332 77.5747 58.3045 76.4666C61.0418 74.0698 61.9494 70.5301 62.0835 66.5833C62.1717 63.9921 62.1055 61.3917 62.0982 58.7937C62.1283 56.4933 61.5063 54.2548 60.3437 52.4801C60.1988 52.2289 60.0066 52.027 59.7843 51.8925C59.5621 51.7581 59.3168 51.6952 59.0706 51.7097C50.9124 51.739 42.7524 51.7475 34.5906 51.7351ZM35.3843 20.9331C35.3677 30.8997 41.7867 39.0085 49.736 39.0664C57.6357 39.1219 64.1943 30.9043 64.1907 20.9377C64.187 10.9711 57.6743 2.83912 49.7176 2.79285C41.8326 2.74658 35.4045 10.8809 35.3879 20.9331H35.3843ZM54.6265 40.9357C51.9908 42.0025 49.1807 42.1922 46.4696 41.4863C41.5534 40.2216 37.8179 36.8577 35.263 31.3948C35.1906 31.2486 35.094 31.1238 34.9799 31.0288C34.8658 30.9338 34.7368 30.8708 34.6016 30.8442C29.8581 30.8187 25.1128 30.7909 20.3693 30.858C18.9143 30.8789 17.8248 31.8806 17.1414 33.5163C16.9577 33.9489 16.8162 34.407 16.6472 34.8465C14.8395 39.5568 13.0293 44.2702 11.2166 48.9867H57.7386L54.6265 40.9357ZM18.161 80.7142C15.3024 80.6401 12.4659 81.1236 9.84612 79.0068C9.84612 80.5962 9.8351 81.975 9.84612 83.3516C9.86082 84.8322 10.6287 85.8756 11.81 85.9172C13.2797 85.9704 14.7495 85.9658 16.2192 85.9172C17.3362 85.8848 18.1078 84.9016 18.161 83.5043C18.1886 82.6182 18.161 81.7298 18.161 80.7142ZM59.1 79.1572C56.4875 81.2833 53.6216 80.7442 50.7997 80.8506C50.7997 81.7992 50.774 82.6297 50.7997 83.458C50.853 84.9155 51.6044 85.8825 52.7618 85.9196C54.2315 85.9658 55.6902 85.9612 57.1526 85.9196C58.152 85.8918 59.0246 85.0057 59.0761 83.8767C59.1514 82.3706 59.1 80.853 59.1 79.1572ZM6.02854 48.3597C6.80749 48.3597 7.58827 48.3759 8.36722 48.3597C8.96613 48.3435 9.22149 47.7397 8.93489 47.0757C8.07878 45.0931 6.7487 44.3389 4.96851 44.3342C2.60043 44.3342 2.80802 44.7854 2.81537 47.196C2.81537 47.9849 3.1534 48.3528 3.75966 48.3528C4.51473 48.3644 5.27164 48.3574 6.02854 48.3597ZM62.8165 48.3597C63.5716 48.3597 64.3266 48.3597 65.0817 48.3597C65.8717 48.3597 66.1307 48.0104 66.1436 46.9994C66.1436 46.5112 66.1436 46.0208 66.1436 45.5326C66.1436 44.79 65.8129 44.4175 65.2562 44.3759C64.8006 44.3388 64.3376 44.3967 63.8839 44.3597C62.1386 44.2116 60.9059 45.1879 60.0608 47.0595C59.7301 47.7929 59.9505 48.3435 60.6229 48.3597C61.3541 48.3736 62.0853 48.3597 62.8165 48.3597Z" fill="#50AC97"/>
<path d="M52.2732 66.0164C50.8035 66.0164 49.3338 66.0858 47.8824 65.991C46.8261 65.9239 46.3209 65.0656 46.3337 63.7214C46.3613 61.0516 47.6693 59.0389 49.7931 58.4374C51.6651 57.9076 53.5464 57.424 55.4166 56.8827C57.4374 56.2974 59.0394 57.9723 58.83 60.3529C58.7528 61.2367 58.83 62.1413 58.8153 63.0343C58.7969 64.7787 58.1043 65.8661 56.7338 65.9771C55.2531 66.0951 53.7613 66.0025 52.2751 66.0025L52.2732 66.0164ZM48.6687 63.4392H50.0962C52.0619 63.4392 54.0277 63.4253 55.9934 63.3998C56.2855 63.3998 56.686 63.5132 56.6842 62.8654C56.6842 61.9169 56.7081 60.9637 56.6511 60.0198C56.6401 59.8255 56.2837 59.4738 56.1404 59.5108C54.0865 60.0383 52.0362 60.5912 49.997 61.202C49.207 61.438 48.7367 62.3079 48.6687 63.4392Z" fill="#50AC97"/>
<path d="M17.0551 66.4028C15.3907 66.2755 13.7152 66.2616 12.0673 65.984C10.6619 65.7527 10.1493 64.7856 10.1419 62.9765C10.1419 61.9955 10.1291 61.0146 10.1419 60.036C10.175 57.9029 11.4849 56.4408 13.1493 56.8364C15.3025 57.35 17.4501 57.9284 19.5683 58.6294C21.422 59.2448 22.6915 61.6508 22.618 64.0962C22.5849 65.3039 22.0668 66.0881 21.0362 66.1622C19.7135 66.2547 18.3834 66.183 17.057 66.183L17.0551 66.4028ZM20.4593 63.3212C20.2095 61.9886 19.7061 61.2575 18.8059 61.0077C16.8732 60.4524 14.9277 59.962 12.995 59.4021C12.398 59.2309 12.2602 59.5363 12.2602 60.1864C12.2905 60.9339 12.2905 61.6829 12.2602 62.4305C12.2106 63.1847 12.4163 63.4392 13.0226 63.4299C15.2621 63.3952 17.5015 63.4299 19.7429 63.4114C19.9633 63.4045 20.1838 63.3559 20.4593 63.3212Z" fill="#50AC97"/>
<path d="M34.5484 64.8412C36.8387 64.8412 39.1296 64.8412 41.4212 64.8412C41.6722 64.8367 41.9228 64.8662 42.1689 64.9291C42.3977 64.9846 42.6032 65.1412 42.7483 65.3707C42.8935 65.6002 42.9688 65.8875 42.9607 66.1807C42.9887 66.4888 42.9271 66.7992 42.7872 67.0545C42.6474 67.3097 42.4388 67.4925 42.2001 67.5688C41.9113 67.659 41.6138 67.6972 41.3164 67.6822C36.7591 67.6822 32.2005 67.6822 27.6407 67.6822C26.5072 67.6822 25.9873 67.2496 25.9873 66.2941C25.9873 65.3386 26.5568 64.8389 27.6775 64.8389L34.5484 64.8412Z" fill="#50AC97"/>
<path d="M34.4454 73.3202C32.0406 73.3202 29.6358 73.3202 27.2291 73.3202C26.2205 73.3202 25.6234 72.1796 26.1801 71.2635C26.3264 71.0581 26.5035 70.8911 26.7012 70.772C26.8988 70.6529 27.1132 70.5841 27.332 70.5694C29.577 70.5023 31.822 70.537 34.067 70.537C36.6096 70.537 39.1522 70.507 41.6929 70.5694C41.9074 70.5918 42.116 70.6694 42.3056 70.7976C42.4952 70.9257 42.6619 71.1016 42.7952 71.3144C42.9661 71.6336 42.9091 72.4017 42.7052 72.7164C42.4774 73.068 41.9703 73.2924 41.5845 73.3017C39.211 73.3456 36.8282 73.3202 34.4454 73.3202Z" fill="#50AC97"/>
<path d="M50.7925 11.6421C50.7925 14.268 50.7925 16.8059 50.8072 19.3415C50.8275 19.4683 50.8714 19.5872 50.9353 19.6886C50.9991 19.7899 51.0812 19.8708 51.1746 19.9245C53.7742 21.1044 55.1832 23.3947 55.1869 26.4833C55.1906 29.5718 53.6878 31.964 51.0883 33.0652L50.7943 33.1809C50.7943 33.6251 50.7943 34.1063 50.7943 34.5875C50.7759 35.7211 50.4048 36.3249 49.7177 36.3504C49.0307 36.3758 48.5603 35.6841 48.5456 34.5898C48.5456 34.1271 48.5456 33.6644 48.5456 33.1716C47.3631 32.8683 46.2902 32.0917 45.4868 30.9576C44.7016 29.8141 44.2351 28.3784 44.1585 26.8696C44.0887 25.8748 44.4341 25.2363 45.0661 25.1322C45.801 25.0096 46.3154 25.5023 46.3852 26.5619C46.4917 28.1675 47.0649 29.3381 48.2223 30.0322C48.3141 30.0751 48.4088 30.1076 48.5052 30.1294C48.5199 29.9466 48.5402 29.8101 48.5402 29.6667C48.5402 27.1588 48.5402 24.6487 48.5402 22.12C48.1121 21.9257 47.6969 21.7776 47.3093 21.5578C46.3439 21.0084 45.5287 20.1127 44.9656 18.9826C44.4026 17.8526 44.1167 16.5385 44.1439 15.2049C44.1772 13.826 44.5482 12.4938 45.2059 11.3905C45.8636 10.2873 46.776 9.46693 47.8181 9.04173C48.4226 8.78956 48.6155 8.44485 48.542 7.6999C48.5098 7.32773 48.5285 6.95137 48.5971 6.5871C48.7165 5.90693 49.0858 5.57147 49.6388 5.57147C49.8817 5.554 50.1217 5.64416 50.3174 5.82629C50.513 6.00842 50.6518 6.27104 50.7098 6.56859C50.7409 6.64666 50.7555 6.73353 50.7521 6.82077C50.4875 8.40553 51.2554 8.85665 52.2549 9.4304C54.1085 10.4923 55.0234 12.5236 55.1594 15.0869C55.2126 16.1141 54.8305 16.748 54.1471 16.8036C53.4912 16.8545 52.9824 16.2506 52.9383 15.2743C52.8703 13.7752 52.3504 12.6392 51.3289 11.8665C51.2498 11.8084 51.1668 11.7588 51.0809 11.7185C50.9859 11.6864 50.8896 11.6609 50.7925 11.6421ZM48.5034 11.6629C47.8687 11.9396 47.3215 12.4659 46.9424 13.164C46.5633 13.8621 46.3725 14.6952 46.398 15.5404C46.4366 17.1598 47.3644 18.8001 48.5034 19.2096V11.6629ZM50.8458 22.7493V30.2057C52.1722 29.6574 52.9842 28.0703 52.9291 26.2195C52.8776 24.5353 52.0289 23.0963 50.8458 22.7493Z" fill="#50AC97"/>
</svg>
