<svg width="69" height="89" viewBox="0 0 69 89" fill="none" xmlns="http://www.w3.org/2000/svg">
<path d="M0.583496 62.3653C0.673041 62.0751 0.762586 61.785 0.846864 61.4948C1.12496 60.5757 1.60754 59.7877 2.2318 59.2332C2.85605 58.6788 3.59309 58.3836 4.34702 58.386C6.37758 58.386 8.41078 58.4413 10.4387 58.3653C11.8925 58.3135 13.1435 58.766 14.1101 60.3066L16.1011 59.3463C15.8193 57.8403 15.4822 56.4033 15.2873 54.9353C13.8941 44.393 16.0195 35.2462 21.7082 27.5675C24.5105 23.792 27.3785 20.1029 30.2334 16.3931C30.3759 16.2458 30.4754 16.0388 30.5152 15.8067C30.555 15.5746 30.5327 15.3316 30.452 15.1185C29.6119 12.0512 28.777 8.97691 28.008 5.87502C27.8121 5.11974 27.7784 4.30834 27.9105 3.52961C28.3346 1.49507 30.2492 0.735142 31.5582 1.98211C32.7907 3.15309 33.0304 3.13928 34.1919 1.85085C35.297 0.623803 36.7049 -0.0336357 38.1526 0.00132599C39.6003 0.0362877 40.9887 0.761265 42.0586 2.04084C42.9383 3.07711 43.4519 3.07711 44.3763 2.12029C44.7808 1.66424 45.2896 1.39797 45.8224 1.36356C46.3551 1.32916 46.8814 1.52857 47.3181 1.9303C48.2162 2.74895 48.5559 4.13064 48.1688 5.62286C47.355 8.7662 46.5306 11.9061 45.6747 15.0287C45.5831 15.2645 45.5568 15.5349 45.6006 15.7933C45.6443 16.0517 45.7552 16.2821 45.9144 16.4449C48.2425 19.4535 50.5417 22.4967 52.8567 25.5192C53.2702 26.0649 53.5494 26.6591 53.3835 27.4535C53.3258 27.7429 53.2118 28.0076 53.0527 28.2218C52.8936 28.4361 52.6949 28.5924 52.4759 28.6757C52.2568 28.7589 52.0251 28.7661 51.8033 28.6966C51.5815 28.627 51.3773 28.4832 51.2107 28.2791C50.6339 27.6055 50.1072 26.8594 49.562 26.1444C47.5946 23.5641 45.6378 20.963 43.6494 18.4207C43.3849 18.103 43.0438 17.9171 42.6855 17.8957C39.5953 17.8542 36.5051 17.8542 33.4149 17.8957C33.0773 17.913 32.7554 18.0868 32.5063 18.3862C29.5066 22.2722 26.5121 26.1651 23.5518 30.1064C19.2352 35.8645 17.231 42.8144 17.5549 50.8697C17.6446 53.2959 18.0204 55.6893 18.669 57.9646C20.0253 57.5087 21.3026 56.9767 22.6195 56.6589C26.1565 55.7954 29.5513 56.4897 32.7934 58.4966C35.8195 60.3722 38.8508 62.2755 41.8532 64.1753C44.1129 65.6019 45.1137 67.861 44.9689 71.1528C44.9689 71.3428 44.9689 71.5328 44.9689 71.9887C45.7405 71.2392 46.4227 70.6692 47.0231 69.9784C50.4346 66.036 53.8321 62.074 57.2155 58.0924C57.4316 57.8141 57.5902 57.4682 57.6764 57.0873C58.9127 51.8587 58.9026 46.2598 57.6474 41.039C57.6026 40.8455 57.5499 40.6555 57.5078 40.4586C57.2787 39.3948 57.6131 38.4863 58.3532 38.1616C58.5214 38.085 58.6999 38.0552 58.8774 38.0738C59.0548 38.0925 59.2274 38.1593 59.3841 38.2701C59.5409 38.3808 59.6783 38.533 59.7879 38.7171C59.8974 38.9012 59.9765 39.1132 60.0203 39.3395C60.4025 41.0262 60.7199 42.737 60.9711 44.4655C61.368 47.5761 61.3751 50.7509 60.9922 53.8645C61.5189 53.6814 62.014 53.4569 62.5144 53.3498C63.5759 53.1119 64.6676 53.325 65.6302 53.9583C66.5928 54.5915 67.3758 55.6116 67.8652 56.8697C68.3545 58.1279 68.5245 59.5582 68.3503 60.952C68.1761 62.3458 67.6669 63.6301 66.8969 64.6175C63.9243 68.4539 60.9333 72.2674 57.9239 76.0578C55.9013 78.6001 53.9286 81.2391 51.7506 83.5293C48.8219 86.6174 45.3718 88.2616 41.6267 88.7901C41.4552 88.8298 41.2861 88.8863 41.1211 88.9593H3.63066C2.89881 88.7011 2.2318 88.1944 1.69683 87.4904C1.16186 86.7863 0.777847 85.9097 0.583496 84.949V62.3653ZM14.887 85.4913H38.943C44.1287 85.4913 48.5849 83.1355 52.2984 78.3687C55.2481 74.5691 58.2163 70.8247 61.1765 67.0527C62.4433 65.4361 63.7233 63.8437 64.9638 62.196C66.2806 60.4448 65.8276 57.6572 64.1078 56.9249C63.1149 56.5 62.2642 56.8904 61.4952 57.7954C57.3998 62.5967 53.2834 67.3705 49.1828 72.1684C47.8053 73.7815 46.312 75.1424 44.5606 75.968C42.0929 77.1148 39.6199 77.5639 37.0784 76.2582C35.8721 75.6399 34.6106 75.2219 33.3754 74.6899C30.9235 73.6537 28.4689 72.645 26.0196 71.6019C25.7168 71.5009 25.4508 71.2636 25.2679 70.9315C25.0849 70.5994 24.9968 70.1936 25.0188 69.785C25.0398 69.391 25.1632 69.0184 25.3683 68.7293C25.5734 68.4401 25.8479 68.2519 26.146 68.196C26.4744 68.1805 26.8019 68.2498 27.1099 68.3998C31.0946 70.0475 35.0768 71.7193 39.0642 73.3601C40.4258 73.9231 41.6978 73.1494 42.1693 71.5432C42.6407 69.9369 42.1166 68.2582 40.8235 67.443C37.6288 65.4223 34.4473 63.3705 31.2211 61.4396C28.4136 59.7574 25.427 59.2565 22.443 60.3066C20.0727 61.1391 17.784 62.3791 15.448 63.4154C14.9818 63.6192 14.8738 63.9301 14.8765 64.5276C14.8923 70.6347 14.8765 76.7418 14.8765 82.835L14.887 85.4913ZM12.2533 73.6537C12.2533 70.3514 12.2533 67.0515 12.2533 63.7539C12.2533 62.4137 11.824 61.8644 10.7943 61.861C8.76283 61.861 6.73226 61.861 4.70257 61.861C3.67544 61.861 3.24614 62.4137 3.24614 63.7539C3.24614 70.3515 3.24614 76.9502 3.24614 83.55C3.24614 84.9317 3.66754 85.4878 4.73945 85.4913H10.6968C11.8583 85.4913 12.256 84.9732 12.256 83.4637C12.2489 80.1822 12.2445 76.9064 12.2428 73.6364L12.2533 73.6537ZM30.7602 5.64013C31.5213 8.49677 32.2271 11.198 32.9777 13.875C33.0539 14.0099 33.1526 14.1201 33.2663 14.1974C33.3799 14.2746 33.5055 14.3167 33.6335 14.3206C36.5911 14.3482 39.5488 14.3206 42.5064 14.3517C42.6767 14.3818 42.8492 14.3241 42.9877 14.1907C43.1262 14.0574 43.2199 13.8587 43.2491 13.6367C43.8733 11.2014 44.5264 8.78002 45.1638 6.35171C45.2112 6.13111 45.2499 5.90743 45.2796 5.68159C43.3518 6.78348 41.7163 6.41042 40.2124 4.59696C39.6386 3.87253 38.875 3.46383 38.0786 3.45484C37.2822 3.44584 36.5133 3.83724 35.9301 4.54861C34.3999 6.3897 32.7539 6.77657 30.7496 5.62286L30.7602 5.64013Z" fill="#50AC97"/>
<path d="M38.1931 35.054C38.2049 36.4295 37.7742 37.1095 37.0831 37.156C36.392 37.2026 35.8997 36.6282 35.8263 35.6533C35.7482 34.7218 35.353 34.2095 34.6927 33.9735C34.3862 33.8631 34.0621 33.8683 33.7577 33.9886C33.4534 34.1089 33.1811 34.3393 32.9721 34.6535C32.8687 34.8047 32.7914 34.9833 32.7454 35.1772C32.6993 35.371 32.6856 35.5756 32.7051 35.7771C32.7247 35.9785 32.777 36.1721 32.8586 36.3447C32.9402 36.5172 33.0491 36.6648 33.178 36.7772C33.5601 37.0884 33.9952 37.2698 34.4442 37.3051C36.2713 37.4448 37.812 39.0656 38.1576 41.3011C38.4913 43.4746 37.5564 45.5921 35.8453 46.6291C35.6592 46.7635 35.5188 46.9854 35.4524 47.2501C35.2678 48.076 34.8252 48.5759 34.217 48.5542C33.6087 48.5325 33.2466 48.0388 33.0644 47.2253C32.9738 46.9391 32.805 46.7076 32.591 46.5764C31.2396 45.7101 30.397 44.3843 30.3118 42.3599C30.2692 41.3787 30.7047 40.6832 31.3627 40.6025C31.5262 40.5765 31.6921 40.5956 31.8498 40.6585C32.0074 40.7215 32.1532 40.8269 32.278 40.9681C32.4028 41.1092 32.5037 41.283 32.5743 41.4783C32.6449 41.6736 32.6837 41.8861 32.6881 42.1022C32.7031 42.4939 32.8159 42.8682 33.0093 43.1673C33.2026 43.4664 33.4657 43.6737 33.7578 43.7571C34.0606 43.8955 34.3882 43.9102 34.6975 43.7994C35.0068 43.6885 35.2832 43.4573 35.4903 43.1361C35.6154 42.9663 35.7074 42.7594 35.7584 42.533C35.8094 42.3065 35.818 42.0672 35.7834 41.8355C35.7487 41.6038 35.6719 41.3864 35.5595 41.202C35.4471 41.0176 35.3023 40.8716 35.1376 40.7764C34.7814 40.5586 34.3945 40.4402 34.0016 40.4286C32.262 40.3075 30.6882 38.6371 30.3592 36.5133C30.016 34.2902 30.9201 32.1664 32.6076 31.1449C32.817 31.009 32.9781 30.772 33.0573 30.4836C33.2348 29.6856 33.6347 29.195 34.2264 29.1826C34.5061 29.1595 34.7823 29.2739 35.0011 29.5036C35.2199 29.7332 35.3656 30.0616 35.4098 30.4246C35.4595 30.881 35.6323 31.0083 35.8973 31.1667C37.289 32.0112 38.0724 33.396 38.1931 35.054Z" fill="#50AC97"/>
<path d="M49.2458 29.4495C49.2489 29.2426 49.2841 29.0387 49.3491 28.8501C49.4142 28.6616 49.5078 28.4923 49.6242 28.3527C49.7406 28.213 49.8774 28.1058 50.0264 28.0377C50.1753 27.9695 50.3333 27.9417 50.4907 27.9561C50.8045 27.9729 51.1004 28.1527 51.3132 28.4558C51.5261 28.7589 51.6384 29.1604 51.6255 29.5722C51.6127 29.9839 51.4756 30.3721 51.2446 30.6513C51.0136 30.9305 50.7075 31.0779 50.3936 31.061C50.2367 31.0579 50.0818 31.0134 49.9383 30.93C49.7948 30.8465 49.6656 30.726 49.5584 30.5756C49.4513 30.4251 49.3683 30.2478 49.3146 30.0543C49.2609 29.8609 49.2375 29.6552 49.2458 29.4495Z" fill="#50AC97"/>
</svg>
