<svg width="271" height="281" viewBox="0 0 271 281" fill="none" xmlns="http://www.w3.org/2000/svg">
<g clip-path="url(#clip0_14_2856)">
<path d="M100.559 3.30599C100.559 3.30599 130.46 -2.75481 157.666 3.30599C174.306 7.01159 209.346 15.7988 217.621 35.7156C225.897 55.6324 186.069 72.6244 205.634 92.8292C214.076 101.546 254.581 113.04 252.303 169.578C250.025 226.116 190.677 260.58 108.201 259.044C25.7238 257.508 -21.8922 182.506 10.0054 145.572C41.903 108.637 55.6374 108.528 41.1798 78.4484C26.7222 48.3684 46.7926 11.914 100.559 3.30599Z" fill="#92E3A9"/>
<path opacity="0.7" d="M100.559 3.30599C100.559 3.30599 130.46 -2.75481 157.666 3.30599C174.306 7.01159 209.346 15.7988 217.621 35.7156C225.897 55.6324 186.069 72.6244 205.634 92.8292C214.076 101.546 254.581 113.04 252.303 169.578C250.025 226.116 190.677 260.58 108.201 259.044C25.7238 257.508 -21.8922 182.506 10.0054 145.572C41.903 108.637 55.6374 108.528 41.1798 78.4484C26.7222 48.3684 46.7926 11.914 100.559 3.30599Z" fill="white"/>
<path d="M180.886 82.5507H77.7498L64.8794 18.5315H193.763L180.886 82.5507Z" fill="#263238"/>
<path d="M74.5498 20.6116L55.561 149.783H203.075L184.086 20.6116" fill="#92E3A9"/>
<mask id="mask0_14_2856" style="mask-type:luminance" maskUnits="userSpaceOnUse" x="55" y="20" width="149" height="130">
<path d="M74.5562 20.6116L55.561 149.783H203.081L184.086 20.6116" fill="white"/>
</mask>
<g mask="url(#mask0_14_2856)">
<path opacity="0.3" d="M203.081 149.783H55.561L63.5034 95.7668H195.139L203.081 149.783Z" fill="black" fill-opacity="0.7"/>
</g>
<path d="M74.5498 20.6116L55.561 149.783H203.075L184.086 20.6116" stroke="#263238" stroke-width="0.64" stroke-linecap="round" stroke-linejoin="round"/>
<path d="M180.073 20.6116H78.5688L60.9688 149.783H197.673L180.073 20.6116Z" fill="#263238"/>
<path d="M170.044 30.4549H114.946L114.306 29.0469C114.134 28.6647 113.856 28.3405 113.504 28.1133C113.152 27.8862 112.741 27.7659 112.322 27.7669H99.8295C99.49 27.7669 99.1644 27.9017 98.9244 28.1418C98.6843 28.3818 98.5495 28.7074 98.5495 29.0469V30.4805H88.5975C88.4179 30.4808 88.2406 30.5209 88.0784 30.5979C87.9162 30.6749 87.773 30.7869 87.6592 30.9258C87.5454 31.0647 87.4638 31.227 87.4202 31.4012C87.3766 31.5754 87.3721 31.7571 87.4071 31.9333L95.5479 72.4133H163.093L171.234 31.9333C171.274 31.7553 171.272 31.5708 171.231 31.3934C171.189 31.216 171.108 31.0502 170.994 30.9082C170.88 30.7663 170.735 30.6518 170.571 30.5734C170.406 30.4949 170.226 30.4544 170.044 30.4549Z" fill="#BFBFBF" stroke="#263238" stroke-width="0.64" stroke-linecap="round" stroke-linejoin="round"/>
<path d="M172.124 33.5588L171.42 37.0532L164.188 73.0148C164.084 73.5548 163.795 74.0418 163.371 74.3921C162.947 74.7425 162.415 74.9343 161.865 74.9348H96.7769C96.2269 74.9343 95.6943 74.7425 95.2704 74.3921C94.8465 74.0418 94.5577 73.5548 94.4537 73.0148L87.0809 36.202L86.5497 33.5588C86.515 33.3842 86.5191 33.2042 86.5616 33.0314C86.6041 32.8586 86.684 32.6972 86.7957 32.5586C86.9074 32.4201 87.0481 32.3077 87.208 32.2295C87.3679 32.1513 87.5429 32.1091 87.7209 32.106H170.921C171.102 32.1044 171.28 32.1432 171.444 32.2193C171.608 32.2955 171.753 32.4072 171.868 32.5463C171.983 32.6855 172.066 32.8485 172.11 33.0237C172.155 33.1988 172.159 33.3816 172.124 33.5588Z" fill="white"/>
<mask id="mask1_14_2856" style="mask-type:luminance" maskUnits="userSpaceOnUse" x="86" y="32" width="87" height="43">
<path d="M172.124 33.5588L171.42 37.0532L164.188 73.0148C164.084 73.5548 163.795 74.0418 163.371 74.3921C162.947 74.7425 162.415 74.9343 161.865 74.9348H96.7769C96.2269 74.9343 95.6943 74.7425 95.2704 74.3921C94.8465 74.0418 94.5577 73.5548 94.4537 73.0148L87.0809 36.202L86.5497 33.5588C86.515 33.3842 86.5191 33.2042 86.5616 33.0314C86.6041 32.8586 86.684 32.6972 86.7957 32.5586C86.9074 32.4201 87.0481 32.3077 87.208 32.2295C87.3679 32.1513 87.5429 32.1091 87.7209 32.106H170.921C171.102 32.1044 171.28 32.1432 171.444 32.2193C171.608 32.2955 171.753 32.4072 171.868 32.5463C171.983 32.6855 172.066 32.8485 172.11 33.0237C172.155 33.1988 172.159 33.3816 172.124 33.5588Z" fill="white"/>
</mask>
<g mask="url(#mask1_14_2856)">
<path opacity="0.4" d="M171.42 37.0531L164.188 73.0147C164.084 73.5547 163.795 74.0417 163.372 74.392C162.948 74.7424 162.415 74.9342 161.865 74.9347H96.7771C96.2271 74.9342 95.6945 74.7424 95.2706 74.392C94.8467 74.0417 94.5579 73.5547 94.4539 73.0147L87.0811 36.2019L171.42 37.0531Z" fill="#92E3A9"/>
</g>
<path d="M172.124 33.5588L171.42 37.0532L164.188 73.0148C164.084 73.5548 163.795 74.0418 163.371 74.3921C162.947 74.7425 162.415 74.9343 161.865 74.9348H96.7769C96.2269 74.9343 95.6943 74.7425 95.2704 74.3921C94.8465 74.0418 94.5577 73.5548 94.4537 73.0148L87.0809 36.202L86.5497 33.5588C86.515 33.3842 86.5191 33.2042 86.5616 33.0314C86.6041 32.8586 86.684 32.6972 86.7957 32.5586C86.9074 32.4201 87.0481 32.3077 87.208 32.2295C87.3679 32.1513 87.5429 32.1091 87.7209 32.106H170.921C171.102 32.1044 171.28 32.1432 171.444 32.2193C171.608 32.2955 171.753 32.4072 171.868 32.5463C171.983 32.6855 172.066 32.8485 172.11 33.0237C172.155 33.1988 172.159 33.3816 172.124 33.5588Z" stroke="#263238" stroke-width="0.64" stroke-linecap="round" stroke-linejoin="round"/>
<path d="M171.023 39.7795H114.601L113.961 38.3779C113.78 37.9932 113.493 37.6683 113.133 37.4415C112.774 37.2146 112.357 37.0955 111.932 37.0979H99.132C98.7925 37.0979 98.4669 37.2328 98.2269 37.4728C97.9868 37.7129 97.852 38.0385 97.852 38.3779V39.8115H87.612C87.4306 39.8092 87.251 39.8473 87.0862 39.923C86.9214 39.9987 86.7755 40.1102 86.659 40.2492C86.5426 40.3883 86.4586 40.5516 86.4131 40.7271C86.3676 40.9027 86.3617 41.0862 86.3959 41.2643L94.7159 81.6227H163.881L172.201 41.2643C172.24 41.0871 172.239 40.9035 172.198 40.7267C172.157 40.5499 172.077 40.3844 171.965 40.2422C171.852 40.1001 171.709 39.9848 171.546 39.9048C171.383 39.8247 171.205 39.782 171.023 39.7795Z" fill="#BFBFBF" stroke="#263238" stroke-width="0.64" stroke-linecap="round" stroke-linejoin="round"/>
<path d="M173.148 42.9925L172.444 46.4101L165.026 82.3332C164.913 82.8791 164.613 83.3686 164.179 83.7187C163.745 84.0687 163.203 84.2576 162.646 84.2533H95.996C95.4384 84.2576 94.8966 84.0687 94.4625 83.7187C94.0285 83.3686 93.7291 82.8791 93.6152 82.3332L86.172 46.2885L85.4936 42.9925C85.4594 42.8143 85.4653 42.6308 85.5108 42.4553C85.5563 42.2797 85.6403 42.1164 85.7567 41.9774C85.8731 41.8383 86.019 41.7268 86.1838 41.6511C86.3487 41.5754 86.5282 41.5373 86.7096 41.5396H171.932C172.113 41.5373 172.293 41.5754 172.458 41.6511C172.623 41.7268 172.769 41.8383 172.885 41.9774C173.001 42.1164 173.085 42.2797 173.131 42.4553C173.176 42.6308 173.182 42.8143 173.148 42.9925Z" fill="white"/>
<mask id="mask2_14_2856" style="mask-type:luminance" maskUnits="userSpaceOnUse" x="85" y="41" width="89" height="44">
<path d="M173.148 42.9925L172.444 46.4101L165.026 82.3332C164.913 82.8791 164.613 83.3686 164.179 83.7187C163.745 84.0687 163.203 84.2576 162.646 84.2533H95.996C95.4384 84.2576 94.8966 84.0687 94.4625 83.7187C94.0285 83.3686 93.7291 82.8791 93.6152 82.3332L86.172 46.2885L85.4936 42.9925C85.4594 42.8143 85.4653 42.6308 85.5108 42.4553C85.5563 42.2797 85.6403 42.1164 85.7567 41.9774C85.8731 41.8383 86.019 41.7268 86.1838 41.6511C86.3487 41.5754 86.5282 41.5373 86.7096 41.5396H171.932C172.113 41.5373 172.293 41.5754 172.458 41.6511C172.623 41.7268 172.769 41.8383 172.885 41.9774C173.001 42.1164 173.085 42.2797 173.131 42.4553C173.176 42.6308 173.182 42.8143 173.148 42.9925Z" fill="white"/>
</mask>
<g mask="url(#mask2_14_2856)">
<path opacity="0.4" d="M172.444 46.4099L165.026 82.3331C164.912 82.879 164.613 83.3685 164.179 83.7186C163.745 84.0686 163.203 84.2575 162.645 84.2531H95.9959C95.4383 84.2575 94.8964 84.0686 94.4624 83.7186C94.0283 83.3685 93.7289 82.879 93.6151 82.3331L86.1719 46.2883L172.444 46.4099Z" fill="#92E3A9"/>
</g>
<path d="M173.148 42.9925L172.444 46.4101L165.026 82.3332C164.913 82.8791 164.613 83.3686 164.179 83.7187C163.745 84.0687 163.203 84.2576 162.646 84.2533H95.996C95.4384 84.2576 94.8966 84.0687 94.4625 83.7187C94.0285 83.3686 93.7291 82.8791 93.6152 82.3332L86.172 46.2885L85.4936 42.9925C85.4594 42.8143 85.4653 42.6308 85.5108 42.4553C85.5563 42.2797 85.6403 42.1164 85.7567 41.9774C85.8731 41.8383 86.019 41.7268 86.1838 41.6511C86.3487 41.5754 86.5282 41.5373 86.7096 41.5396H171.932C172.113 41.5373 172.293 41.5754 172.458 41.6511C172.623 41.7268 172.769 41.8383 172.885 41.9774C173.001 42.1164 173.085 42.2797 173.131 42.4553C173.176 42.6308 173.182 42.8143 173.148 42.9925Z" stroke="#263238" stroke-width="0.64" stroke-linecap="round" stroke-linejoin="round"/>
<path d="M171.996 49.1043H114.261L113.621 47.7027C113.433 47.3144 113.138 46.9879 112.771 46.7612C112.404 46.5345 111.979 46.4171 111.548 46.4227H98.4151C98.2438 46.4176 98.0732 46.4469 97.9134 46.5089C97.7537 46.5709 97.608 46.6644 97.485 46.7837C97.3621 46.9031 97.2643 47.046 97.1976 47.2038C97.1309 47.3617 97.0966 47.5313 97.0967 47.7027V49.1299H86.6455C86.4624 49.1241 86.2804 49.1593 86.1128 49.2329C85.9451 49.3066 85.796 49.4167 85.6764 49.5553C85.5567 49.694 85.4696 49.8576 85.4214 50.0343C85.3731 50.2109 85.3649 50.3961 85.3975 50.5763L93.9287 90.8131H164.713L173.244 50.5763C173.281 50.3942 173.276 50.2062 173.23 50.0263C173.183 49.8464 173.097 49.6794 172.977 49.5377C172.857 49.396 172.706 49.2834 172.536 49.2083C172.366 49.1333 172.181 49.0977 171.996 49.1043Z" fill="#BFBFBF" stroke="#263238" stroke-width="0.64" stroke-linecap="round" stroke-linejoin="round"/>
<path d="M172.931 50.9796H85.7114C85.5292 50.9738 85.3481 51.0088 85.1811 51.0821C85.0142 51.1554 84.8658 51.2651 84.7468 51.4031C84.6278 51.5412 84.5411 51.7041 84.4932 51.88C84.4453 52.0559 84.4373 52.2402 84.4698 52.4196L92.7898 91.6452C92.9121 92.1964 93.2209 92.6884 93.664 93.0382C94.1071 93.388 94.6574 93.5742 95.2218 93.5652H163.427C163.991 93.5742 164.541 93.388 164.984 93.0382C165.428 92.6884 165.736 92.1964 165.859 91.6452L174.179 52.4196C174.211 52.2397 174.203 52.0548 174.155 51.8784C174.107 51.702 174.019 51.5388 173.9 51.4006C173.78 51.2624 173.631 51.1528 173.463 51.08C173.295 51.0071 173.113 50.9728 172.931 50.9796Z" fill="white" stroke="#263238" stroke-width="0.64" stroke-linecap="round" stroke-linejoin="round"/>
<path d="M172.975 56.5092H113.916L113.244 55.114C113.046 54.7236 112.743 54.3967 112.368 54.1704C111.994 53.944 111.563 53.8275 111.126 53.834H97.6857C97.5118 53.8244 97.3377 53.8504 97.1742 53.9104C97.0107 53.9705 96.8612 54.0632 96.7347 54.183C96.6083 54.3029 96.5077 54.4472 96.439 54.6073C96.3703 54.7674 96.335 54.9398 96.3353 55.114V56.5412H85.6665C85.4818 56.5319 85.2974 56.5641 85.1269 56.6356C84.9563 56.7071 84.804 56.816 84.6811 56.9542C84.5583 57.0924 84.468 57.2564 84.417 57.4342C84.366 57.6119 84.3556 57.7989 84.3865 57.9812L93.1097 98.1028H165.526L174.249 57.9812C174.285 57.7971 174.279 57.6072 174.231 57.4258C174.183 57.2445 174.094 57.0765 173.971 56.9346C173.848 56.7928 173.695 56.6807 173.522 56.607C173.35 56.5333 173.163 56.4998 172.975 56.5092Z" fill="#BFBFBF" stroke="#263238" stroke-width="0.64" stroke-linecap="round" stroke-linejoin="round"/>
<path d="M173.929 58.4933H84.7129C84.5282 58.484 84.3438 58.5162 84.1732 58.5877C84.0027 58.6592 83.8504 58.7681 83.7275 58.9063C83.6047 59.0445 83.5144 59.2085 83.4634 59.3863C83.4124 59.564 83.402 59.7509 83.4329 59.9333L91.9385 99.0437C92.0779 99.5935 92.4004 100.079 92.853 100.422C93.3055 100.764 93.8611 100.941 94.4281 100.925H164.188C164.755 100.941 165.311 100.764 165.763 100.422C166.216 100.079 166.538 99.5935 166.678 99.0437L175.183 59.9333C175.214 59.7532 175.204 59.5685 175.154 59.3927C175.105 59.2169 175.017 59.0543 174.897 58.9166C174.777 58.7789 174.628 58.6695 174.46 58.5963C174.293 58.5231 174.111 58.4879 173.929 58.4933Z" fill="white" stroke="#263238" stroke-width="0.64" stroke-linecap="round" stroke-linejoin="round"/>
<path d="M173.948 63.9139H113.57L112.886 62.5187C112.678 62.1253 112.365 61.7972 111.982 61.5712C111.599 61.3452 111.161 61.2301 110.716 61.2387H97.0007C96.6537 61.2213 96.314 61.3422 96.056 61.575C95.7981 61.8077 95.643 62.1333 95.6248 62.4803V63.9011H84.6936C84.5117 63.8998 84.3317 63.9372 84.1655 64.011C83.9992 64.0847 83.8506 64.1929 83.7295 64.3286C83.6084 64.4642 83.5176 64.6241 83.4631 64.7976C83.4086 64.9711 83.3917 65.1542 83.4136 65.3347L92.3352 105.335H166.332L175.254 65.3347C175.274 65.153 175.255 64.9691 175.198 64.7953C175.141 64.6216 175.048 64.462 174.924 64.3274C174.8 64.1928 174.649 64.0862 174.481 64.0149C174.312 63.9436 174.131 63.9091 173.948 63.9139Z" fill="#BFBFBF" stroke="#263238" stroke-width="0.64" stroke-linecap="round" stroke-linejoin="round"/>
<path d="M174.921 66.0131H83.7209C83.5372 66.0052 83.354 66.0382 83.1846 66.1097C83.0151 66.1812 82.8637 66.2895 82.7412 66.4266C82.6188 66.5638 82.5283 66.7265 82.4763 66.9029C82.4244 67.0793 82.4123 67.265 82.4409 67.4467L84.5785 77.0467L91.1321 106.442C91.2845 106.998 91.6203 107.486 92.0849 107.828C92.5495 108.169 93.1158 108.344 93.6921 108.324H164.988C165.564 108.344 166.131 108.169 166.595 107.828C167.06 107.486 167.396 106.998 167.548 106.442L170.748 92.0227L176.227 67.4531C176.257 67.2687 176.245 67.0799 176.192 66.9007C176.139 66.7215 176.047 66.5565 175.921 66.4181C175.796 66.2797 175.64 66.1714 175.467 66.1013C175.294 66.0311 175.107 66.001 174.921 66.0131Z" fill="white"/>
<mask id="mask3_14_2856" style="mask-type:luminance" maskUnits="userSpaceOnUse" x="82" y="66" width="95" height="43">
<path d="M174.921 66.0131H83.7209C83.5372 66.0052 83.354 66.0382 83.1846 66.1097C83.0151 66.1812 82.8637 66.2895 82.7412 66.4266C82.6188 66.5638 82.5283 66.7265 82.4763 66.9029C82.4244 67.0793 82.4123 67.265 82.4409 67.4467L84.5785 77.0467L91.1321 106.442C91.2845 106.998 91.6203 107.486 92.0849 107.828C92.5495 108.169 93.1158 108.344 93.6921 108.324H164.988C165.564 108.344 166.131 108.169 166.595 107.828C167.06 107.486 167.396 106.998 167.548 106.442L170.748 92.0227L176.227 67.4531C176.257 67.2687 176.245 67.0799 176.192 66.9007C176.139 66.7215 176.047 66.5565 175.921 66.4181C175.796 66.2797 175.64 66.1714 175.467 66.1013C175.294 66.0311 175.107 66.001 174.921 66.0131Z" fill="white"/>
</mask>
<g mask="url(#mask3_14_2856)">
<path opacity="0.4" d="M84.5527 77.0403L91.1063 106.435C91.2588 106.992 91.5945 107.48 92.0591 107.821C92.5238 108.163 93.0901 108.338 93.6663 108.317H164.988C165.564 108.338 166.131 108.163 166.595 107.821C167.06 107.48 167.395 106.992 167.548 106.435L170.748 92.0163L84.5527 77.0403Z" fill="#92E3A9"/>
</g>
<path d="M174.921 66.0131H83.7209C83.5372 66.0052 83.354 66.0382 83.1846 66.1097C83.0151 66.1812 82.8637 66.2895 82.7412 66.4266C82.6188 66.5638 82.5283 66.7265 82.4763 66.9029C82.4244 67.0793 82.4123 67.265 82.4409 67.4467L84.5785 77.0467L91.1321 106.442C91.2845 106.998 91.6203 107.486 92.0849 107.828C92.5495 108.169 93.1158 108.344 93.6921 108.324H164.988C165.564 108.344 166.131 108.169 166.595 107.828C167.06 107.486 167.396 106.998 167.548 106.442L170.748 92.0227L176.227 67.4531C176.257 67.2687 176.245 67.0799 176.192 66.9007C176.139 66.7215 176.047 66.5565 175.921 66.4181C175.796 66.2797 175.64 66.1714 175.467 66.1013C175.294 66.0311 175.107 66.001 174.921 66.0131Z" stroke="#263238" stroke-width="0.64" stroke-linecap="round" stroke-linejoin="round"/>
<path d="M111.254 109.706L110.447 108.362C110.183 107.974 109.82 107.663 109.396 107.46C108.972 107.258 108.502 107.172 108.034 107.21L93.1351 107.895C92.7762 107.881 92.4256 108.006 92.1571 108.245C91.8886 108.483 91.723 108.817 91.6951 109.175L91.7591 110.583L79.8807 111.127C78.9719 111.165 78.3191 111.882 78.5367 112.605L90.0567 151.645L170.466 147.946L178.345 108.029C178.486 107.287 177.775 106.634 176.86 106.679L111.254 109.706Z" fill="#BFBFBF" stroke="#263238" stroke-width="0.64" stroke-linecap="round" stroke-linejoin="round"/>
<path d="M179.497 110.525L178.601 115.12L171.836 149.444C171.669 150.023 171.316 150.531 170.831 150.889C170.346 151.248 169.757 151.437 169.154 151.428L91.6696 154.986C91.0701 155.051 90.4657 154.918 89.9498 154.605C89.4339 154.293 89.0352 153.819 88.8152 153.258L78.1208 116.97L77.6024 115.21C77.3912 114.487 78.044 113.77 78.9528 113.732L178.031 109.175C178.934 109.136 179.644 109.789 179.497 110.525Z" fill="white"/>
<mask id="mask4_14_2856" style="mask-type:luminance" maskUnits="userSpaceOnUse" x="77" y="109" width="103" height="47">
<path d="M179.497 110.525L178.601 115.12L171.836 149.444C171.669 150.023 171.316 150.531 170.831 150.889C170.346 151.248 169.757 151.437 169.154 151.428L91.6696 154.986C91.0701 155.051 90.4657 154.918 89.9498 154.605C89.4339 154.293 89.0352 153.819 88.8152 153.258L78.1208 116.97L77.6024 115.21C77.3912 114.487 78.044 113.77 78.9528 113.732L178.031 109.175C178.934 109.136 179.644 109.789 179.497 110.525Z" fill="white"/>
</mask>
<g mask="url(#mask4_14_2856)">
<path opacity="0.4" d="M178.601 115.12L171.836 149.444C171.669 150.023 171.315 150.531 170.831 150.889C170.346 151.248 169.757 151.437 169.154 151.428L91.6694 154.986C91.0699 155.051 90.4655 154.918 89.9496 154.605C89.4337 154.293 89.035 153.819 88.815 153.258L78.1206 116.97L178.601 115.12Z" fill="#92E3A9"/>
</g>
<path d="M179.497 110.525L178.601 115.12L171.836 149.444C171.669 150.023 171.316 150.531 170.831 150.889C170.346 151.248 169.757 151.437 169.154 151.428L91.6696 154.986C91.0701 155.051 90.4657 154.918 89.9498 154.605C89.4339 154.293 89.0352 153.819 88.8152 153.258L78.1208 116.97L77.6024 115.21C77.3912 114.487 78.044 113.77 78.9528 113.732L178.031 109.175C178.934 109.136 179.644 109.789 179.497 110.525Z" stroke="#263238" stroke-width="0.64" stroke-linecap="round" stroke-linejoin="round"/>
<path d="M112.962 118.615L112.278 117.207C112.042 116.792 111.701 116.446 111.291 116.203C110.88 115.961 110.412 115.83 109.935 115.824L94.7607 115.031C94.3972 114.975 94.0264 115.064 93.7274 115.278C93.4284 115.492 93.225 115.814 93.1607 116.176L93.0903 117.578L80.9815 116.938C80.0535 116.887 79.3239 117.533 79.4647 118.269L87.2919 158.135L169.295 162.423L181.231 123.594C181.449 122.871 180.79 122.154 179.862 122.109L112.962 118.615Z" fill="#BFBFBF" stroke="#263238" stroke-width="0.64" stroke-linecap="round" stroke-linejoin="round"/>
<path d="M182.159 126.301L180.239 132.625L170.549 164.151C170.316 164.715 169.904 165.187 169.377 165.494C168.85 165.802 168.237 165.928 167.631 165.853L88.6103 161.725C88.0005 161.734 87.4044 161.544 86.9124 161.184C86.4203 160.824 86.0593 160.313 85.8839 159.729L79.1959 125.636L78.2615 120.868C78.1143 120.132 78.8503 119.485 79.7783 119.537L180.789 124.817C181.717 124.868 182.383 125.585 182.159 126.301Z" fill="white"/>
<mask id="mask5_14_2856" style="mask-type:luminance" maskUnits="userSpaceOnUse" x="78" y="119" width="105" height="47">
<path d="M182.159 126.301L180.239 132.625L170.549 164.151C170.316 164.715 169.904 165.187 169.377 165.494C168.85 165.802 168.237 165.928 167.631 165.853L88.6103 161.725C88.0005 161.734 87.4044 161.544 86.9124 161.184C86.4203 160.824 86.0593 160.313 85.8839 159.729L79.1959 125.636L78.2615 120.868C78.1143 120.132 78.8503 119.485 79.7783 119.537L180.789 124.817C181.717 124.868 182.383 125.585 182.159 126.301Z" fill="white"/>
</mask>
<g mask="url(#mask5_14_2856)">
<path opacity="0.4" d="M180.214 132.625L170.524 164.151C170.291 164.715 169.879 165.187 169.352 165.494C168.825 165.802 168.211 165.928 167.606 165.853L88.5848 161.725C87.975 161.734 87.3789 161.544 86.8869 161.184C86.3949 160.824 86.0338 160.313 85.8584 159.729L79.1704 125.636L180.214 132.625Z" fill="#92E3A9"/>
</g>
<path d="M182.159 126.301L180.239 132.625L170.549 164.151C170.316 164.715 169.904 165.187 169.377 165.494C168.85 165.802 168.237 165.928 167.631 165.853L88.6103 161.725C88.0005 161.734 87.4044 161.544 86.9124 161.184C86.4203 160.824 86.0593 160.313 85.8839 159.729L79.1959 125.636L78.2615 120.868C78.1143 120.132 78.8503 119.485 79.7783 119.537L180.789 124.817C181.717 124.868 182.383 125.585 182.159 126.301Z" stroke="#263238" stroke-width="0.64" stroke-linecap="round" stroke-linejoin="round"/>
<path d="M111.503 128.823L110.761 127.453C110.498 127.046 110.134 126.713 109.704 126.489C109.275 126.265 108.794 126.156 108.31 126.173H92.7639C92.3957 126.133 92.0263 126.238 91.7346 126.467C91.4429 126.695 91.2519 127.028 91.2023 127.396V128.791H78.8375C77.8903 128.791 77.1799 129.469 77.3655 130.199L87.4519 169.476H171.19L181.276 130.199C181.462 129.469 180.751 128.791 179.804 128.791L111.503 128.823Z" fill="#BFBFBF" stroke="#263238" stroke-width="0.64" stroke-linecap="round" stroke-linejoin="round"/>
<path d="M169.641 173.13H89.0009C87.6057 173.13 86.3961 172.356 86.1209 171.287L76.2649 132.996C76.0729 132.266 76.7833 131.588 77.7369 131.588H180.905C181.858 131.588 182.569 132.266 182.377 132.996L172.546 171.287C172.271 172.356 171.062 173.13 169.641 173.13Z" fill="white" stroke="#263238" stroke-width="0.64" stroke-linecap="round" stroke-linejoin="round"/>
<path d="M111.157 138.148L110.37 136.785C110.094 136.381 109.719 136.054 109.281 135.836C108.843 135.617 108.357 135.514 107.868 135.537H92.0598C91.6873 135.493 91.3123 135.596 91.0147 135.824C90.7171 136.052 90.5203 136.388 90.4662 136.759V138.148H77.8646C76.8918 138.148 76.1686 138.826 76.3606 139.556L86.6454 178.711H171.996L182.281 139.537C182.473 138.807 181.749 138.129 180.777 138.129L111.157 138.148Z" fill="#BFBFBF" stroke="#263238" stroke-width="0.64" stroke-linecap="round" stroke-linejoin="round"/>
<path d="M170.447 182.416H88.1943C86.7735 182.416 85.5447 181.642 85.2631 180.573L75.2343 142.404C75.0487 141.674 75.7719 140.996 76.7383 140.996H181.903C182.869 140.996 183.593 141.674 183.407 142.404L173.378 180.573C173.097 181.668 171.868 182.416 170.447 182.416Z" fill="white" stroke="#263238" stroke-width="0.64" stroke-linecap="round" stroke-linejoin="round"/>
<path d="M187.158 226.551H71.4839L46.1655 154.749H212.476L187.158 226.551Z" fill="#92E3A9"/>
<mask id="mask6_14_2856" style="mask-type:luminance" maskUnits="userSpaceOnUse" x="46" y="154" width="167" height="73">
<path d="M187.158 226.557H71.4839L46.1655 154.756H212.476L187.158 226.557Z" fill="white"/>
</mask>
<g mask="url(#mask6_14_2856)">
<path opacity="0.3" d="M187.158 226.551H71.4839L46.1655 154.749H212.476L187.158 226.551Z" fill="black" fill-opacity="0.7"/>
</g>
<path d="M187.158 226.551H71.4839L46.1655 154.749H212.476L187.158 226.551Z" stroke="#263238" stroke-width="0.64" stroke-linecap="round" stroke-linejoin="round"/>
<path d="M210.274 145.303H48.3671L46.1655 154.749H212.476L210.274 145.303Z" fill="#92E3A9" stroke="#263238" stroke-width="0.64" stroke-linecap="round" stroke-linejoin="round"/>
<path d="M89.1735 187.645L87.5479 202.973H171.087L169.468 187.645H165.781L166.831 198.589H91.8038L92.8599 187.645H89.1735Z" fill="#BFBFBF" stroke="#263238" stroke-width="0.64" stroke-linecap="round" stroke-linejoin="round"/>
<path d="M170.46 206.5H88.1815L87.5479 202.973H171.087L170.46 206.5Z" fill="#757575" stroke="#263238" stroke-width="0.64" stroke-linecap="round" stroke-linejoin="round"/>
<path d="M165.782 187.645L165.263 191.709L165.782 198.589H166.831L165.782 187.645Z" fill="#757575" stroke="#263238" stroke-width="0.64" stroke-linecap="round" stroke-linejoin="round"/>
<path d="M92.8602 187.645L93.3722 191.709L92.8602 198.589H91.8042L92.8602 187.645Z" fill="#757575" stroke="#263238" stroke-width="0.64" stroke-linecap="round" stroke-linejoin="round"/>
<path d="M156.233 179.959H102.402L99.8359 166.948H158.806L156.233 179.959Z" fill="white" stroke="#263238" stroke-width="0.64" stroke-linecap="round" stroke-linejoin="round"/>
<path d="M132.924 54.1155L132.399 52.6115C132.229 52.1831 131.945 51.8097 131.577 51.532C131.209 51.2544 130.771 51.0832 130.313 51.0371L116.079 49.2003C115.725 49.1326 115.359 49.2077 115.061 49.4092C114.762 49.6107 114.555 49.9221 114.486 50.2755L114.3 51.7155L102.959 50.2563C102.771 50.2168 102.576 50.2203 102.389 50.2667C102.202 50.313 102.027 50.401 101.879 50.5241C101.731 50.6471 101.612 50.8021 101.532 50.9773C101.452 51.1526 101.413 51.3437 101.417 51.5363L105.455 93.2259L182.255 103.127L196.732 63.8243C196.784 63.6395 196.794 63.4452 196.761 63.256C196.728 63.0669 196.652 62.8876 196.541 62.7314C196.429 62.5753 196.283 62.4463 196.115 62.3541C195.946 62.2619 195.759 62.2088 195.567 62.1987L132.924 54.1155Z" fill="white"/>
<mask id="mask7_14_2856" style="mask-type:luminance" maskUnits="userSpaceOnUse" x="101" y="49" width="96" height="55">
<path d="M132.924 54.1155L132.399 52.6115C132.229 52.1831 131.945 51.8097 131.577 51.532C131.209 51.2544 130.771 51.0832 130.313 51.0371L116.079 49.2003C115.725 49.1326 115.359 49.2077 115.061 49.4092C114.762 49.6107 114.555 49.9221 114.486 50.2755L114.3 51.7155L102.959 50.2563C102.771 50.2168 102.576 50.2203 102.389 50.2667C102.202 50.313 102.027 50.401 101.879 50.5241C101.731 50.6471 101.612 50.8021 101.532 50.9773C101.452 51.1526 101.413 51.3437 101.417 51.5363L105.455 93.2259L182.255 103.127L196.732 63.8243C196.784 63.6395 196.794 63.4452 196.761 63.256C196.728 63.0669 196.652 62.8876 196.541 62.7314C196.429 62.5753 196.283 62.4463 196.115 62.3541C195.946 62.2619 195.759 62.2088 195.567 62.1987L132.924 54.1155Z" fill="white"/>
</mask>
<g mask="url(#mask7_14_2856)">
<path opacity="0.4" d="M132.924 54.1155L132.399 52.6115C132.229 52.1831 131.945 51.8097 131.577 51.532C131.209 51.2544 130.771 51.0832 130.313 51.0371L116.079 49.2003C115.725 49.1326 115.359 49.2077 115.061 49.4092C114.762 49.6107 114.555 49.9221 114.486 50.2755L114.3 51.7155L102.959 50.2563C102.771 50.2168 102.576 50.2203 102.389 50.2667C102.202 50.313 102.027 50.401 101.879 50.5241C101.731 50.6471 101.612 50.8021 101.532 50.9773C101.452 51.1526 101.413 51.3437 101.417 51.5363L105.455 93.2259L182.255 103.127L196.732 63.8243C196.784 63.6395 196.794 63.4452 196.761 63.256C196.728 63.0669 196.652 62.8876 196.541 62.7314C196.429 62.5753 196.283 62.4463 196.115 62.3541C195.946 62.2619 195.759 62.2088 195.567 62.1987L132.924 54.1155Z" fill="#92E3A9"/>
</g>
<path d="M132.924 54.1155L132.399 52.6115C132.229 52.1831 131.945 51.8097 131.577 51.532C131.209 51.2544 130.771 51.0832 130.313 51.0371L116.079 49.2003C115.725 49.1326 115.359 49.2077 115.061 49.4092C114.762 49.6107 114.555 49.9221 114.486 50.2755L114.3 51.7155L102.959 50.2563C102.771 50.2168 102.576 50.2203 102.389 50.2667C102.202 50.313 102.027 50.401 101.879 50.5241C101.731 50.6471 101.612 50.8021 101.532 50.9773C101.452 51.1526 101.413 51.3437 101.417 51.5363L105.455 93.2259L182.255 103.127L196.732 63.8243C196.784 63.6395 196.794 63.4452 196.761 63.256C196.728 63.0669 196.652 62.8876 196.541 62.7314C196.429 62.5753 196.283 62.4463 196.115 62.3541C195.946 62.2619 195.759 62.2088 195.567 62.1987L132.924 54.1155Z" stroke="#263238" stroke-width="0.64" stroke-linecap="round" stroke-linejoin="round"/>
<path d="M197.468 66.186L184.361 101.776L183.349 104.516C183.113 105.062 182.7 105.512 182.176 105.796C181.653 106.079 181.05 106.178 180.463 106.077L106.447 96.5284C105.854 96.4763 105.296 96.2266 104.862 95.8192C104.428 95.4119 104.143 94.8705 104.053 94.282L100.117 53.642C100.113 53.4493 100.153 53.2582 100.233 53.083C100.313 52.9077 100.431 52.7528 100.58 52.6297C100.728 52.5067 100.902 52.4187 101.089 52.3723C101.276 52.326 101.471 52.3224 101.66 52.362L164.649 60.4836L196.303 64.5604C196.495 64.5704 196.682 64.6236 196.85 64.7158C197.019 64.808 197.165 64.9369 197.276 65.0931C197.388 65.2492 197.464 65.4285 197.497 65.6177C197.53 65.8069 197.52 66.0011 197.468 66.186Z" fill="white"/>
<mask id="mask8_14_2856" style="mask-type:luminance" maskUnits="userSpaceOnUse" x="100" y="52" width="98" height="55">
<path d="M197.468 66.186L184.361 101.776L183.349 104.516C183.113 105.062 182.7 105.512 182.176 105.796C181.653 106.079 181.05 106.178 180.463 106.077L106.447 96.5284C105.854 96.4763 105.296 96.2266 104.862 95.8192C104.428 95.4119 104.143 94.8705 104.053 94.282L100.117 53.642C100.113 53.4493 100.153 53.2582 100.233 53.083C100.313 52.9077 100.431 52.7528 100.58 52.6297C100.728 52.5067 100.902 52.4187 101.089 52.3723C101.276 52.326 101.471 52.3224 101.66 52.362L164.649 60.4836L196.303 64.5604C196.495 64.5704 196.682 64.6236 196.85 64.7158C197.019 64.808 197.165 64.9369 197.276 65.0931C197.388 65.2492 197.464 65.4285 197.497 65.6177C197.53 65.8069 197.52 66.0011 197.468 66.186Z" fill="white"/>
</mask>
<g mask="url(#mask8_14_2856)">
<path opacity="0.3" d="M197.468 66.1859L184.361 101.776C175.074 99.5811 174.722 93.7955 173.167 90.8003C171.452 87.4979 160.578 85.7443 157.538 85.2131C154.498 84.6819 152.649 81.6035 152.649 81.6035C149.909 73.9235 164.207 67.2035 164.207 67.2035C163.925 66.1475 164.341 62.6851 164.642 60.4963L196.297 64.5731C196.487 64.5827 196.674 64.635 196.842 64.7261C197.01 64.8171 197.156 64.9447 197.268 65.0994C197.38 65.2541 197.456 65.432 197.491 65.62C197.526 65.808 197.518 66.0014 197.468 66.1859Z" fill="black" fill-opacity="0.7"/>
</g>
<path d="M197.468 66.186L184.361 101.776L183.349 104.516C183.113 105.062 182.7 105.512 182.176 105.796C181.653 106.079 181.05 106.178 180.463 106.077L106.447 96.5284C105.854 96.4763 105.296 96.2266 104.862 95.8192C104.428 95.4119 104.143 94.8705 104.053 94.282L100.117 53.642C100.113 53.4493 100.153 53.2582 100.233 53.083C100.313 52.9077 100.431 52.7528 100.58 52.6297C100.728 52.5067 100.902 52.4187 101.089 52.3723C101.276 52.326 101.471 52.3224 101.66 52.362L164.649 60.4836L196.303 64.5604C196.495 64.5704 196.682 64.6236 196.85 64.7158C197.019 64.808 197.165 64.9369 197.276 65.0931C197.388 65.2492 197.464 65.4285 197.497 65.6177C197.53 65.8069 197.52 66.0011 197.468 66.186Z" stroke="#263238" stroke-width="0.64" stroke-linecap="round" stroke-linejoin="round"/>
<path d="M114.038 64.5923L115.049 89.7379L124.162 90.9219L125.231 65.8531L114.038 64.5923Z" fill="#92E3A9" stroke="#263238" stroke-width="0.64" stroke-linecap="round" stroke-linejoin="round"/>
<path d="M119.599 87.8948C119.715 87.45 119.736 86.9857 119.659 86.5324C119.583 86.0792 119.412 85.647 119.158 85.2644C118.64 84.5044 118.017 83.8214 117.308 83.2356C118.366 83.842 119.534 84.2294 120.745 84.3748C120.745 83.0628 119.465 82.154 118.371 81.4628C118.621 81.3655 118.89 81.3254 119.158 81.3453C119.426 81.3652 119.686 81.4447 119.919 81.578C119.935 81.3746 119.902 81.1702 119.823 80.9821C119.744 80.7939 119.621 80.6274 119.465 80.4964C119.606 80.618 119.823 80.426 119.817 80.2468C119.783 80.067 119.706 79.898 119.593 79.754C119.421 79.3664 119.353 78.9408 119.395 78.5188C119.395 77.0148 119.439 75.5044 119.459 74.0004C119.48 74.138 119.541 74.2663 119.634 74.3697C119.727 74.4731 119.849 74.5472 119.983 74.5828C119.983 73.9876 119.913 73.3924 119.855 72.7972C119.715 71.2932 119.574 69.7828 119.427 68.2788" stroke="#263238" stroke-width="0.64" stroke-linecap="round" stroke-linejoin="round"/>
<path d="M264.361 146.372C264.361 146.372 212.713 100.164 209.423 97.2517C206.134 94.3397 203.727 94.4677 201.954 92.6949C200.182 90.9221 199.292 89.6613 192.079 89.7829C184.866 89.9045 175.241 85.9877 173.09 84.5925C170.94 83.1973 167.9 84.2149 165.871 83.4277C163.842 82.6405 158.658 83.3317 155.49 83.4277C152.322 83.5237 152.073 80.2917 153.34 76.6181C154.607 72.9445 164.22 70.6725 165.5 71.4277C166.78 72.1829 171.83 70.0389 171.83 70.0389C171.068 67.3765 171.324 60.9189 171.324 60.9189C171.324 60.9189 166.006 58.6405 163.983 57.8853C162.425 57.4153 160.792 57.2438 159.17 57.3797C159.17 57.3797 159.81 54.4741 160.815 53.3925C161.82 52.3109 166.639 51.2997 171.324 48.0101C176.009 44.7205 178.921 43.9589 179.644 44.2085C180.367 44.4581 185.596 45.9813 186.991 45.9813C188.386 45.9813 190.409 44.7013 192.431 45.0981C194.454 45.4949 198.127 48.6437 199.772 49.0213C201.417 49.3989 201.922 49.7445 204.079 49.7445C205.026 49.7445 208.892 52.5669 208.892 52.5669C210.51 52.876 212.084 53.3855 213.577 54.0837C215.977 55.2229 218.511 60.6693 219.65 62.4421C220.79 64.2149 220.93 68.5157 220.93 68.5157C220.93 68.5157 223.97 70.1605 225.11 72.4389C226.249 74.7173 268.201 97.2517 268.201 97.2517C268.201 97.2517 274.812 123.165 264.361 146.372Z" fill="white"/>
<path opacity="0.4" d="M227.587 113.456C218.332 105.175 210.652 98.3141 209.449 97.2517C206.153 94.3397 203.753 94.4677 201.98 92.6949C200.207 90.9221 199.318 89.6613 192.105 89.7829C184.892 89.9045 175.267 85.9877 173.116 84.5925C170.966 83.1973 167.926 84.2149 165.897 83.4277C163.868 82.6405 158.684 83.3317 155.516 83.4277C152.348 83.5237 152.099 80.2917 153.366 76.6181C154.633 72.9445 164.246 70.6725 165.526 71.4277C166.806 72.1829 171.855 70.0389 171.855 70.0389C171.094 67.3765 171.35 60.9189 171.35 60.9189C171.35 60.9189 166.031 58.6405 164.009 57.8853C162.451 57.4153 160.818 57.2438 159.196 57.3797C159.196 57.3797 159.836 54.4741 160.841 53.3925C161.846 52.3109 166.665 51.2997 171.35 48.0101C176.035 44.7205 178.947 43.9589 179.67 44.2085C180.393 44.4581 185.622 45.9813 187.017 45.9813C188.073 45.9813 189.5 45.2517 191.017 45.0661C189.788 45.7509 188.937 47.0565 189.167 47.7541C189.532 48.8549 190.563 51.6581 190.62 51.8373C190.345 51.5685 183.708 45.0149 179.42 45.3541C175.715 45.6421 171.951 51.8821 172.585 56.4645C173.219 61.0469 171.683 61.0469 172.515 64.4645C173.347 67.8821 174.102 72.6949 172.835 74.5957C171.567 76.4965 169.039 73.1173 169.039 73.1173C168.09 73.6382 167.295 74.3998 166.733 75.3255C166.171 76.2511 165.863 77.3084 165.839 78.3909C165.839 82.0645 169.679 82.3141 171.945 82.6981C174.211 83.0821 182.569 87.6581 188.278 87.9013L193.987 88.1381C193.987 88.1381 190.691 83.6581 192.067 83.4277C193.443 83.1973 197.635 83.6069 200.387 87.9077C203.139 92.2085 205.251 93.1621 210.351 95.2741C213.366 96.4837 221.315 105.066 227.587 113.456Z" fill="#92E3A9"/>
<path opacity="0.4" d="M252.879 88.9123C252.105 88.5475 227.279 76.8483 226.031 75.1011C224.783 73.3539 223.247 72.9251 221.852 71.1651C220.457 69.4051 215.778 68.2659 215.145 65.8595C214.511 63.4531 213.749 56.1507 212.585 55.2483C211.627 54.5458 210.612 53.9249 209.551 53.3923L211.433 58.0835C211.433 58.0835 207.145 52.0099 206.127 51.8435C205.11 51.6771 207.228 56.2595 207.042 56.1187C206.857 55.9779 202.21 51.6387 198.319 48.3491C198.781 48.6278 199.278 48.843 199.797 48.9891C201.449 49.3667 201.948 49.7123 204.105 49.7123C205.052 49.7123 208.917 52.5347 208.917 52.5347C210.536 52.8438 212.11 53.3533 213.602 54.0515C216.002 55.1907 218.537 60.6371 219.676 62.4099C220.815 64.1827 220.956 68.4835 220.956 68.4835C220.956 68.4835 223.996 70.1283 225.135 72.4067C225.82 73.7891 240.789 82.2435 252.879 88.9123Z" fill="#92E3A9"/>
<path d="M264.361 146.372C264.361 146.372 212.713 100.164 209.423 97.2517C206.134 94.3397 203.727 94.4677 201.954 92.6949C200.182 90.9221 199.292 89.6613 192.079 89.7829C184.866 89.9045 175.241 85.9877 173.09 84.5925C170.94 83.1973 167.9 84.2149 165.871 83.4277C163.842 82.6405 158.658 83.3317 155.49 83.4277C152.322 83.5237 152.073 80.2917 153.34 76.6181C154.607 72.9445 164.22 70.6725 165.5 71.4277C166.78 72.1829 171.83 70.0389 171.83 70.0389C171.068 67.3765 171.324 60.9189 171.324 60.9189C171.324 60.9189 166.006 58.6405 163.983 57.8853C162.425 57.4153 160.792 57.2438 159.17 57.3797C159.17 57.3797 159.81 54.4741 160.815 53.3925C161.82 52.3109 166.639 51.2997 171.324 48.0101C176.009 44.7205 178.921 43.9589 179.644 44.2085C180.367 44.4581 185.596 45.9813 186.991 45.9813C188.386 45.9813 190.409 44.7013 192.431 45.0981C194.454 45.4949 198.127 48.6437 199.772 49.0213C201.417 49.3989 201.922 49.7445 204.079 49.7445C205.026 49.7445 208.892 52.5669 208.892 52.5669C210.51 52.876 212.084 53.3855 213.577 54.0837C215.977 55.2229 218.511 60.6693 219.65 62.4421C220.79 64.2149 220.93 68.5157 220.93 68.5157C220.93 68.5157 223.97 70.1605 225.11 72.4389C226.249 74.7173 268.201 97.2517 268.201 97.2517" stroke="#263238" stroke-width="0.64" stroke-linecap="round" stroke-linejoin="round"/>
<path d="M171.343 60.9187C171.343 60.9187 171.932 55.9395 171.343 55.2483" stroke="#263238" stroke-width="0.64" stroke-linecap="round" stroke-linejoin="round"/>
<path d="M186.953 48.7268C186.953 48.7268 195.567 56.0164 196.239 56.4644" stroke="#263238" stroke-width="0.64" stroke-linecap="round" stroke-linejoin="round"/>
<path d="M195.042 46.2756C196.226 47.0116 205.775 55.4788 208.898 57.418" stroke="#263238" stroke-width="0.64" stroke-linecap="round" stroke-linejoin="round"/>
<path d="M220.969 68.4963C220.041 67.9523 217.59 66.7683 217.34 65.8403" stroke="#263238" stroke-width="0.64" stroke-linecap="round" stroke-linejoin="round"/>
<path d="M171.849 70.0388C171.849 70.0388 172.354 72.106 171.849 73.1172" stroke="#263238" stroke-width="0.64" stroke-linecap="round" stroke-linejoin="round"/>
<path d="M164.252 76.5796C164.252 76.5796 163.075 79.8692 165.859 82.0644" stroke="#263238" stroke-width="0.64" stroke-linecap="round" stroke-linejoin="round"/>
<path d="M175.734 45.354C174.846 46.2841 174.257 47.4589 174.044 48.7268" stroke="#263238" stroke-width="0.64" stroke-linecap="round" stroke-linejoin="round"/>
<path d="M162.601 55.2483C162.88 56.0106 163.318 56.7051 163.885 57.2864C164.452 57.8677 165.135 58.3225 165.89 58.6211" stroke="#263238" stroke-width="0.64" stroke-linecap="round" stroke-linejoin="round"/>
<path d="M200.457 91.2867C198.811 88.9007 197.002 86.6317 195.042 84.4963" stroke="#263238" stroke-width="0.64" stroke-linecap="round" stroke-linejoin="round"/>
<path d="M23.3945 260.055C23.3945 260.055 64.7385 232.88 67.2665 229.373C68.5641 227.482 70.0952 225.761 71.8233 224.253C71.8233 224.253 73.0073 214.122 76.0473 208.893C79.0873 203.664 80.2649 199.773 81.6153 197.072C82.9657 194.372 89.3785 192.349 91.2153 191.312C93.0521 190.276 96.2841 188.272 98.1401 188.272C99.5574 188.385 100.936 188.788 102.191 189.456C102.191 189.456 108.438 186.256 111.305 188.272C111.305 188.272 118.396 188.612 120.079 188.439C121.763 188.266 124.303 189.456 124.303 189.456C124.303 189.456 128.521 186.423 131.388 187.6C134.255 188.778 135.625 189.284 135.702 190.973C135.779 192.663 134.991 198.397 134.991 198.397H133.583C133.583 198.397 128.86 204.548 128.355 205.776C127.849 207.005 125.155 213.757 125.155 213.757C125.155 213.757 128.694 211.056 130.915 209.034C133.135 207.012 136.995 203.127 141.046 202.116C145.097 201.104 147.964 203.364 147.964 205.776C147.964 205.776 143.241 209.54 142.204 210.724C141.167 211.908 139.363 214.941 137.327 217.124C135.292 219.306 130.601 228.496 126.518 232.88C122.435 237.264 104.758 246.717 100.687 248.068C100.687 248.068 76.0473 265.284 65.2441 279.799C65.2441 279.799 35.8809 279.972 23.3945 260.055Z" fill="white"/>
<path opacity="0.4" d="M103.561 244.356C103.913 244.714 105.353 244.932 107.401 244.996C105.233 246.16 102.997 247.195 100.706 248.093C100.706 248.093 84.5913 259.351 72.7129 271.338C76.8025 264.829 84.6553 256.708 87.5737 255.018C91.6377 252.65 99.4457 245.008 99.4457 245.008C99.4457 245.008 102.39 243.172 103.561 244.356Z" fill="#92E3A9"/>
<path opacity="0.4" d="M130.902 209.079C132.63 207.38 134.483 205.812 136.444 204.388C134.361 206.674 132.666 209.285 131.427 212.119C130.646 216.362 123.324 225.111 123.324 225.111C125.686 217.52 123.657 215.997 124.323 213.802C124.988 211.607 125.417 206.224 125.417 206.224C125.417 206.224 126.697 204.016 128.047 203.511C129.398 203.005 132.943 194.058 133.603 192.848C134.262 191.639 129.231 189.648 127.881 189.501C126.531 189.354 126.025 191.69 123.324 192.848C120.623 194.007 117.231 196.132 115.983 197.373C114.735 198.615 112.566 204.106 112.425 204.445C112.521 204.061 114.05 197.898 114.447 196.669C114.78 195.645 118.025 193.757 119.228 193.085C117.231 194.013 116.111 192.253 114.447 190.653C112.662 188.938 109.999 188.394 107.087 189.284C104.175 190.173 102.223 192.368 102.211 192.202C102.198 192.036 97.8585 191.274 96.4505 191.69C95.0425 192.106 91.7913 193.578 91.7913 193.578C91.7913 193.578 88.8345 191.876 83.9769 196.669C81.9481 198.672 75.1961 213.949 76.2073 212.119C77.2185 210.288 81.6281 204.823 81.9033 204.484C81.6089 205.2 72.6553 225.296 70.8249 226.576C68.9945 227.856 68.4633 232.388 61.8649 236.106C55.6057 239.632 31.4649 254.807 29.0713 256.311C40.5209 248.701 65.3209 232.068 67.2409 229.373C68.5385 227.482 70.0695 225.761 71.7977 224.253C71.7977 224.253 72.9817 214.122 76.0217 208.893C79.0617 203.664 80.2393 199.773 81.5897 197.072C82.9401 194.372 89.3529 192.349 91.1897 191.312C93.0265 190.276 96.2585 188.272 98.1145 188.272C99.5317 188.385 100.911 188.788 102.166 189.456C102.166 189.456 108.412 186.256 111.279 188.272C111.279 188.272 118.371 188.612 120.054 188.439C121.737 188.266 124.278 189.456 124.278 189.456C124.278 189.456 128.495 186.423 131.363 187.6C134.23 188.778 135.599 189.284 135.676 190.973C135.753 192.663 134.966 198.397 134.966 198.397H133.558C133.558 198.397 128.835 204.548 128.329 205.776C127.823 207.005 125.129 213.757 125.129 213.757C125.129 213.757 128.681 211.101 130.902 209.079Z" fill="#92E3A9"/>
<path opacity="0.4" d="M147.951 205.821C147.951 205.821 143.228 209.584 142.191 210.768C141.583 211.479 140.681 212.861 139.631 214.327C140.158 212.616 140.521 210.859 140.713 209.079C141.708 207.627 143.121 206.511 144.764 205.879C145.802 205.573 146.892 205.49 147.964 205.636C147.966 205.698 147.962 205.76 147.951 205.821Z" fill="#92E3A9"/>
<path d="M23.3945 260.055C23.3945 260.055 64.7385 232.88 67.2665 229.373C68.5641 227.482 70.0952 225.761 71.8233 224.253C71.8233 224.253 73.0073 214.122 76.0473 208.893C79.0873 203.664 80.2649 199.773 81.6153 197.072C82.9657 194.372 89.3785 192.349 91.2153 191.312C93.0521 190.276 96.2841 188.272 98.1401 188.272C99.5574 188.385 100.936 188.788 102.191 189.456C102.191 189.456 108.438 186.256 111.305 188.272C111.305 188.272 118.396 188.612 120.079 188.439C121.763 188.266 124.303 189.456 124.303 189.456C124.303 189.456 128.521 186.423 131.388 187.6C134.255 188.778 135.625 189.284 135.702 190.973C135.779 192.663 134.991 198.397 134.991 198.397H133.583C133.583 198.397 128.86 204.548 128.355 205.776C127.849 207.005 125.155 213.757 125.155 213.757C125.155 213.757 128.694 211.056 130.915 209.034C133.135 207.012 136.995 203.127 141.046 202.116C145.097 201.104 147.964 203.364 147.964 205.776C147.964 205.776 143.241 209.54 142.204 210.724C141.167 211.908 139.363 214.941 137.327 217.124C135.292 219.306 130.601 228.496 126.518 232.88C122.435 237.264 104.758 246.717 100.687 248.068C100.687 248.068 76.0473 265.284 65.2441 279.799" stroke="#263238" stroke-width="0.64" stroke-linecap="round" stroke-linejoin="round"/>
<path d="M125.167 213.776C125.167 213.776 126.178 218.845 124.149 223.376" stroke="#263238" stroke-width="0.64" stroke-linecap="round" stroke-linejoin="round"/>
<path d="M118.582 193.38C120.703 192.414 122.649 191.104 124.342 189.501" stroke="#263238" stroke-width="0.64" stroke-linecap="round" stroke-linejoin="round"/>
<path d="M133.603 198.416C134.147 197.3 134.519 196.106 134.703 194.877" stroke="#263238" stroke-width="0.64" stroke-linecap="round" stroke-linejoin="round"/>
<path d="M111.324 188.317C109.271 188.272 107.268 188.952 105.667 190.237" stroke="#263238" stroke-width="0.64" stroke-linecap="round" stroke-linejoin="round"/>
<path d="M102.211 189.501C102.211 189.501 97.1482 191.863 95.3754 191.863C93.6026 191.863 90.729 194.224 90.729 194.903" stroke="#263238" stroke-width="0.64" stroke-linecap="round" stroke-linejoin="round"/>
<path d="M71.8232 224.272C73.3184 221.974 74.5385 219.508 75.4584 216.925" stroke="#263238" stroke-width="0.64" stroke-linecap="round" stroke-linejoin="round"/>
<path d="M119.676 194.903C119.676 194.903 116.476 195.741 115.375 198.442C114.274 201.143 109.212 210.512 109.212 210.512" stroke="#263238" stroke-width="0.64" stroke-linecap="round" stroke-linejoin="round"/>
<path d="M103.561 193.38C102.882 194.986 95.2856 209.079 95.2856 209.079" stroke="#263238" stroke-width="0.64" stroke-linecap="round" stroke-linejoin="round"/>
</g>
<defs>
<clipPath id="clip0_14_2856">
<rect width="270.253" height="279.507" fill="white" transform="translate(0.00878906 0.611572)"/>
</clipPath>
</defs>
</svg>
