<svg width="348" height="324" viewBox="0 0 348 324" fill="none" xmlns="http://www.w3.org/2000/svg">
<g clip-path="url(#clip0_14_3058)">
<path d="M164.075 1.80995C257.775 -6.46554 257.964 46.144 300.198 95.1951C342.431 144.246 351.461 166.477 335.517 223.021C319.572 279.566 265.997 323.885 199.605 298.772C133.214 273.66 95.2197 297.772 53.3642 275.45C11.5086 253.129 -4.06534 210.066 26.599 159.285C57.2633 108.504 48.5053 12.0565 164.075 1.80995Z" fill="#92E3A9"/>
<path opacity="0.7" d="M164.075 1.80995C257.775 -6.46554 257.964 46.144 300.198 95.1951C342.431 144.246 351.461 166.477 335.517 223.021C319.572 279.566 265.997 323.885 199.605 298.772C133.214 273.66 95.2197 297.772 53.3642 275.45C11.5086 253.129 -4.06534 210.066 26.599 159.285C57.2633 108.504 48.5053 12.0565 164.075 1.80995Z" fill="white"/>
<path d="M226.464 24.3235L79.1826 40.6414L101.967 244.48L249.249 228.162L226.464 24.3235Z" fill="white" stroke="#263238" stroke-linecap="round" stroke-linejoin="round"/>
<path d="M226.471 24.3244L79.1895 40.6422L82.342 68.8455L229.624 52.5277L226.471 24.3244Z" fill="#BFBFBF" stroke="#263238" stroke-linecap="round" stroke-linejoin="round"/>
<path d="M185.55 37.3193L121.97 44.361C121.674 44.3757 121.385 44.4502 121.119 44.5799C120.854 44.7096 120.618 44.8919 120.425 45.1156C120.233 45.3393 120.088 45.5997 120 45.8809C119.912 46.1621 119.883 46.4581 119.914 46.751C119.945 47.044 120.035 47.3275 120.18 47.5844C120.324 47.8413 120.52 48.0662 120.755 48.2452C120.99 48.4243 121.259 48.5538 121.546 48.6259C121.833 48.6979 122.131 48.711 122.423 48.6643L186.004 41.6226C186.56 41.5388 187.062 41.2438 187.405 40.7995C187.747 40.3552 187.904 39.796 187.841 39.2394C187.778 38.6827 187.502 38.1718 187.069 37.8138C186.636 37.4558 186.081 37.2786 185.52 37.3193H185.55Z" fill="white"/>
<path d="M170.641 47.9119L138.858 51.4328C138.716 51.4468 138.579 51.4888 138.453 51.5564C138.328 51.6241 138.217 51.7159 138.128 51.8266C138.038 51.9372 137.972 52.0645 137.933 52.201C137.893 52.3375 137.882 52.4804 137.899 52.6214C137.929 52.9066 138.072 53.1681 138.296 53.3486C138.519 53.5291 138.806 53.6139 139.092 53.5844L170.883 50.0636C171.161 50.0217 171.412 49.8742 171.583 49.652C171.754 49.4298 171.833 49.1503 171.801 48.8719C171.77 48.5936 171.632 48.3382 171.415 48.1592C171.199 47.9802 170.921 47.8916 170.641 47.9119Z" fill="white"/>
<path opacity="0.3" d="M194.399 72.3021L111.088 81.5255C110.875 81.5494 110.68 81.6568 110.546 81.824C110.412 81.9912 110.35 82.2045 110.374 82.417C110.398 82.6295 110.506 82.8238 110.674 82.9571C110.842 83.0904 111.056 83.1519 111.27 83.1279L194.558 73.9045C194.771 73.8806 194.966 73.7732 195.1 73.606C195.234 73.4388 195.296 73.2255 195.272 73.013C195.248 72.8005 195.14 72.6062 194.972 72.4729C194.804 72.3396 194.59 72.2781 194.376 72.3021H194.399Z" fill="black"/>
<path opacity="0.3" d="M195.041 78.0573L99.2548 88.665C99.0414 88.6889 98.8463 88.7963 98.7123 88.9635C98.5784 89.1307 98.5167 89.344 98.5407 89.5565C98.5648 89.769 98.6726 89.9633 98.8406 90.0966C99.0085 90.2299 99.2227 90.2914 99.4362 90.2674L195.223 79.6597C195.332 79.6532 195.438 79.6248 195.536 79.5761C195.634 79.5275 195.72 79.4596 195.791 79.3766C195.862 79.2937 195.915 79.1973 195.947 79.0934C195.979 78.9895 195.99 78.8802 195.978 78.772C195.966 78.6628 195.932 78.5572 195.878 78.4614C195.824 78.3657 195.751 78.2819 195.663 78.2151C195.576 78.1483 195.475 78.0999 195.368 78.0728C195.262 78.0456 195.15 78.0404 195.041 78.0573Z" fill="black"/>
<path opacity="0.3" d="M170.686 86.5811L99.8969 94.4202C99.6835 94.4442 99.4883 94.5516 99.3544 94.7187C99.2205 94.8859 99.1588 95.0992 99.1828 95.3117C99.2069 95.5242 99.3147 95.7185 99.4827 95.8518C99.6506 95.9852 99.8648 96.0466 100.078 96.0227L170.86 88.1835C170.969 88.177 171.076 88.1486 171.173 88.0999C171.271 88.0513 171.358 87.9834 171.429 87.9004C171.499 87.8175 171.552 87.7211 171.584 87.6172C171.616 87.5133 171.627 87.4039 171.616 87.2958C171.604 87.1873 171.57 87.0824 171.516 86.9872C171.463 86.8921 171.39 86.8087 171.303 86.742C171.217 86.6753 171.117 86.6267 171.011 86.599C170.905 86.5714 170.795 86.5653 170.686 86.5811Z" fill="black"/>
<path opacity="0.3" d="M215.521 69.2377L207.072 70.1737C205.936 70.2997 205.117 71.319 205.244 72.4504L206.184 80.8621C206.31 81.9935 207.334 82.8087 208.471 82.6828L216.92 81.7467C218.056 81.6208 218.875 80.6015 218.748 79.47L217.808 71.0584C217.682 69.9269 216.658 69.1117 215.521 69.2377Z" stroke="#263238" stroke-linecap="round" stroke-linejoin="round"/>
<path d="M208.575 75.7101L211.348 78.3206L215.013 72.746" stroke="#92E3A9" stroke-width="3" stroke-linecap="round" stroke-linejoin="round"/>
<path opacity="0.3" d="M197.444 99.5661L114.156 108.79C113.943 108.813 113.748 108.921 113.614 109.088C113.48 109.255 113.418 109.469 113.442 109.681C113.466 109.894 113.574 110.088 113.742 110.221C113.91 110.354 114.124 110.416 114.338 110.392L197.625 101.169C197.731 101.157 197.833 101.124 197.926 101.073C198.02 101.022 198.102 100.953 198.168 100.87C198.234 100.787 198.283 100.692 198.313 100.591C198.342 100.489 198.351 100.382 198.339 100.277C198.328 100.172 198.295 100.07 198.244 99.9773C198.192 99.8846 198.123 99.803 198.04 99.7369C197.957 99.6709 197.861 99.6219 197.759 99.5925C197.657 99.5632 197.55 99.5543 197.444 99.5661Z" fill="black"/>
<path opacity="0.3" d="M198.087 105.321L102.3 115.929C102.195 115.941 102.092 115.973 101.999 116.025C101.906 116.076 101.824 116.145 101.758 116.228C101.691 116.31 101.642 116.405 101.613 116.507C101.583 116.609 101.574 116.715 101.586 116.821C101.598 116.926 101.631 117.028 101.682 117.12C101.734 117.213 101.803 117.295 101.886 117.361C101.969 117.427 102.065 117.476 102.167 117.505C102.269 117.534 102.376 117.543 102.482 117.531L198.268 106.924C198.481 106.9 198.677 106.792 198.81 106.625C198.944 106.458 199.006 106.245 198.982 106.032C198.958 105.82 198.85 105.626 198.682 105.492C198.514 105.359 198.3 105.297 198.087 105.321Z" fill="black"/>
<path opacity="0.3" d="M173.732 113.845L102.942 121.684C102.729 121.708 102.534 121.816 102.4 121.983C102.266 122.15 102.204 122.363 102.228 122.576C102.252 122.788 102.36 122.983 102.528 123.116C102.696 123.249 102.91 123.311 103.124 123.287L173.906 115.448C174.015 115.441 174.121 115.413 174.219 115.364C174.317 115.315 174.403 115.247 174.474 115.164C174.545 115.082 174.598 114.985 174.63 114.881C174.662 114.777 174.673 114.668 174.661 114.56C174.649 114.451 174.615 114.346 174.562 114.251C174.508 114.156 174.436 114.073 174.349 114.006C174.262 113.939 174.163 113.891 174.057 113.863C173.951 113.835 173.84 113.829 173.732 113.845Z" fill="black"/>
<path opacity="0.3" d="M218.569 96.5032L210.121 97.4392C208.984 97.5652 208.165 98.5845 208.292 99.7159L209.232 108.128C209.358 109.259 210.382 110.074 211.519 109.948L219.968 109.012C221.104 108.886 221.923 107.867 221.796 106.736L220.856 98.3239C220.73 97.1924 219.706 96.3772 218.569 96.5032Z" stroke="#263238" stroke-linecap="round" stroke-linejoin="round"/>
<path d="M211.62 102.974L214.393 105.577L218.058 100.002" stroke="#92E3A9" stroke-width="3" stroke-linecap="round" stroke-linejoin="round"/>
<path opacity="0.3" d="M200.489 126.83L117.201 136.053C117.002 136.092 116.824 136.204 116.703 136.367C116.582 136.53 116.528 136.733 116.551 136.934C116.574 137.136 116.672 137.321 116.826 137.454C116.981 137.586 117.179 137.655 117.383 137.648L200.671 128.41C200.776 128.398 200.879 128.366 200.972 128.314C201.065 128.263 201.147 128.194 201.213 128.111C201.279 128.029 201.329 127.934 201.358 127.832C201.388 127.73 201.397 127.624 201.385 127.518C201.373 127.413 201.34 127.311 201.289 127.219C201.237 127.126 201.168 127.044 201.085 126.978C201.002 126.912 200.906 126.863 200.804 126.834C200.702 126.805 200.595 126.796 200.489 126.807V126.83Z" fill="black"/>
<path opacity="0.3" d="M201.139 132.585L105.345 143.193C105.239 143.203 105.137 143.235 105.043 143.285C104.95 143.336 104.868 143.404 104.801 143.487C104.735 143.57 104.686 143.665 104.658 143.767C104.629 143.869 104.621 143.976 104.635 144.081C104.646 144.186 104.678 144.288 104.729 144.381C104.78 144.474 104.849 144.556 104.932 144.622C105.015 144.689 105.11 144.738 105.212 144.768C105.314 144.798 105.421 144.807 105.527 144.795L201.313 134.188C201.422 134.18 201.529 134.151 201.627 134.101C201.725 134.052 201.811 133.983 201.882 133.9C201.952 133.816 202.005 133.72 202.037 133.615C202.069 133.511 202.08 133.401 202.069 133.293C202.057 133.184 202.023 133.08 201.969 132.985C201.915 132.89 201.843 132.807 201.756 132.741C201.669 132.675 201.57 132.627 201.464 132.6C201.358 132.573 201.247 132.568 201.139 132.585Z" fill="black"/>
<path opacity="0.3" d="M176.777 141.109L105.988 148.948C105.774 148.972 105.579 149.08 105.445 149.247C105.311 149.414 105.25 149.627 105.274 149.84C105.298 150.052 105.406 150.247 105.573 150.38C105.741 150.513 105.956 150.575 106.169 150.551L176.951 142.704C177.164 142.681 177.36 142.575 177.495 142.408C177.629 142.242 177.692 142.029 177.669 141.816C177.646 141.604 177.539 141.409 177.372 141.275C177.204 141.141 176.991 141.079 176.777 141.102V141.109Z" fill="black"/>
<path opacity="0.3" d="M221.617 123.761L213.168 124.697C212.031 124.823 211.212 125.842 211.339 126.974L212.279 135.386C212.406 136.517 213.429 137.332 214.566 137.206L223.015 136.27C224.151 136.144 224.97 135.125 224.844 133.993L223.903 125.582C223.777 124.45 222.753 123.635 221.617 123.761Z" stroke="#263238" stroke-linecap="round" stroke-linejoin="round"/>
<path d="M214.665 130.23L217.439 132.841L221.103 127.266" stroke="#92E3A9" stroke-width="3" stroke-linecap="round" stroke-linejoin="round"/>
<path opacity="0.3" d="M203.535 154.094L120.247 163.317C120.047 163.356 119.869 163.468 119.748 163.631C119.628 163.794 119.574 163.997 119.596 164.198C119.619 164.4 119.718 164.585 119.872 164.718C120.026 164.85 120.225 164.919 120.428 164.912L203.716 155.689C203.827 155.685 203.937 155.658 204.037 155.61C204.138 155.562 204.227 155.494 204.3 155.41C204.373 155.326 204.427 155.228 204.46 155.122C204.493 155.016 204.504 154.904 204.491 154.794C204.479 154.684 204.443 154.577 204.387 154.481C204.332 154.385 204.256 154.302 204.167 154.236C204.077 154.17 203.974 154.124 203.865 154.099C203.757 154.075 203.644 154.073 203.535 154.094Z" fill="black"/>
<path opacity="0.3" d="M204.185 159.849L108.391 170.457C108.285 170.467 108.182 170.499 108.089 170.549C107.995 170.6 107.913 170.668 107.847 170.751C107.78 170.834 107.732 170.929 107.703 171.031C107.674 171.133 107.667 171.24 107.68 171.345C107.692 171.45 107.724 171.552 107.775 171.645C107.826 171.738 107.894 171.82 107.977 171.886C108.06 171.953 108.155 172.002 108.257 172.032C108.359 172.062 108.466 172.071 108.572 172.059L204.358 161.452C204.573 161.427 204.768 161.319 204.903 161.152C205.037 160.984 205.1 160.77 205.076 160.557C205.052 160.345 204.944 160.152 204.777 160.02C204.61 159.887 204.397 159.826 204.185 159.849Z" fill="black"/>
<path opacity="0.3" d="M179.852 168.373L109.063 176.212C108.957 176.222 108.855 176.254 108.761 176.304C108.668 176.355 108.585 176.423 108.519 176.506C108.453 176.589 108.404 176.684 108.375 176.786C108.347 176.888 108.339 176.995 108.353 177.1C108.364 177.205 108.396 177.307 108.447 177.4C108.498 177.493 108.567 177.575 108.65 177.641C108.733 177.708 108.828 177.757 108.93 177.787C109.032 177.817 109.139 177.826 109.244 177.815L180.026 169.975C180.132 169.964 180.234 169.932 180.328 169.882C180.421 169.831 180.503 169.762 180.57 169.68C180.637 169.597 180.687 169.503 180.716 169.401C180.746 169.299 180.756 169.193 180.744 169.088C180.734 168.982 180.702 168.88 180.652 168.786C180.601 168.693 180.532 168.61 180.449 168.544C180.366 168.477 180.271 168.428 180.168 168.398C180.066 168.369 179.958 168.36 179.852 168.373Z" fill="black"/>
<path opacity="0.3" d="M224.664 151.019L216.215 151.955C215.079 152.081 214.26 153.1 214.387 154.232L215.327 162.643C215.453 163.775 216.477 164.59 217.614 164.464L226.063 163.528C227.199 163.402 228.018 162.383 227.891 161.251L226.951 152.84C226.825 151.708 225.801 150.893 224.664 151.019Z" stroke="#263238" stroke-linecap="round" stroke-linejoin="round"/>
<path d="M217.711 157.495L220.484 160.105L224.149 154.53" stroke="#92E3A9" stroke-width="3" stroke-linecap="round" stroke-linejoin="round"/>
<path opacity="0.3" d="M206.588 181.35L123.3 190.574C123.194 190.585 123.092 190.617 122.998 190.668C122.905 190.719 122.823 190.787 122.756 190.87C122.689 190.952 122.64 191.047 122.61 191.148C122.58 191.25 122.57 191.356 122.582 191.462C122.593 191.567 122.625 191.669 122.676 191.762C122.727 191.854 122.796 191.936 122.879 192.003C122.962 192.069 123.057 192.119 123.159 192.148C123.261 192.178 123.368 192.188 123.473 192.176L206.761 182.953C206.867 182.942 206.97 182.91 207.063 182.859C207.156 182.808 207.239 182.74 207.305 182.657C207.372 182.575 207.422 182.48 207.451 182.378C207.481 182.277 207.491 182.17 207.479 182.065C207.455 181.853 207.347 181.66 207.18 181.526C207.014 181.392 206.801 181.329 206.588 181.35Z" fill="black"/>
<path opacity="0.3" d="M207.23 187.091L111.436 197.698C111.325 197.702 111.215 197.729 111.115 197.777C111.014 197.825 110.925 197.893 110.852 197.977C110.779 198.061 110.725 198.159 110.692 198.265C110.659 198.372 110.648 198.483 110.661 198.593C110.673 198.704 110.709 198.81 110.765 198.906C110.82 199.002 110.896 199.086 110.985 199.152C111.075 199.217 111.178 199.264 111.287 199.288C111.395 199.313 111.508 199.314 111.617 199.293L207.404 188.686C207.516 188.683 207.626 188.657 207.727 188.61C207.828 188.563 207.919 188.495 207.993 188.411C208.066 188.328 208.122 188.229 208.155 188.123C208.189 188.017 208.2 187.905 208.188 187.794C208.176 187.683 208.141 187.576 208.085 187.48C208.029 187.383 207.954 187.299 207.864 187.233C207.774 187.167 207.671 187.12 207.562 187.096C207.453 187.071 207.34 187.069 207.23 187.091Z" fill="black"/>
<path opacity="0.3" d="M182.875 195.637L112.086 203.476C111.872 203.5 111.677 203.607 111.543 203.775C111.409 203.942 111.348 204.155 111.372 204.368C111.396 204.58 111.504 204.774 111.672 204.908C111.84 205.041 112.054 205.103 112.267 205.079L183.057 197.239C183.269 197.213 183.463 197.104 183.596 196.937C183.729 196.769 183.79 196.556 183.767 196.344C183.756 196.239 183.724 196.137 183.673 196.045C183.622 195.952 183.553 195.871 183.47 195.805C183.387 195.739 183.291 195.691 183.189 195.662C183.087 195.633 182.981 195.624 182.875 195.637Z" fill="black"/>
<path opacity="0.3" d="M227.705 178.292L219.256 179.228C218.12 179.354 217.301 180.373 217.427 181.505L218.367 189.916C218.494 191.048 219.518 191.863 220.654 191.737L229.103 190.801C230.24 190.675 231.058 189.656 230.932 188.524L229.992 180.113C229.865 178.981 228.841 178.166 227.705 178.292Z" stroke="#263238" stroke-linecap="round" stroke-linejoin="round"/>
<path d="M220.756 184.759L223.529 187.369L227.194 181.794" stroke="#92E3A9" stroke-width="3" stroke-linecap="round" stroke-linejoin="round"/>
<path opacity="0.3" d="M208.907 202.137L125.62 211.375C125.406 211.399 125.211 211.507 125.077 211.674C124.943 211.841 124.881 212.054 124.905 212.267C124.93 212.479 125.037 212.674 125.205 212.807C125.373 212.94 125.587 213.002 125.801 212.978L209.089 203.755C209.195 203.744 209.297 203.713 209.391 203.662C209.484 203.612 209.567 203.543 209.633 203.46C209.699 203.378 209.748 203.282 209.777 203.18C209.805 203.078 209.813 202.972 209.799 202.867C209.79 202.76 209.759 202.657 209.709 202.562C209.659 202.467 209.59 202.384 209.507 202.316C209.424 202.248 209.328 202.197 209.225 202.166C209.122 202.136 209.014 202.126 208.907 202.137Z" fill="black"/>
<path opacity="0.3" d="M209.55 207.915L113.763 218.522C113.651 218.525 113.541 218.551 113.44 218.598C113.339 218.645 113.248 218.713 113.174 218.797C113.101 218.881 113.045 218.979 113.012 219.085C112.978 219.191 112.967 219.303 112.979 219.414C112.991 219.525 113.026 219.632 113.082 219.728C113.137 219.825 113.213 219.909 113.303 219.975C113.393 220.041 113.496 220.088 113.605 220.113C113.714 220.137 113.827 220.139 113.937 220.117L209.731 209.51C209.931 209.471 210.109 209.359 210.229 209.196C210.35 209.033 210.404 208.83 210.381 208.629C210.358 208.427 210.26 208.242 210.106 208.11C209.952 207.977 209.753 207.908 209.55 207.915Z" fill="black"/>
<path opacity="0.3" d="M185.188 216.431L114.406 224.27C114.3 224.282 114.198 224.313 114.104 224.364C114.011 224.415 113.929 224.483 113.862 224.566C113.795 224.648 113.745 224.743 113.716 224.845C113.686 224.946 113.676 225.053 113.688 225.158C113.713 225.371 113.821 225.566 113.989 225.7C114.158 225.834 114.373 225.896 114.587 225.873L185.369 218.034C185.475 218.022 185.577 217.989 185.67 217.938C185.763 217.887 185.845 217.818 185.911 217.735C185.978 217.652 186.027 217.557 186.056 217.456C186.086 217.354 186.095 217.247 186.083 217.142C186.071 217.037 186.039 216.935 185.987 216.842C185.936 216.75 185.866 216.668 185.783 216.602C185.7 216.536 185.605 216.487 185.502 216.458C185.4 216.428 185.293 216.419 185.188 216.431Z" fill="black"/>
<path opacity="0.3" d="M230.039 199.086L221.59 200.022C220.454 200.148 219.635 201.167 219.761 202.299L220.702 210.71C220.828 211.842 221.852 212.657 222.988 212.531L231.437 211.595C232.574 211.469 233.393 210.45 233.266 209.318L232.326 200.907C232.199 199.775 231.176 198.96 230.039 199.086Z" stroke="#263238" stroke-linecap="round" stroke-linejoin="round"/>
<path d="M223.083 205.56L225.857 208.171L229.521 202.596" stroke="#92E3A9" stroke-width="3" stroke-linecap="round" stroke-linejoin="round"/>
<path d="M139.659 148.926C139.732 148.061 139.517 147.196 139.047 146.466L138.118 144.826L136.274 145.864L137.279 147.624C137.778 148.504 137.574 149.046 136.954 149.392C136.334 149.738 135.76 149.648 135.261 148.768L133.108 144.961L130.795 145.412L133.259 149.738C134.385 151.717 136.017 152.281 137.929 151.243C138.233 151.069 138.514 150.86 138.768 150.618C138.66 150.37 138.641 150.093 138.714 149.833C138.787 149.573 138.947 149.346 139.168 149.189C139.316 149.075 139.482 148.986 139.659 148.926Z" fill="#92E3A9"/>
<path d="M129.609 143.328L130.047 144.081H132.594L131.483 142.125C130.984 141.244 131.181 140.688 131.801 140.342C132.42 139.996 133.002 140.101 133.501 140.989L134.256 142.305L136.093 141.267L135.413 140.071C134.287 138.1 132.654 137.528 130.743 138.611C130.304 138.847 129.914 139.164 129.594 139.544C130.028 139.683 130.483 139.747 130.939 139.732L129.126 140.409C128.993 140.902 128.967 141.417 129.05 141.921C129.134 142.424 129.324 142.904 129.609 143.328Z" fill="#92E3A9"/>
<path d="M143.732 135.309C143.975 135.188 144.228 135.09 144.488 135.015C145.463 134.579 145.682 133.18 145.599 132.194L144.594 130.953L141.889 132.457L143.581 135.422C143.626 135.376 143.677 135.338 143.732 135.309Z" fill="#92E3A9"/>
<path d="M155.256 141.199L157.092 140.161L150.072 127.838L148.327 128.816C148.886 128.952 149.287 129.215 149.302 129.621C148.758 129.696 148.093 129.621 147.503 129.726L151.04 138.852L146.566 133.3C146.578 133.423 146.56 133.547 146.512 133.661C146.465 133.775 146.39 133.876 146.294 133.954C146.09 134.097 145.795 134.097 145.637 134.285C145.478 134.474 145.501 134.699 145.365 134.865C145.229 135.03 145.017 135.075 144.851 135.196C144.685 135.316 144.503 135.625 144.314 135.828C144.223 135.923 144.109 135.993 143.982 136.031L148.954 144.758L150.647 143.795L145.682 135.083L152.06 142.997L153.904 141.959L150.178 132.382L155.256 141.199Z" fill="#92E3A9"/>
<path d="M159.903 130.471C160.038 130.538 160.157 130.631 160.254 130.745C160.352 130.859 160.425 130.991 160.47 131.133C160.629 130.204 160.426 129.249 159.903 128.463L158.989 126.853C157.863 124.882 156.299 124.347 154.349 125.446L151.485 127.063L158.513 139.394L160.334 138.363C159.745 137.995 159.087 137.679 158.528 137.28C158.266 137.113 158.05 136.883 157.901 136.61C157.83 136.473 157.801 136.318 157.817 136.164C157.833 136.011 157.894 135.865 157.992 135.745C158.12 135.638 158.276 135.569 158.441 135.546C158.607 135.523 158.776 135.548 158.929 135.617L157.818 133.661L158.74 133.142C159.246 132.869 159.687 132.489 160.032 132.029C159.646 131.419 158.974 130.125 159.903 130.471ZM157.735 131.419L156.813 131.938L154.432 127.763L155.354 127.244C155.974 126.898 156.473 126.988 156.971 127.868L158.029 129.719C158.528 130.562 158.354 131.036 157.735 131.419Z" fill="#92E3A9"/>
<path d="M170.324 132.721L169.326 130.96L166.123 132.766L161.437 124.543L161.226 124.708C161.089 124.835 160.923 124.925 160.742 124.972C160.651 124.992 160.556 124.979 160.474 124.935C160.392 124.89 160.329 124.818 160.296 124.731C160.27 124.615 160.27 124.494 160.296 124.377C160.298 123.677 160.075 122.995 159.662 122.429L158.15 123.302L165.17 135.625L170.324 132.721Z" fill="#92E3A9"/>
<path d="M169.447 128.41C169.659 127.861 170.316 127.658 170.686 127.161C170.72 127.11 170.75 127.057 170.777 127.003L170.022 125.739L171.933 124.663C171.898 124.543 171.836 124.433 171.752 124.34C171.478 124.206 171.185 124.115 170.883 124.069C170.836 123.975 170.813 123.872 170.814 123.768C170.816 123.663 170.843 123.561 170.892 123.469C170.942 123.377 171.013 123.298 171.099 123.239C171.186 123.179 171.285 123.142 171.389 123.129C171.518 123.129 171.669 123.129 171.767 123.068C171.836 122.987 171.871 122.882 171.865 122.775L171.692 122.474L169.017 123.979L167.067 120.548L170.422 118.645L169.417 116.884L164.127 119.894L169.326 129.019C169.335 128.811 169.376 128.606 169.447 128.41Z" fill="#92E3A9"/>
<path d="M176.482 129.245L175.477 127.485L172.114 129.38L171.109 127.658L169.87 128.816L169.439 129.23L171.177 132.277L176.482 129.245Z" fill="#92E3A9"/>
<path d="M173.981 114.928C173.981 115.192 173.792 115.485 173.535 115.508C173.405 115.506 173.275 115.486 173.15 115.447C172.916 115.452 172.683 115.429 172.455 115.38C172.405 115.359 172.359 115.332 172.319 115.297L170.097 116.553L171.102 118.321L173.135 117.17L179.18 127.703L181.122 126.604L175.077 116.072L177.117 114.921L176.112 113.16L174.027 114.334C173.989 114.53 174.004 114.733 173.981 114.928Z" fill="#92E3A9"/>
<path d="M182.467 122.391L183.979 125.047L186.019 123.896C186.067 123.763 186.128 123.634 186.2 123.512C186.649 122.859 187.254 122.326 187.961 121.963L188.898 121.383L188.278 120.285L184.916 122.188L182.86 118.577L185.535 117.072L184.53 115.312L181.855 116.817L179.906 113.364L183.268 111.468L182.263 109.707L176.974 112.717L180.79 119.42C181.712 118.931 182.173 120.691 182.467 122.391Z" fill="#92E3A9"/>
<path d="M143.332 146.736C143.649 146.789 143.838 147.105 144.088 147.316C144.178 147.399 144.283 147.465 144.397 147.511C144.542 147.454 144.683 147.389 144.82 147.316C146.725 146.24 147.125 144.525 146.007 142.546L145.894 142.35L143.279 142.283L144.133 143.787C144.632 144.668 144.435 145.224 143.815 145.57C143.196 145.916 142.614 145.804 142.115 144.923L138.337 138.265C137.831 137.385 138.035 136.836 138.654 136.482C139.274 136.129 139.848 136.249 140.355 137.129L142.916 141.643C143.703 141.449 144.509 141.348 145.319 141.342L142.365 136.159C141.246 134.188 139.561 133.654 137.649 134.729C135.738 135.805 135.337 137.528 136.463 139.499L140.113 145.909C140.343 146.403 140.688 146.836 141.119 147.172C141.55 147.508 142.054 147.738 142.591 147.842C142.587 147.797 142.587 147.752 142.591 147.707C142.501 147.218 142.863 146.646 143.332 146.736Z" fill="#92E3A9"/>
<path d="M169.424 111.355L175.356 108.007C173.656 108.474 172.16 109.888 170.407 109.692C170.09 109.609 169.757 109.609 169.44 109.692C169.241 109.819 169.099 110.016 169.04 110.244C168.981 110.471 169.01 110.712 169.122 110.919C169.199 111.079 169.301 111.227 169.424 111.355Z" fill="#92E3A9"/>
<path d="M154.546 119.758C154.532 119.628 154.559 119.497 154.621 119.382C154.767 119.433 154.92 119.458 155.075 119.457L157.122 118.306C157.443 117.945 157.809 117.627 158.21 117.358C158.599 117.152 159.009 116.99 159.435 116.877L159.888 116.742L163.666 114.62C163.706 114.543 163.76 114.474 163.825 114.417C163.883 114.378 163.947 114.348 164.014 114.327L160.115 113.153L159.064 113.74L158.951 114.567L154.455 116.96C154.01 117.236 153.514 117.423 152.996 117.509C152.803 117.531 152.608 117.531 152.415 117.509L146.007 121.128C146.058 121.43 146.144 121.725 146.264 122.008C145.888 121.938 145.53 121.792 145.213 121.579L143.898 122.331C144.835 122.948 145.757 123.58 146.657 124.25L154.546 119.758Z" fill="#92E3A9"/>
<path d="M181.976 104.276L178.878 102.545L177.412 103.373C178.275 104.257 179.391 104.856 180.608 105.088L181.976 104.276Z" fill="#92E3A9"/>
<path d="M198.638 122.489L186.941 101.958C186.486 101.165 185.734 100.582 184.849 100.338C183.964 100.094 183.018 100.209 182.218 100.657L180.812 101.454L181.349 101.974C181.908 102.53 182.482 103.094 183.004 103.689L183.714 103.29C183.812 103.235 183.929 103.221 184.037 103.251C184.146 103.28 184.239 103.351 184.296 103.448L196.001 123.986C196.055 124.085 196.068 124.201 196.037 124.31C196.006 124.418 195.933 124.51 195.835 124.566L179.913 133.593C181.288 133.676 182.679 133.481 184.054 133.639C184.55 133.701 185.041 133.789 185.528 133.902L197.331 127.236C197.732 127.012 198.084 126.711 198.367 126.35C198.65 125.989 198.858 125.576 198.98 125.135C199.102 124.693 199.134 124.232 199.075 123.778C199.017 123.324 198.868 122.886 198.638 122.489Z" fill="#92E3A9"/>
<path d="M126.957 148.617L121.456 138.942C121.427 138.893 121.409 138.84 121.402 138.784C121.394 138.728 121.398 138.671 121.413 138.616C121.427 138.562 121.453 138.511 121.487 138.466C121.522 138.421 121.565 138.384 121.614 138.356L137.483 129.388C137.43 129.268 137.362 129.147 137.317 129.027C137.541 129.017 137.765 129.043 137.982 129.102L144.397 125.483C144.186 125.416 143.982 125.333 143.778 125.258L140.755 124.062L138.337 125.431L140.967 127.033C140.052 126.476 138.186 126.401 136.576 126.424L120.156 135.73C119.357 136.182 118.771 136.93 118.526 137.812C118.281 138.693 118.397 139.636 118.849 140.432L123.624 148.813C123.844 148.753 124.07 148.7 124.289 148.662C124.895 148.576 125.507 148.545 126.118 148.572C126.398 148.57 126.679 148.585 126.957 148.617Z" fill="#92E3A9"/>
<path d="M146.559 152.394C146.828 152.634 147.134 152.83 147.465 152.973C147.805 153.124 148.259 153.485 147.994 153.725C146.77 154.282 145.259 153.868 144.057 154.478C143.4 154.794 142.765 155.418 142.062 155.23C142.913 155.744 143.677 156.386 144.329 157.133L174.336 140.191C174.336 140.071 174.374 139.951 174.397 139.823C174.398 139.586 174.452 139.352 174.557 139.14C174.662 138.927 174.815 138.742 175.003 138.597C175.191 138.451 175.409 138.351 175.642 138.303C175.875 138.254 176.116 138.26 176.346 138.318C176.736 138.301 177.125 138.342 177.503 138.438L181.243 136.324C180.73 135.444 180.122 134.621 179.429 133.872L146.559 152.394Z" fill="#92E3A9"/>
<path d="M141.7 157.367C140.976 157.133 140.309 156.751 139.743 156.246L133.758 159.631C133.709 159.659 133.656 159.677 133.6 159.685C133.544 159.692 133.488 159.688 133.434 159.673C133.38 159.659 133.329 159.633 133.285 159.599C133.24 159.565 133.203 159.522 133.176 159.473L127.886 150.242C127.38 150.068 126.84 150.006 126.307 150.062C125.695 150.182 125.159 150.889 125.491 151.408C125.803 151.416 126.108 151.507 126.374 151.671C126.639 151.835 126.856 152.066 127.002 152.341C126.676 152.599 126.318 152.814 125.937 152.981L130.471 160.963C130.696 161.366 131 161.72 131.365 162.005C131.729 162.289 132.148 162.498 132.595 162.619C133.042 162.741 133.509 162.772 133.968 162.711C134.427 162.65 134.87 162.498 135.269 162.264L143.113 157.833L143.022 157.78C142.589 157.619 142.148 157.481 141.7 157.367Z" fill="#92E3A9"/>
<g opacity="0.2">
<path d="M139.659 148.926C139.732 148.061 139.517 147.196 139.047 146.466L138.118 144.826L136.274 145.864L137.279 147.624C137.778 148.504 137.574 149.046 136.954 149.392C136.334 149.738 135.76 149.648 135.261 148.768L133.108 144.961L130.795 145.412L133.259 149.738C134.385 151.717 136.017 152.281 137.929 151.243C138.233 151.069 138.514 150.86 138.768 150.618C138.66 150.37 138.641 150.093 138.714 149.833C138.787 149.573 138.947 149.346 139.168 149.189C139.316 149.075 139.482 148.986 139.659 148.926Z" fill="black"/>
<path d="M129.609 143.328L130.047 144.081H132.594L131.483 142.125C130.984 141.244 131.181 140.688 131.801 140.342C132.42 139.996 133.002 140.101 133.501 140.989L134.256 142.305L136.093 141.267L135.413 140.071C134.287 138.1 132.654 137.528 130.743 138.611C130.304 138.847 129.914 139.164 129.594 139.544C130.028 139.683 130.483 139.747 130.939 139.732L129.126 140.409C128.993 140.902 128.967 141.417 129.05 141.921C129.134 142.424 129.324 142.904 129.609 143.328Z" fill="black"/>
<path d="M143.732 135.309C143.975 135.188 144.228 135.09 144.488 135.015C145.463 134.579 145.682 133.18 145.599 132.194L144.594 130.953L141.889 132.457L143.581 135.422C143.626 135.376 143.677 135.338 143.732 135.309Z" fill="black"/>
<path d="M155.256 141.199L157.092 140.161L150.072 127.838L148.327 128.816C148.886 128.952 149.287 129.215 149.302 129.621C148.758 129.696 148.093 129.621 147.503 129.726L151.04 138.852L146.566 133.3C146.578 133.423 146.56 133.547 146.512 133.661C146.465 133.775 146.39 133.876 146.294 133.954C146.09 134.097 145.795 134.097 145.637 134.285C145.478 134.474 145.501 134.699 145.365 134.865C145.229 135.03 145.017 135.075 144.851 135.196C144.685 135.316 144.503 135.625 144.314 135.828C144.223 135.923 144.109 135.993 143.982 136.031L148.954 144.758L150.647 143.795L145.682 135.083L152.06 142.997L153.904 141.959L150.178 132.382L155.256 141.199Z" fill="black"/>
<path d="M159.903 130.471C160.038 130.538 160.157 130.631 160.254 130.745C160.352 130.859 160.425 130.991 160.47 131.133C160.629 130.204 160.426 129.249 159.903 128.463L158.989 126.853C157.863 124.882 156.299 124.347 154.349 125.446L151.485 127.063L158.513 139.394L160.334 138.363C159.745 137.995 159.087 137.679 158.528 137.28C158.266 137.113 158.05 136.883 157.901 136.61C157.83 136.473 157.801 136.318 157.817 136.164C157.833 136.011 157.894 135.865 157.992 135.745C158.12 135.638 158.276 135.569 158.441 135.546C158.607 135.523 158.776 135.548 158.929 135.617L157.818 133.661L158.74 133.142C159.246 132.869 159.687 132.489 160.032 132.029C159.646 131.419 158.974 130.125 159.903 130.471ZM157.735 131.419L156.813 131.938L154.432 127.763L155.354 127.244C155.974 126.898 156.473 126.988 156.971 127.868L158.029 129.719C158.528 130.562 158.354 131.036 157.735 131.419Z" fill="black"/>
<path d="M170.324 132.721L169.326 130.96L166.123 132.766L161.437 124.543L161.226 124.708C161.089 124.835 160.923 124.925 160.742 124.972C160.651 124.992 160.556 124.979 160.474 124.935C160.392 124.89 160.329 124.818 160.296 124.731C160.27 124.615 160.27 124.494 160.296 124.377C160.298 123.677 160.075 122.995 159.662 122.429L158.15 123.302L165.17 135.625L170.324 132.721Z" fill="black"/>
<path d="M169.447 128.41C169.659 127.861 170.316 127.658 170.686 127.161C170.72 127.11 170.75 127.057 170.777 127.003L170.022 125.739L171.933 124.663C171.898 124.543 171.836 124.433 171.752 124.34C171.478 124.206 171.185 124.115 170.883 124.069C170.836 123.975 170.813 123.872 170.814 123.768C170.816 123.663 170.843 123.561 170.892 123.469C170.942 123.377 171.013 123.298 171.099 123.239C171.186 123.179 171.285 123.142 171.389 123.129C171.518 123.129 171.669 123.129 171.767 123.068C171.836 122.987 171.871 122.882 171.865 122.775L171.692 122.474L169.017 123.979L167.067 120.548L170.422 118.645L169.417 116.884L164.127 119.894L169.326 129.019C169.335 128.811 169.376 128.606 169.447 128.41Z" fill="black"/>
<path d="M176.482 129.245L175.477 127.485L172.114 129.38L171.109 127.658L169.87 128.816L169.439 129.23L171.177 132.277L176.482 129.245Z" fill="black"/>
<path d="M173.981 114.928C173.981 115.192 173.792 115.485 173.535 115.508C173.405 115.506 173.275 115.486 173.15 115.447C172.916 115.452 172.683 115.429 172.455 115.38C172.405 115.359 172.359 115.332 172.319 115.297L170.097 116.553L171.102 118.321L173.135 117.17L179.18 127.703L181.122 126.604L175.077 116.072L177.117 114.921L176.112 113.16L174.027 114.334C173.989 114.53 174.004 114.733 173.981 114.928Z" fill="black"/>
<path d="M182.467 122.391L183.979 125.047L186.019 123.896C186.067 123.763 186.128 123.634 186.2 123.512C186.649 122.859 187.254 122.326 187.961 121.963L188.898 121.383L188.278 120.285L184.916 122.188L182.86 118.577L185.535 117.072L184.53 115.312L181.855 116.817L179.906 113.364L183.268 111.468L182.263 109.707L176.974 112.717L180.79 119.42C181.712 118.931 182.173 120.691 182.467 122.391Z" fill="black"/>
<path d="M143.332 146.736C143.649 146.789 143.838 147.105 144.088 147.316C144.178 147.399 144.283 147.465 144.397 147.511C144.542 147.454 144.683 147.389 144.82 147.316C146.725 146.24 147.125 144.525 146.007 142.546L145.894 142.35L143.279 142.283L144.133 143.787C144.632 144.668 144.435 145.224 143.815 145.57C143.196 145.916 142.614 145.804 142.115 144.923L138.337 138.265C137.831 137.385 138.035 136.836 138.654 136.482C139.274 136.129 139.848 136.249 140.355 137.129L142.916 141.643C143.703 141.449 144.509 141.348 145.319 141.342L142.365 136.159C141.246 134.188 139.561 133.654 137.649 134.729C135.738 135.805 135.337 137.528 136.463 139.499L140.113 145.909C140.343 146.403 140.688 146.836 141.119 147.172C141.55 147.508 142.054 147.738 142.591 147.842C142.587 147.797 142.587 147.752 142.591 147.707C142.501 147.218 142.863 146.646 143.332 146.736Z" fill="black"/>
<path d="M169.424 111.355L175.356 108.007C173.656 108.474 172.16 109.888 170.407 109.692C170.09 109.609 169.757 109.609 169.44 109.692C169.241 109.819 169.099 110.016 169.04 110.244C168.981 110.471 169.01 110.712 169.122 110.919C169.199 111.079 169.301 111.227 169.424 111.355Z" fill="black"/>
<path d="M154.546 119.758C154.532 119.628 154.559 119.497 154.621 119.382C154.767 119.433 154.92 119.458 155.075 119.457L157.122 118.306C157.443 117.945 157.809 117.627 158.21 117.358C158.599 117.152 159.009 116.99 159.435 116.877L159.888 116.742L163.666 114.62C163.706 114.543 163.76 114.474 163.825 114.417C163.883 114.378 163.947 114.348 164.014 114.327L160.115 113.153L159.064 113.74L158.951 114.567L154.455 116.96C154.01 117.236 153.514 117.423 152.996 117.509C152.803 117.531 152.608 117.531 152.415 117.509L146.007 121.128C146.058 121.43 146.144 121.725 146.264 122.008C145.888 121.938 145.53 121.792 145.213 121.579L143.898 122.331C144.835 122.948 145.757 123.58 146.657 124.25L154.546 119.758Z" fill="black"/>
<path d="M181.976 104.276L178.878 102.545L177.412 103.373C178.275 104.257 179.391 104.856 180.608 105.088L181.976 104.276Z" fill="black"/>
<path d="M198.638 122.489L186.941 101.958C186.486 101.165 185.734 100.582 184.849 100.338C183.964 100.094 183.018 100.209 182.218 100.657L180.812 101.454L181.349 101.974C181.908 102.53 182.482 103.094 183.004 103.689L183.714 103.29C183.812 103.235 183.929 103.221 184.037 103.251C184.146 103.28 184.239 103.351 184.296 103.448L196.001 123.986C196.055 124.085 196.068 124.201 196.037 124.31C196.006 124.418 195.933 124.51 195.835 124.566L179.913 133.593C181.288 133.676 182.679 133.481 184.054 133.639C184.55 133.701 185.041 133.789 185.528 133.902L197.331 127.236C197.732 127.012 198.084 126.711 198.367 126.35C198.65 125.989 198.858 125.576 198.98 125.135C199.102 124.693 199.134 124.232 199.075 123.778C199.017 123.324 198.868 122.886 198.638 122.489Z" fill="black"/>
<path d="M126.957 148.617L121.456 138.942C121.427 138.893 121.409 138.84 121.402 138.784C121.394 138.728 121.398 138.671 121.413 138.616C121.427 138.562 121.453 138.511 121.487 138.466C121.522 138.421 121.565 138.384 121.614 138.356L137.483 129.388C137.43 129.268 137.362 129.147 137.317 129.027C137.541 129.017 137.765 129.043 137.982 129.102L144.397 125.483C144.186 125.416 143.982 125.333 143.778 125.258L140.755 124.062L138.337 125.431L140.967 127.033C140.052 126.476 138.186 126.401 136.576 126.424L120.156 135.73C119.357 136.182 118.771 136.93 118.526 137.812C118.281 138.693 118.397 139.636 118.849 140.432L123.624 148.813C123.844 148.753 124.07 148.7 124.289 148.662C124.895 148.576 125.507 148.545 126.118 148.572C126.398 148.57 126.679 148.585 126.957 148.617Z" fill="black"/>
<path d="M146.559 152.394C146.828 152.634 147.134 152.829 147.465 152.973C147.805 153.124 148.259 153.485 147.994 153.725C146.77 154.282 145.259 153.868 144.057 154.478C143.4 154.794 142.765 155.418 142.062 155.23C142.913 155.744 143.677 156.386 144.329 157.133L174.336 140.191C174.336 140.071 174.374 139.95 174.397 139.823C174.398 139.586 174.452 139.352 174.557 139.14C174.662 138.927 174.815 138.741 175.003 138.596C175.191 138.451 175.409 138.351 175.642 138.303C175.875 138.254 176.116 138.26 176.346 138.318C176.736 138.301 177.125 138.341 177.503 138.438L181.243 136.324C180.73 135.444 180.122 134.621 179.429 133.872L146.559 152.394Z" fill="black"/>
<path d="M141.7 157.367C140.976 157.133 140.309 156.751 139.743 156.246L133.758 159.631C133.709 159.659 133.656 159.677 133.6 159.685C133.544 159.692 133.488 159.688 133.434 159.673C133.38 159.659 133.329 159.633 133.285 159.599C133.24 159.565 133.203 159.522 133.176 159.473L127.886 150.242C127.38 150.068 126.84 150.006 126.307 150.062C125.695 150.182 125.159 150.889 125.491 151.408C125.803 151.416 126.108 151.507 126.374 151.671C126.639 151.835 126.856 152.066 127.002 152.341C126.676 152.599 126.318 152.814 125.937 152.981L130.471 160.963C130.696 161.366 131 161.72 131.365 162.005C131.729 162.289 132.148 162.498 132.595 162.619C133.042 162.741 133.509 162.772 133.968 162.711C134.427 162.65 134.87 162.498 135.269 162.264L143.113 157.833L143.022 157.78C142.589 157.619 142.148 157.481 141.7 157.367Z" fill="black"/>
</g>
<path opacity="0.3" d="M107.673 130.501C112.282 133.872 116.136 150.062 116.483 164.905C116.831 179.748 124.04 204.778 124.901 208.878C125.763 212.978 125.445 218.891 130.795 210.661C136.145 202.43 151.795 188.144 158.316 192.891C164.838 197.638 153.858 213.595 147.911 222.186C141.964 230.778 141.359 245.907 134.234 255.379C127.108 264.85 120.67 279.152 113.688 278.934C106.705 278.715 60.4595 312.871 60.4595 312.871L61.3663 266.122L102.927 198.413L107.673 130.501Z" fill="black" fill-opacity="0.7"/>
<path d="M162.11 195.186C161.876 196.653 153.737 207.388 148.954 215.423C144.171 223.458 139.69 237.443 138.488 239.497C137.287 241.551 122.62 254.378 118.6 259.742C114.579 265.106 107.401 267.476 100.23 272.531C95.6202 275.781 81.2553 292.551 71.5754 304.129C66.1951 310.561 62.2582 315.414 62.2582 315.414L0.37793 299.352C0.37793 299.352 5.50124 295.146 12.2417 289.474H12.287L12.355 289.421C23.4328 280.055 38.8708 266.836 43.1327 261.848C50.0015 253.814 59.5681 244.267 59.5681 244.267C58.9862 233.11 60.1726 222.54 59.1223 218.523C58.5782 216.424 57.6109 204.484 56.8553 200.813C55.0191 191.432 47.0318 181.712 46.1326 177.882C45.2334 174.053 34.692 157.75 39.838 154.741C40.7736 154.155 41.8856 153.913 42.9815 154.056C49.9335 155.012 55.6614 171.728 59.6059 175.986C61.2961 178.002 62.827 180.145 64.1851 182.396C67.2984 187.309 70.3512 192.831 70.3512 192.831C71.5452 188.069 62.8778 171.104 60.4824 155.034C58.087 138.965 51.2181 130.336 60.4824 129.343C61.2436 129.258 62.0142 129.324 62.7494 129.538C69.2706 131.434 72.0968 144.923 75.9959 158.014C76.3586 159.217 79.3284 167.861 81.6407 174.527C83.152 178.89 84.361 182.404 84.361 182.404C84.6557 174.219 82.094 166.605 81.6709 159.187C81.4895 156.216 82.4265 144.306 81.2477 132.405C80.2351 122.361 80.6961 118.291 84.6406 117.501C85.4855 117.35 86.3467 117.309 87.2022 117.381C94.0409 117.81 96.4665 135.903 96.4665 142.96C96.4665 147.06 97.1693 155.065 97.7587 161.068C98.1894 165.409 98.5597 168.704 98.5597 168.704C98.5597 168.704 99.7536 158.736 98.8619 137.235C98.6579 132.525 98.9677 129.155 100.827 127.793C101.847 127.041 103.32 126.913 105.436 127.485C111.413 129.095 113.355 151.145 113.355 159.481C113.355 167.816 118.139 182.095 119.038 193.335C119.937 204.575 123.851 218.387 123.851 218.387C123.851 218.387 126.065 219.282 127.554 218.989C129.043 218.696 139.365 203.514 139.365 203.514C144.171 193.124 153.526 189.972 158.619 191.138C160.961 191.672 162.473 193.109 162.11 195.186Z" fill="white"/>
<path opacity="0.4" d="M162.11 195.186C161.876 196.653 153.737 207.388 148.954 215.423C144.171 223.458 139.69 237.443 138.488 239.497C137.287 241.551 122.619 254.378 118.599 259.742C114.579 265.106 107.401 267.476 100.229 272.531C95.62 275.781 81.2551 292.551 71.5752 304.129C72.6407 299.931 75.0285 294.567 81.2702 289.413C92.1062 280.453 92.7561 273.427 98.5822 267.476C104.408 261.525 114.67 263.308 118.358 256.191C122.045 249.074 134.906 242.499 137.596 236.247C140.287 229.995 134.906 228.671 139.69 221.148C144.473 213.625 149.113 211.797 148.432 208.848C147.752 205.899 145.742 201.43 149.891 197.706C152.483 195.389 155.528 192.477 158.641 191.138C160.961 191.672 162.472 193.109 162.11 195.186Z" fill="#92E3A9"/>
<path opacity="0.4" d="M84.5801 230.499C82.5927 229.506 84.1872 227.528 82.7892 225.88C81.3913 224.233 78.2024 234.87 77.4997 234.908C76.7969 234.946 74.6584 229.499 73.8121 228.957C72.9658 228.415 72.467 230.695 71.2655 234.908C70.0641 239.121 65.651 241.258 63.0894 244.267C60.5277 247.276 45.12 263.639 41.3342 269.785C37.5484 275.932 14.1685 288.097 12.355 289.406C23.4328 280.055 38.8708 266.836 43.1326 261.848C50.0015 253.814 59.5681 244.267 59.5681 244.267C58.9862 233.11 60.1726 222.54 59.1222 218.523C58.5782 216.424 57.6109 204.484 56.8553 200.813C55.019 191.432 47.0318 181.712 46.1326 177.882C45.2334 174.053 34.692 157.75 39.838 154.741C40.7735 154.155 41.8855 153.913 42.9815 154.056C41.8103 154.884 40.6692 156.073 41.7347 157.818C43.6314 160.872 45.717 164.085 45.717 167.463C45.717 170.841 51.4977 175.595 53.742 178.748C55.9863 181.9 53.8931 180.786 55.3893 185.105C56.8855 189.423 58.6764 188.52 59.5681 192.884C60.4597 197.247 65.447 200.031 64.6536 205.47C63.8602 210.909 67.0414 218.477 67.0414 218.477C67.0414 218.477 69.6333 211.142 68.6888 207.193C67.7442 203.243 68.8399 198.263 67.9331 196.923C67.1775 195.72 65.107 187.55 64.1549 182.471C67.2681 187.384 70.321 192.906 70.321 192.906C71.5149 188.144 62.8476 171.179 60.4522 155.11C58.0568 139.04 51.1879 130.411 60.4522 129.418C61.2134 129.333 61.9839 129.4 62.7191 129.614C66.6712 136.964 63.9206 142.403 63.0441 145.593C62.0844 149.069 67.7971 157.991 68.6434 164.137C69.3991 169.878 70.9557 169.283 71.1598 169.178C70.986 169.336 69.5124 170.833 70.4041 175.091C71.3336 179.605 77.9606 190.326 77.9606 193.32C77.9606 196.314 77.4165 201.242 77.4165 202.701C77.4165 204.161 82.7061 213.926 83.3408 216.484C83.9756 219.042 83.0915 211.556 84.5348 208.961C85.9781 206.365 86.7413 197.307 86.9302 197.796C89.4163 204.086 86.575 231.477 84.5801 230.499Z" fill="#92E3A9"/>
<path opacity="0.4" d="M88.8643 163.272C87.1717 165.823 87.217 185.729 84.3304 185.797C82.9325 185.797 82.2524 180.794 81.6856 174.512C83.1969 178.875 84.406 182.389 84.406 182.389C84.7007 174.204 82.139 166.59 81.7159 159.172C81.5345 156.201 82.4715 144.291 81.2927 132.39C80.2801 122.346 80.7411 118.276 84.6856 117.486C85.5168 120.165 87.5571 123.324 88.0785 126.258C88.7888 130.306 87.3984 133.654 86.2044 134.158C85.0105 134.662 84.8065 137.272 86.3027 137.656C87.7989 138.04 86.3027 157.036 86.9979 159.473C87.6931 161.911 90.5645 160.76 88.8643 163.272Z" fill="#92E3A9"/>
<path opacity="0.4" d="M104.393 140.989C101.288 142.35 101.121 144.788 100.192 148.286C99.2624 151.784 101.522 156.893 100.192 164.92C98.8619 172.947 103.713 178.123 100.192 187.106C96.6705 196.088 98.3254 179.583 97.736 172.059C97.5329 168.395 97.548 164.723 97.7813 161.061C98.212 165.401 98.5823 168.697 98.5823 168.697C98.5823 168.697 99.7763 158.728 98.8846 137.227C98.6806 132.518 98.9904 129.147 100.849 127.786C104.038 130.667 107.038 139.83 104.393 140.989Z" fill="#92E3A9"/>
<path d="M62.2582 315.421C62.2582 315.421 93.051 277.625 100.23 272.539C107.408 267.453 114.587 265.099 118.6 259.75C122.612 254.401 137.294 241.589 138.488 239.505C139.682 237.421 144.171 223.435 148.954 215.431C153.737 207.426 161.876 196.623 162.11 195.193C163.153 188.641 146.415 188.347 139.388 203.529C139.388 203.529 129.073 218.703 127.577 219.004C126.081 219.305 123.874 218.402 123.874 218.402C123.874 218.402 119.96 204.597 119.061 193.35C118.161 182.103 113.378 167.809 113.378 159.496C113.378 151.183 111.436 129.11 105.459 127.5C99.4816 125.89 98.5748 129.967 98.8846 137.28C99.7763 158.781 98.5824 168.749 98.5824 168.749C98.5824 168.749 96.4892 150.069 96.4892 143.005C96.4892 135.941 94.0636 117.847 87.2249 117.426C80.9455 117.027 80.0689 120.541 81.2704 132.472C82.4719 144.404 81.5122 156.283 81.6936 159.255C82.1394 166.695 84.7162 174.301 84.3837 182.472C84.3837 182.472 76.608 160.06 76.0111 158.066C71.6812 143.456 68.6813 128.41 60.4598 129.313C51.1955 130.306 58.0719 138.935 60.4598 155.004C62.8476 171.074 71.5225 188.039 70.3286 192.801C70.3286 192.801 63.1574 179.838 59.5832 175.956C55.0493 171.074 48.2031 149.798 39.8305 154.711C34.6845 157.72 45.2561 174.076 46.1477 177.905C47.0394 181.734 55.0342 191.447 56.8704 200.836C57.6261 204.507 58.5706 216.446 59.1374 218.545C60.1877 222.563 59.0014 233.133 59.5832 244.289C59.5832 244.289 50.0167 253.814 43.1478 261.849C36.2789 269.883 0.393066 299.352 0.393066 299.352" stroke="#263238" stroke-linecap="round" stroke-linejoin="round"/>
<path d="M123.874 218.395C125.253 221.784 125.253 225.575 123.874 228.965" stroke="#263238" stroke-linecap="round" stroke-linejoin="round"/>
<path d="M126.39 219.027C127.248 219.654 127.884 220.536 128.205 221.546C128.527 222.556 128.519 223.642 128.181 224.646" stroke="#263238" stroke-linecap="round" stroke-linejoin="round"/>
<path d="M98.582 168.697C98.582 168.697 100.977 185.511 99.9271 188.633" stroke="#263238" stroke-linecap="round" stroke-linejoin="round"/>
<path d="M84.3838 182.389C84.6403 184.014 84.6403 185.669 84.3838 187.294" stroke="#263238" stroke-linecap="round" stroke-linejoin="round"/>
<path d="M70.3359 192.801C70.3359 192.801 70.7818 195.336 70.3359 195.93" stroke="#263238" stroke-linecap="round" stroke-linejoin="round"/>
<path d="M146.113 207.087C146.113 207.087 148.818 208.547 149.702 210.661" stroke="#263238" stroke-linecap="round" stroke-linejoin="round"/>
<path d="M84.4819 137.227C85.3588 137.437 86.2746 137.423 87.1448 137.188C88.0151 136.953 88.8119 136.503 89.4617 135.88" stroke="#263238" stroke-linecap="round" stroke-linejoin="round"/>
<path d="M85.396 161.407C85.396 161.407 90.7762 163.19 92.7258 161.407" stroke="#263238" stroke-linecap="round" stroke-linejoin="round"/>
<path d="M102.92 166.613C102.92 166.613 106.502 165.274 108.897 166.018" stroke="#263238" stroke-linecap="round" stroke-linejoin="round"/>
<path d="M68.6885 171.375C68.6885 171.375 71.5297 167.651 73.774 168.697" stroke="#263238" stroke-linecap="round" stroke-linejoin="round"/>
<path d="M57.0288 182.389C57.0288 182.389 54.4898 183.577 53.7417 184.841" stroke="#263238" stroke-linecap="round" stroke-linejoin="round"/>
<path d="M59.5679 244.267C60.1908 243.571 60.7426 242.815 61.2152 242.01C61.661 241.115 61.0641 231.59 61.2152 225.459" stroke="#263238" stroke-linecap="round" stroke-linejoin="round"/>
<path d="M90.9273 281.762C87.406 285.689 76.6077 292.806 72.2778 297.117" stroke="#263238" stroke-linecap="round" stroke-linejoin="round"/>
<path d="M105.156 192.801C103.366 197.864 105.308 204.259 105.156 207.095C105.005 209.931 104.401 222.893 104.401 222.893" stroke="#263238" stroke-linecap="round" stroke-linejoin="round"/>
<path d="M88.8646 192.801C86.4768 196.818 87.2249 202.175 87.973 204.838C88.7211 207.501 88.0561 218.38 88.0561 218.38" stroke="#263238" stroke-linecap="round" stroke-linejoin="round"/>
<path d="M63.1571 205.598C62.9592 208.218 63.4817 210.842 64.6684 213.189" stroke="#263238" stroke-linecap="round" stroke-linejoin="round"/>
<path d="M77.9529 197.713C76.6078 202.626 78.4062 204.853 78.5574 205.598" stroke="#263238" stroke-linecap="round" stroke-linejoin="round"/>
<path opacity="0.3" d="M199.364 165.273L196.817 150.558C196.705 149.904 196.726 149.235 196.88 148.59C197.034 147.944 197.318 147.337 197.714 146.803C198.11 146.27 198.61 145.822 199.184 145.486C199.759 145.15 200.395 144.933 201.056 144.848L206.761 144.096C206.761 144.096 204.857 140.251 210.985 129.049C217.114 117.847 246.577 88.0932 268.914 138.077C291.251 188.061 311.661 289.917 311.661 289.917C311.661 289.917 251.367 220.012 249.448 216.431C247.529 212.85 229.174 214.994 224.935 205.387C220.696 195.78 211.794 168.365 211.794 168.365L204.902 169.306C203.635 169.477 202.35 169.152 201.317 168.4C200.285 167.649 199.584 166.528 199.364 165.273Z" fill="black" fill-opacity="0.7"/>
<path d="M252.501 131.509L240.932 133.601L224.851 136.512L203.791 140.327C203.388 140.4 202.973 140.394 202.571 140.308C202.17 140.222 201.789 140.058 201.452 139.825C201.114 139.592 200.826 139.296 200.604 138.952C200.381 138.608 200.23 138.224 200.157 137.821L195.532 112.506C195.387 111.694 195.57 110.858 196.041 110.18C196.512 109.502 197.234 109.037 198.049 108.887L210.298 106.63L228.116 103.41L246.758 100.032C247.162 99.9587 247.576 99.965 247.978 100.051C248.379 100.137 248.76 100.301 249.098 100.534C249.435 100.767 249.723 101.063 249.946 101.407C250.168 101.751 250.32 102.135 250.392 102.538L255.017 127.853C255.097 128.258 255.095 128.675 255.011 129.079C254.927 129.483 254.763 129.866 254.529 130.207C254.295 130.547 253.995 130.837 253.646 131.061C253.298 131.285 252.909 131.437 252.501 131.509Z" fill="#92E3A9"/>
<mask id="mask0_14_3058" style="mask-type:luminance" maskUnits="userSpaceOnUse" x="195" y="99" width="61" height="42">
<path d="M252.501 131.509L240.932 133.601L224.851 136.512L203.791 140.327C203.388 140.4 202.973 140.394 202.571 140.308C202.17 140.222 201.789 140.058 201.452 139.825C201.114 139.592 200.826 139.296 200.604 138.952C200.381 138.608 200.23 138.224 200.157 137.821L195.532 112.506C195.387 111.694 195.57 110.858 196.041 110.18C196.512 109.502 197.234 109.037 198.049 108.887L210.298 106.63L228.116 103.41L246.758 100.032C247.162 99.9587 247.576 99.965 247.978 100.051C248.379 100.137 248.76 100.301 249.098 100.534C249.435 100.767 249.723 101.063 249.946 101.407C250.168 101.751 250.32 102.135 250.392 102.538L255.017 127.853C255.097 128.258 255.095 128.675 255.011 129.079C254.927 129.483 254.763 129.866 254.529 130.207C254.295 130.547 253.995 130.837 253.646 131.061C253.298 131.285 252.909 131.437 252.501 131.509Z" fill="white"/>
</mask>
<g mask="url(#mask0_14_3058)">
<path opacity="0.3" d="M244.317 114.703L240.932 133.601L224.851 136.512C220.197 134.474 212.519 130.923 210.985 128.989C209.157 126.732 209.414 113.431 210.298 106.63L228.116 103.41C234.395 107.721 244.317 114.703 244.317 114.703Z" fill="black" fill-opacity="0.7"/>
<path opacity="0.3" d="M206.988 139.747L203.791 140.327C203.388 140.4 202.973 140.394 202.571 140.308C202.17 140.222 201.789 140.058 201.452 139.825C201.114 139.592 200.826 139.296 200.604 138.952C200.381 138.608 200.23 138.224 200.157 137.821L195.532 112.506C195.387 111.694 195.57 110.858 196.041 110.18C196.512 109.502 197.234 109.037 198.049 108.887L201.237 108.308C200.423 108.458 199.702 108.923 199.232 109.601C198.762 110.28 198.581 111.116 198.729 111.927L203.353 137.242C203.426 137.645 203.578 138.029 203.8 138.373C204.022 138.716 204.311 139.013 204.648 139.246C204.986 139.479 205.366 139.643 205.768 139.729C206.169 139.815 206.584 139.821 206.988 139.747Z" fill="black" fill-opacity="0.7"/>
</g>
<path d="M252.501 131.509L240.932 133.601L224.851 136.512L203.791 140.327C203.388 140.4 202.973 140.394 202.571 140.308C202.17 140.222 201.789 140.058 201.452 139.825C201.114 139.592 200.826 139.296 200.604 138.952C200.381 138.608 200.23 138.224 200.157 137.821L195.532 112.506C195.387 111.694 195.57 110.858 196.041 110.18C196.512 109.502 197.234 109.037 198.049 108.887L210.298 106.63L228.116 103.41L246.758 100.032C247.162 99.9587 247.576 99.965 247.978 100.051C248.379 100.137 248.76 100.301 249.098 100.534C249.435 100.767 249.723 101.063 249.946 101.407C250.168 101.751 250.32 102.135 250.392 102.538L255.017 127.853C255.097 128.258 255.095 128.675 255.011 129.079C254.927 129.483 254.763 129.866 254.529 130.207C254.295 130.547 253.995 130.837 253.646 131.061C253.298 131.285 252.909 131.437 252.501 131.509Z" stroke="#263238" stroke-linecap="round" stroke-linejoin="round"/>
<path d="M249.057 98.695L200.544 107.566C198.851 107.876 197.731 109.493 198.042 111.179L202.692 136.386C203.003 138.072 204.628 139.188 206.321 138.878L254.834 130.007C256.527 129.697 257.647 128.08 257.336 126.394L252.686 101.187C252.375 99.501 250.75 98.3854 249.057 98.695Z" stroke="#263238" stroke-width="0.996394" stroke-linecap="round" stroke-linejoin="round"/>
<path d="M247.7 101.739L201.984 110.011C201.162 110.159 200.618 110.943 200.767 111.76L205.32 136.705C205.469 137.522 206.256 138.065 207.077 137.916L252.793 129.645C253.615 129.496 254.159 128.713 254.01 127.895L249.457 102.951C249.308 102.133 248.521 101.591 247.7 101.739Z" stroke="#263238" stroke-linecap="round" stroke-linejoin="round"/>
<path d="M255.697 130.93L252.523 131.502C253.334 131.35 254.051 130.885 254.519 130.209C254.986 129.532 255.165 128.699 255.017 127.891L250.392 102.575C250.32 102.173 250.168 101.789 249.946 101.445C249.723 101.101 249.435 100.804 249.097 100.572C248.76 100.339 248.379 100.175 247.978 100.089C247.576 100.003 247.162 99.9964 246.758 100.07L249.954 99.4909C250.77 99.346 251.609 99.528 252.29 99.9974C252.971 100.467 253.438 101.185 253.589 101.996L258.213 127.312C258.359 128.123 258.176 128.959 257.705 129.637C257.233 130.315 256.512 130.78 255.697 130.93Z" stroke="#263238" stroke-linecap="round" stroke-linejoin="round"/>
<path d="M347.607 212.022L316.316 295.59C316.316 295.59 303.228 270.763 291.137 247.788C281.48 229.416 272.458 212.188 271.241 209.653C268.513 203.943 259.196 191.981 259.196 191.981C259.196 191.981 249.637 186.534 245.262 177.047C240.887 167.56 236.073 133.623 236.073 133.623C236.073 133.623 223.507 128.914 220.507 126.853C217.507 124.791 214.771 105.743 214.771 103.568C214.771 101.394 217.794 97.0382 217.794 97.0382C217.794 97.0382 217.121 93.8484 220.96 90.6285C222.215 89.603 223.606 88.7549 225.093 88.1082H225.169C225.169 88.1082 224.67 80.9086 228.433 78.8096C228.613 78.7084 228.8 78.6204 228.993 78.5463C232.348 77.2598 243.35 75.5972 243.35 75.5972C244.905 74.2365 246.716 73.1959 248.677 72.5353C250.627 72.0011 261.327 74.4762 267.304 75.9433C269.707 76.5301 271.347 76.9514 271.347 76.9514C271.347 76.9514 281.457 77.4103 283.369 78.5463C284.703 79.4168 285.921 80.4505 286.996 81.6233L287.185 81.8414C287.185 81.8414 296.2 83.7072 298.112 86.9948C300.024 90.2824 300.84 106.593 299.48 117.193C298.12 127.793 300.56 145.781 300.56 145.781C300.56 145.781 303.379 159.676 305.563 164.95C307.747 170.224 347.607 212.022 347.607 212.022Z" fill="white"/>
<path opacity="0.4" d="M291.137 247.788C281.48 229.416 272.458 212.188 271.241 209.653C268.513 203.943 259.196 191.981 259.196 191.981C259.196 191.981 249.637 186.534 245.262 177.047C240.887 167.561 236.073 133.624 236.073 133.624C236.073 133.624 223.507 128.914 220.507 126.853C217.507 124.791 214.771 105.743 214.771 103.568C214.771 101.394 217.794 97.0383 217.794 97.0383C217.794 97.0383 217.121 93.8485 220.96 90.6286C220.96 91.4862 220.96 92.9307 220.96 95.2027C220.869 99.5135 225.97 125.506 227.232 124.716C228.494 123.926 230.443 122.023 229.93 120.345C229.93 120.345 227.459 110.257 225.124 88.1083H225.199C225.199 88.1083 224.7 80.9087 228.464 78.8097C227.816 80.3687 227.401 82.0136 227.232 83.6922C227.149 87.198 231.335 117.238 232.975 117.998C234.615 118.758 238.771 114.755 238.771 114.755C238.771 114.755 237.35 106.232 237.856 102.598C237.856 102.598 250.498 110.272 250.876 118.983C250.914 119.939 253.34 133.593 253.34 133.593C253.34 133.593 242.466 154.207 253.566 173.015C253.566 173.015 247.922 169.645 246.577 164.288C246.577 164.288 244.937 180.042 256.597 188.362C256.597 188.362 264.962 180.184 273.221 179.146C273.221 179.146 273.372 179.688 267.841 184.029C262.309 188.37 261.561 190.303 261.561 190.303C261.561 190.303 267.546 184.285 272.329 184.029C272.329 184.029 267.395 189.709 267.546 190.897C267.697 192.086 281.654 215.844 286.732 232.418C288.802 239.339 290.215 244.335 291.137 247.788Z" fill="#92E3A9"/>
<path opacity="0.4" d="M251.949 90.117C251.949 90.117 255.977 93.1263 257.171 90.117C257.856 88.5067 258.292 86.8021 258.463 85.0614C258.463 85.0614 260.012 84.3542 261.486 88.0707C262.959 91.7871 277.732 92.7351 281.193 94.6384C284.654 96.5418 286.029 94.6384 286.029 94.6384C286.835 95.298 287.388 96.2142 287.595 97.2325C287.801 98.2508 287.649 99.3089 287.163 100.228C285.485 103.681 290.238 103.99 292.082 101.447C293.926 98.9041 292.497 108.722 287.941 109.722C287.941 109.722 288.069 114.011 285.137 116.952H287.624C287.624 116.952 281.004 122.181 279.243 122.467C277.483 122.753 285.795 125.679 284.253 126.296C282.712 126.913 278.344 126.86 278.344 126.86C278.344 126.86 281.17 128.809 281.193 130.095C281.216 131.382 279.855 132.352 279.243 131.276C278.631 130.2 273.75 114.793 271.317 109.098C268.883 103.403 258.833 98.8965 251.949 90.117Z" fill="#92E3A9"/>
<path opacity="0.4" d="M286.989 81.5706C278.51 79.261 267.138 75.9734 267.138 75.9734L267.296 75.8906C269.699 76.4774 271.339 76.8987 271.339 76.8987C271.339 76.8987 281.45 77.3576 283.362 78.4936C284.695 79.3641 285.914 80.3979 286.989 81.5706Z" fill="#92E3A9"/>
<path d="M275.065 94.849C267.69 93.3444 262.423 99.6187 262.423 99.6187C262.423 99.6187 269.752 106.224 271.377 109.06C273.002 111.897 275.699 121.458 275.699 121.458C278.79 121.955 284.488 118.78 285.855 110.354C287.223 101.928 282.402 96.3461 275.065 94.849Z" fill="#92E3A9"/>
<path d="M316.316 295.59C316.316 295.59 273.999 215.363 271.241 209.653C268.483 203.943 259.196 191.981 259.196 191.981C259.196 191.981 249.637 186.534 245.262 177.047C240.887 167.561 236.073 133.623 236.073 133.623C236.073 133.623 223.507 128.914 220.507 126.853C217.507 124.791 214.771 105.743 214.771 103.568C214.771 101.394 217.794 97.0383 217.794 97.0383C217.794 97.0383 216.706 91.8849 225.169 88.0707C225.169 88.0707 224.625 80.1788 228.993 78.5087C232.348 77.2222 243.35 75.5596 243.35 75.5596C244.905 74.199 246.716 73.1583 248.677 72.4977C251.405 71.7454 271.347 76.9138 271.347 76.9138C271.347 76.9138 281.457 77.3727 283.369 78.5087C284.767 79.4269 286.04 80.5219 287.155 81.7662C287.155 81.7662 296.17 83.632 298.082 86.9196C299.994 90.2072 300.81 106.517 299.449 117.118C298.089 127.718 300.53 145.706 300.53 145.706C300.53 145.706 303.349 159.601 305.533 164.875C307.716 170.149 347.607 212.023 347.607 212.023" stroke="#263238" stroke-linecap="round" stroke-linejoin="round"/>
<path d="M280.49 132.518C280.49 132.518 278.578 132.111 276.122 123.136C273.667 114.161 273.017 109.963 267.924 104.644C264.312 100.883 256.045 94.7362 251.949 90.117C247.854 85.4977 243.327 81.7662 239.791 84.625C236.965 86.882 235.121 92.7425 237.607 101.785C240.803 113.401 250.884 118.931 250.884 118.931L253.347 133.541C253.347 133.541 242.655 154.861 254.707 174.986" stroke="#263238" stroke-linecap="round" stroke-linejoin="round"/>
<path d="M262.385 99.6187C262.385 99.6187 267.674 93.3519 275.027 94.849C282.379 96.3461 287.155 101.921 285.818 110.354C284.48 118.788 278.752 121.955 275.662 121.458" stroke="#263238" stroke-linecap="round" stroke-linejoin="round"/>
<path d="M243.327 75.5446C242.223 78.3084 241.373 81.1664 240.788 84.0834" stroke="#263238" stroke-linecap="round" stroke-linejoin="round"/>
<path d="M238.854 105.005C238.854 105.005 239.489 114.296 240.803 117.148C242.118 119.999 244.302 122.316 245.254 125.988C246.206 129.659 246.35 135.369 246.622 136.189C246.894 137.009 248.473 137.22 248.473 137.22C250.74 137.272 251.654 136.099 252.962 134.308" stroke="#263238" stroke-linecap="round" stroke-linejoin="round"/>
<path d="M225.192 88.0557C225.192 88.0557 227.239 107.902 228.879 116.335C230.519 124.769 233.413 125.988 238.166 128.711C242.919 131.434 245.541 136.986 245.957 137.821C246.373 138.657 247.929 138.747 247.929 138.747C248.844 138.671 249.725 138.369 250.493 137.869C251.261 137.368 251.891 136.685 252.327 135.88" stroke="#263238" stroke-linecap="round" stroke-linejoin="round"/>
<path d="M217.801 97.0232C217.287 97.8131 221.67 117.968 223.952 123.813C226.234 129.659 226.491 130.584 232.529 132.239C238.567 133.894 243.153 136.648 244.786 135.677" stroke="#263238" stroke-linecap="round" stroke-linejoin="round"/>
<path d="M259.732 85.8739C259.732 85.8739 262.868 93.3519 260.798 98.2721" stroke="#263238" stroke-linecap="round" stroke-linejoin="round"/>
<path d="M271.339 76.8988C276.478 78.9215 281.766 80.5488 287.155 81.7663" stroke="#263238" stroke-linecap="round" stroke-linejoin="round"/>
<path d="M292.105 102.741C292.105 102.741 289.702 107.112 286.059 108.052" stroke="#263238" stroke-linecap="round" stroke-linejoin="round"/>
<path d="M286.052 97.9788C286.052 97.9788 285.19 100.236 284.276 100.86" stroke="#263238" stroke-linecap="round" stroke-linejoin="round"/>
<path d="M289.074 115.929C289.074 115.929 283.611 120.044 278.367 121.112" stroke="#263238" stroke-linecap="round" stroke-linejoin="round"/>
<path d="M276.123 123.144C276.123 123.144 278.39 125.995 284.276 126.266" stroke="#263238" stroke-linecap="round" stroke-linejoin="round"/>
<path d="M258.44 110.663C258.44 110.663 263.79 105.547 266.843 106.254" stroke="#263238" stroke-linecap="round" stroke-linejoin="round"/>
<path d="M268.914 111.701C268.914 111.701 264.863 114.71 264.123 114.71" stroke="#263238" stroke-linecap="round" stroke-linejoin="round"/>
<path d="M227.209 127.658C227.209 127.658 228.554 127.906 229.605 126.288" stroke="#263238" stroke-linecap="round" stroke-linejoin="round"/>
<path d="M231.992 120.33C231.992 120.33 235.242 118.329 237.365 117.945" stroke="#263238" stroke-linecap="round" stroke-linejoin="round"/>
<path d="M260.616 188.189C261.289 187.595 267.568 182.539 271.452 180.749" stroke="#263238" stroke-linecap="round" stroke-linejoin="round"/>
<path d="M268.763 185.797C268.317 185.661 264.75 189.378 262.868 190.867" stroke="#263238" stroke-linecap="round" stroke-linejoin="round"/>
<path d="M270.531 196.818C270.531 196.818 282.493 219.388 285.183 228.415" stroke="#263238" stroke-linecap="round" stroke-linejoin="round"/>
<path d="M305.562 164.905C306.575 170.449 309.862 174.535 311.661 176.746" stroke="#263238" stroke-linecap="round" stroke-linejoin="round"/>
<path opacity="0.4" d="M267.856 97.0233C266.118 98.0916 267.946 101.582 268.913 103.365C269.881 105.148 274.203 107.985 275.102 110.663C276.001 113.341 281.684 113.266 283.414 110.663C285.145 108.06 284.926 102.861 280.21 98.9041C275.495 94.9469 270.327 95.5186 267.856 97.0233Z" fill="white"/>
<path d="M234.675 246.953C226.979 245.65 219.068 246.982 212.23 250.731C205.392 254.481 200.032 260.426 197.023 267.597C194.015 274.768 193.535 282.743 195.663 290.22C197.792 297.697 202.401 304.236 208.741 308.771" stroke="#263238" stroke-linecap="round" stroke-linejoin="round"/>
<path d="M249.07 252.949C245.866 250.645 242.288 248.909 238.491 247.818" stroke="#263238" stroke-linecap="round" stroke-linejoin="round"/>
<path d="M245.594 310.907C250.252 308.34 254.249 304.735 257.275 300.374C260.3 296.013 262.271 291.015 263.034 285.769C263.796 280.524 263.329 275.174 261.67 270.138C260.011 265.102 257.203 260.517 253.468 256.74" stroke="#263238" stroke-linecap="round" stroke-linejoin="round"/>
<path d="M247.256 321.755L249.319 323.561L246.108 312.63" stroke="#263238" stroke-linecap="round" stroke-linejoin="round"/>
<path d="M223.083 314.729C228.164 315.597 233.375 315.316 238.332 313.909L244.838 319.627" stroke="#263238" stroke-linecap="round" stroke-linejoin="round"/>
<path d="M215.164 312.397C216.454 312.95 217.776 313.425 219.124 313.819" stroke="#263238" stroke-linecap="round" stroke-linejoin="round"/>
<path d="M231.607 264.12C235.887 264.849 239.738 267.146 242.403 270.56C245.067 273.973 246.351 278.256 246.003 282.565C245.654 286.874 243.698 290.897 240.519 293.843C237.341 296.788 233.17 298.442 228.828 298.479C224.486 298.516 220.287 296.934 217.058 294.044C213.829 291.153 211.804 287.164 211.381 282.862C210.958 278.559 212.168 274.255 214.773 270.796C217.378 267.337 221.189 264.975 225.456 264.173" stroke="#263238" stroke-linecap="round" stroke-linejoin="round"/>
<path d="M225.456 300.074C220.423 299.22 215.937 296.411 212.984 292.265C210.031 288.118 208.852 282.974 209.708 277.963" stroke="#263238" stroke-linecap="round" stroke-linejoin="round"/>
<path d="M246.796 287.691C245.61 290.954 243.559 293.835 240.859 296.029C238.159 298.223 234.912 299.647 231.463 300.149" stroke="#263238" stroke-linecap="round" stroke-linejoin="round"/>
<path d="M211.189 273.178C213.14 268.955 216.566 265.581 220.83 263.685C225.093 261.789 229.903 261.501 234.365 262.873C238.826 264.244 242.635 267.184 245.081 271.143C247.528 275.103 248.446 279.812 247.665 284.395" stroke="#263238" stroke-linecap="round" stroke-linejoin="round"/>
<path d="M240.237 274.27L240.456 274.036" stroke="#263238" stroke-width="2" stroke-linecap="round" stroke-linejoin="round"/>
<path d="M237.154 277.579L238.688 275.932" stroke="#263238" stroke-width="2" stroke-linecap="round" stroke-linejoin="round"/>
<path d="M218.338 280.002L225.751 289.82L235.809 279.024" stroke="#263238" stroke-width="2" stroke-linecap="round" stroke-linejoin="round"/>
</g>
<defs>
<clipPath id="clip0_14_3058">
<rect width="348" height="323" fill="white" transform="translate(0 0.937256)"/>
</clipPath>
</defs>
</svg>
