<svg width="79" height="96" viewBox="0 0 79 96" fill="none" xmlns="http://www.w3.org/2000/svg">
<path d="M47.4647 0C49.4241 0.84514 50.1359 2.53293 50.0373 4.87256C49.9623 6.5678 50.0223 8.27047 50.0223 9.98801C53.1009 9.28166 55.7292 11.9038 55.219 15.7677C58.1552 15.9248 61.0506 16.6261 63.7944 17.8446C69.6386 20.442 74.4451 24.4868 77.0263 31.3123C79.8498 38.7723 78.7886 45.7392 74.205 51.7741C69.197 58.3642 62.804 62.2404 55.2876 63.5887C50.4039 64.4661 45.9211 63.4078 42.0128 59.8042C38.2718 56.3542 36.2801 51.6973 35.6263 46.3067C34.7237 38.8516 36.2308 31.9443 39.5474 25.5252C39.6417 25.3418 39.7232 25.1534 39.8411 24.9081L38.6384 23.9985C37.4121 25.6954 36.1822 27.3964 34.9488 29.1016C33.2873 31.4065 31.6473 33.7337 29.9558 36.0114C29.4451 36.688 29.1788 37.5654 29.2118 38.4625C29.2268 54.6912 29.2118 70.9298 29.2376 87.1485C29.2376 90.0607 28.4508 92.4424 26.2983 94.0361C25.6144 94.5317 24.7976 94.7994 24.0408 95.1712H21.942C20.5378 94.6755 19.245 93.9518 18.2481 92.549C17.2362 93.9989 15.9456 94.678 14.5607 95.1712H12.4747C8.72725 93.9815 7.17294 90.8761 7.25226 86.3183C7.39376 78.3873 7.293 70.4564 7.293 62.5255V61.4647C7.16605 61.4713 7.03982 61.4904 6.91568 61.5217C3.80708 62.9146 0.344744 60.1412 0.417635 55.8982C0.520541 49.9252 0.434787 43.9473 0.445507 37.9693C0.45952 34.6686 1.36614 31.4555 3.03841 28.7801C4.71068 26.1047 7.06486 24.1009 9.7713 23.0493C10.3844 22.8014 11.0105 22.6279 11.7008 22.3925C10.1872 20.6824 9.15172 18.722 8.85801 16.4022C8.66775 14.6226 8.6018 12.8282 8.66078 11.0364C8.71867 7.38073 10.0371 4.42645 12.5433 2.181C13.8146 1.04093 15.296 0.495683 16.8139 0L19.7017 0C19.8399 0.0775427 19.9833 0.142195 20.1304 0.193324C23.715 1.15743 26.1997 3.61601 27.3595 7.65831C28.2021 10.5903 28.0284 13.6437 27.6104 16.65C27.3317 18.6327 26.427 20.3156 25.4 21.9588C25.9216 21.7047 26.3929 21.3302 26.785 20.8583C28.9131 17.9636 31.0191 15.0448 33.1029 12.1021C33.1896 11.9653 33.2511 11.8093 33.2836 11.6439C33.316 11.4785 33.3187 11.3072 33.2916 11.1405C33.1305 10.5332 33.0968 9.89019 33.1934 9.26483C33.2899 8.63947 33.514 8.04969 33.8469 7.5443C35.8599 4.39175 38.4454 2.14382 41.6698 0.939314C42.7246 0.545246 43.8137 0.309802 44.8985 0L47.4647 0ZM38.0595 42.8543C38.156 43.801 38.2075 45.36 38.4883 46.8619C40.1112 55.6627 45.6853 61.7175 54.2736 60.5303C61.2154 59.5687 67.1367 55.918 71.9175 49.9872C74.1664 47.2014 75.5385 43.8779 75.7164 40.0016C75.9737 34.4698 73.9799 29.9913 70.6269 26.3084C66.4078 21.6738 61.239 19.4828 55.4956 18.9549C53.9229 18.7751 52.341 19.1667 50.9699 20.0752C48.7467 21.5424 46.4227 22.8014 44.1545 24.1918C43.7546 24.4353 43.4033 24.773 43.1233 25.1832C39.7768 30.2069 38.2118 35.937 38.0595 42.8543ZM13.075 25.4831C7.50096 26.0705 3.23253 31.5552 3.19608 38.1651C3.16607 44.0489 3.19608 49.9351 3.19608 55.8214C3.19514 56.1921 3.2333 56.5617 3.30971 56.9218C3.42488 57.4328 3.68757 57.8831 4.05431 58.198C4.42105 58.5128 4.86983 58.6734 5.32631 58.6532C5.78279 58.633 6.2196 58.4331 6.56439 58.0867C6.90919 57.7402 7.1413 57.268 7.22226 56.7483C7.27839 56.3202 7.30348 55.8875 7.29729 55.4546C7.29729 49.7872 7.29729 44.1183 7.29729 38.4477C7.29729 37.2085 7.82468 36.4649 8.66722 36.4649C9.50976 36.4649 10.0457 37.2332 10.0564 38.4477C10.0564 38.6955 10.0564 38.9433 10.0564 39.1912V87.0519C10.0564 87.4236 10.0457 87.7954 10.0564 88.1672C10.1894 90.6852 12.3761 92.5168 14.4278 91.8327C15.9135 91.3371 16.8353 89.8277 16.8375 87.8078C16.8375 79.9397 16.8375 72.0707 16.8375 64.2009C16.8233 63.7697 16.8659 63.3384 16.964 62.922C17.0581 62.618 17.2315 62.3552 17.4603 62.1698C17.689 61.9845 17.9619 61.8857 18.2412 61.887C18.5205 61.8884 18.7926 61.9899 19.02 62.1774C19.2474 62.365 19.4189 62.6295 19.5109 62.9344C19.6061 63.3514 19.648 63.7822 19.6352 64.2133C19.6352 71.8964 19.6352 79.5794 19.6352 87.2625C19.6352 87.6963 19.6352 88.13 19.6609 88.5612C19.8324 90.7918 21.8327 92.4226 23.7107 91.8674C25.4043 91.3718 26.4248 89.7732 26.4248 87.5971C26.4248 71.1801 26.4205 54.7623 26.4119 38.3436C26.378 36.7577 26.8609 35.2149 27.7647 34.0212C30.824 29.8401 33.8404 25.6144 36.8654 21.3986C37.0455 21.1508 37.277 20.8261 37.277 20.5386C37.277 19.0194 37.8216 17.8124 38.7777 16.7194L35.4676 13.8791C35.1267 14.3426 34.8245 14.7391 34.5436 15.1406C32.6549 17.7529 30.7575 20.3577 28.8795 22.9774C27.709 24.6082 26.204 25.3814 24.3946 25.4285C24.0816 25.4285 23.7664 25.4285 23.537 25.4285C22.583 28.3456 22.3172 31.1735 22.8381 34.1575C23.2841 36.7276 23.4491 39.3622 23.715 41.9744C23.85 43.3029 23.3655 44.3215 22.4287 45.0576C21.5883 45.7144 20.7436 46.3687 19.8903 47.0056C18.7884 47.8334 17.6822 47.8086 16.5888 46.9709C15.8749 46.4232 15.1846 45.8309 14.4449 45.3327C13.0986 44.4207 12.6184 43.1021 12.837 41.34C13.1608 38.7699 13.4566 36.1948 13.746 33.6197C13.8789 32.4251 14.1491 31.2033 14.0354 30.0334C13.8789 28.5018 13.4137 27.0321 13.075 25.4831ZM25.1792 12.6399H25.042C25.042 11.9286 25.0806 11.2124 25.042 10.506C24.7912 6.54054 22.2057 3.58627 18.6919 3.20955C15.549 2.87497 12.3525 5.45747 11.7029 9.15775C11.3771 11.0066 11.4178 12.9745 11.4885 14.8779C11.6536 18.6526 14.3034 21.8175 17.4185 22.1298C20.9794 22.4991 24.0344 20.1099 24.8362 16.2212C25.0806 15.0589 25.0742 13.832 25.1792 12.6399ZM47.3082 7.62361H47.2267C47.2267 6.50832 47.2031 5.39304 47.2267 4.28023C47.2524 3.41774 46.9244 3.13024 46.2126 3.17485C42.075 3.43756 38.7241 5.40542 36.1901 9.2321C35.7913 9.83188 35.8321 10.2235 36.3702 10.6795C37.9566 11.9906 39.5109 13.3611 41.1081 14.645C41.2478 14.7282 41.4017 14.7749 41.5588 14.7818C41.7159 14.7886 41.8723 14.7555 42.0171 14.6846C43.625 13.7825 45.22 12.8407 46.7872 11.8468C46.9249 11.7312 47.0397 11.583 47.124 11.412C47.2083 11.2411 47.2601 11.0514 47.276 10.8555C47.3467 9.79222 47.3082 8.7042 47.3082 7.62113V7.62361ZM18.2974 31.7584C17.9759 31.7584 17.6543 31.7857 17.337 31.7584C16.8653 31.7089 16.6938 31.922 16.6424 32.4772C16.3165 35.5727 15.9435 38.6732 15.6198 41.7588C15.6163 41.9096 15.6411 42.0595 15.6925 42.1981C15.744 42.3368 15.8208 42.4608 15.9178 42.5618C18.1667 44.5322 18.1731 44.5223 20.4992 42.6833C20.5442 42.6486 20.6085 42.6263 20.6278 42.5767C20.7307 42.3289 20.9237 42.081 20.9001 41.8332C20.6142 39.0425 20.3112 36.2543 19.9911 33.4685C19.781 31.7559 19.7574 31.7584 18.2974 31.7584ZM52.4856 15.044C52.522 13.4479 51.5037 12.7068 50.4746 13.3091C47.2646 15.1844 44.0659 17.0845 40.8787 19.0095C40.1134 19.468 39.8775 20.3032 40.2077 21.1037C40.5378 21.9042 41.3118 22.2537 42.105 21.7853C45.3208 19.9042 48.5152 18.0082 51.6924 16.0626C52.0847 15.8247 52.3269 15.2547 52.4856 15.044ZM15.9392 25.4608C16.1407 26.4174 16.2865 27.2626 16.5116 28.078C16.5732 28.1959 16.6578 28.2954 16.7587 28.3686C16.8596 28.4418 16.974 28.4865 17.0926 28.4993C17.8622 28.5489 18.6383 28.5439 19.4101 28.4993C19.6073 28.4993 19.9289 28.3283 19.9718 28.1622C20.199 27.2948 20.3534 26.405 20.5442 25.4558L15.9392 25.4608Z" fill="#50AC97"/>
<path d="M61.2561 47.6798C61.4705 48.1928 61.7063 48.6711 61.8993 49.1866C62.2594 50.1086 62.0129 51.0182 61.3161 51.4172C61.156 51.5177 60.9795 51.5782 60.7979 51.5949C60.6163 51.6115 60.4338 51.5839 60.262 51.5138C60.0902 51.4437 59.9331 51.3327 59.8008 51.188C59.6685 51.0433 59.5639 50.8681 59.4938 50.6737C59.0822 49.5039 58.4734 49.1866 57.3907 49.2263C55.4269 49.2932 53.9262 48.1457 52.8886 46.2274C52.3569 45.236 52.4877 44.2942 53.1866 43.7787C53.8855 43.2632 54.6316 43.4937 55.2061 44.5049C55.8493 45.64 56.7454 46.2572 57.9138 46.0688C59.0822 45.8804 59.9012 45.0626 60.2142 43.687C60.3439 43.1618 60.3441 42.6051 60.215 42.0796C60.0858 41.5542 59.8323 41.0809 59.4831 40.7129C58.7735 39.9 57.901 39.5654 56.9105 39.9025C56.1966 40.1503 55.5127 40.5444 54.7881 40.703C53.6776 40.9455 52.5293 40.783 51.5022 40.2381C50.4751 39.6931 49.6198 38.7926 49.0548 37.6612C48.4897 36.5297 48.2428 35.2232 48.3481 33.9224C48.4535 32.6216 48.9059 31.3908 49.6428 30.4002C50.0437 29.8575 50.1252 29.4535 49.7693 28.8834C49.606 28.6005 49.4776 28.2927 49.3877 27.9689C49.2668 27.604 49.2686 27.2 49.3929 26.8365C49.5171 26.4731 49.7547 26.1768 50.0587 26.006C50.659 25.6541 51.4908 25.773 51.7438 26.5017C52.2304 27.902 52.9744 28.2366 54.2542 28.2143C56.0551 28.2143 57.4915 29.3494 58.4734 31.1438C59.0415 32.1872 58.9193 33.1265 58.1732 33.6544C57.4593 34.1501 56.724 33.8725 56.1494 32.8861C55.3948 31.5874 54.2392 31.057 53.0301 31.4511C52.4832 31.6585 52.0067 32.0599 51.6684 32.5982C51.3301 33.1366 51.1472 33.7846 51.1456 34.45C51.1456 35.8329 51.881 37.1291 53.0751 37.3919C53.8256 37.5372 54.5962 37.4412 55.3026 37.1143C58.6127 35.5553 62.1501 37.553 62.924 41.5754C63.3399 43.7416 62.8404 45.6772 61.5348 47.3204C61.4383 47.4295 61.3547 47.5484 61.2561 47.6798Z" fill="#50AC97"/>
</svg>
